<svg width="192" height="192" viewBox="0 0 192 192" fill="none" xmlns="http://www.w3.org/2000/svg">
<g id="icon/alert-octagon">
<path id="Icon (Stroke)" fill-rule="evenodd" clip-rule="evenodd" d="M67.8491 11.9998C67.9593 11.9999 68.0704 12 68.1823 12H123.818C123.93 12 124.042 11.9999 124.152 11.9998C125.779 11.9983 127.214 11.997 128.608 12.3316C129.832 12.6256 131.003 13.1104 132.077 13.7684C133.299 14.5173 134.313 15.5329 135.462 16.6848C135.54 16.7628 135.619 16.8414 135.698 16.9206L175.08 56.3026C175.159 56.3818 175.238 56.4602 175.316 56.5381C176.468 57.6879 177.483 58.7016 178.232 59.9238C178.89 60.9974 179.375 62.168 179.669 63.3924C180.003 64.7862 180.002 66.2212 180.001 67.8487C180.001 67.9589 180 68.07 180 68.182V123.818C180 123.93 180.001 124.041 180.001 124.151C180.002 125.779 180.003 127.214 179.669 128.608C179.375 129.832 178.89 131.003 178.232 132.076C177.483 133.298 176.468 134.312 175.316 135.462C175.238 135.54 175.159 135.618 175.08 135.697L135.698 175.079C135.619 175.159 135.54 175.237 135.462 175.315C134.312 176.467 133.299 177.483 132.077 178.232C131.003 178.89 129.832 179.375 128.608 179.668C127.214 180.003 125.779 180.002 124.152 180C124.042 180 123.93 180 123.818 180H68.1823C68.0703 180 67.9593 180 67.8491 180C66.2215 180.002 64.7865 180.003 63.3928 179.668C62.1683 179.375 60.9978 178.89 59.9241 178.232C58.702 177.483 57.6882 176.467 56.5384 175.315C56.4606 175.237 56.3821 175.159 56.3029 175.079L16.921 135.698C16.8418 135.618 16.7633 135.54 16.6853 135.462C15.5333 134.312 14.5177 133.298 13.7687 132.076C13.1108 131.003 12.6259 129.832 12.332 128.608C11.9974 127.214 11.9987 125.779 12.0002 124.151C12.0003 124.041 12.0004 123.93 12.0004 123.818V68.182C12.0004 68.07 12.0003 67.9589 12.0002 67.8488C11.9987 66.2212 11.9974 64.7862 12.332 63.3924C12.6259 62.168 13.1108 60.9974 13.7687 59.9238C14.5177 58.7016 15.5333 57.6879 16.6852 56.5381C16.7632 56.4602 16.8418 56.3818 16.921 56.3026L56.3029 16.9206C56.3821 16.8415 56.4606 16.7629 56.5384 16.6849C57.6882 15.5329 58.702 14.5173 59.9241 13.7684C60.9978 13.1104 62.1683 12.6256 63.3928 12.3316C64.7866 11.997 66.2215 11.9983 67.8491 11.9998ZM68.1823 20C66.0352 20 65.6136 20.0257 65.2603 20.1106C64.8522 20.2085 64.462 20.3702 64.1041 20.5895C63.7943 20.7793 63.478 21.0593 61.9598 22.5775L22.5779 61.9594C21.0596 63.4777 20.7797 63.794 20.5898 64.1038C20.3705 64.4616 20.2089 64.8518 20.1109 65.26C20.0261 65.6132 20.0004 66.0349 20.0004 68.182V123.818C20.0004 125.965 20.0261 126.387 20.1109 126.74C20.2089 127.148 20.3705 127.538 20.5898 127.896C20.7797 128.206 21.0596 128.522 22.5779 130.041L61.9598 169.423C63.4781 170.941 63.7943 171.221 64.1041 171.411C64.462 171.63 64.8522 171.792 65.2603 171.89C65.6136 171.974 66.0352 172 68.1823 172H123.818C125.966 172 126.387 171.974 126.74 171.89C127.149 171.792 127.539 171.63 127.897 171.411C128.206 171.221 128.523 170.941 130.041 169.423L169.423 130.041C170.941 128.522 171.221 128.206 171.411 127.896C171.63 127.538 171.792 127.148 171.89 126.74C171.975 126.387 172 125.965 172 123.818V68.182C172 66.0349 171.975 65.6132 171.89 65.26C171.792 64.8518 171.63 64.4617 171.411 64.1038C171.221 63.794 170.941 63.4777 169.423 61.9594L130.041 22.5775C128.523 21.0593 128.206 20.7793 127.897 20.5895C127.539 20.3702 127.149 20.2085 126.74 20.1106C126.387 20.0257 125.966 20 123.818 20H68.1823ZM96.0004 60C98.2095 60 100 61.7909 100 64V104C100 106.209 98.2095 108 96.0004 108C93.7913 108 92.0004 106.209 92.0004 104V64C92.0004 61.7909 93.7913 60 96.0004 60ZM92.0004 128C92.0004 125.791 93.7913 124 96.0004 124H96.0804C98.2895 124 100.08 125.791 100.08 128C100.08 130.209 98.2895 132 96.0804 132H96.0004C93.7913 132 92.0004 130.209 92.0004 128Z" fill="#F5C9BD"/>
<circle id="Ellipse 3632" cx="96" cy="128" r="5.56836" fill="#F5C9BD"/>
</g>
</svg>
