<svg width="32" height="32" viewBox="0 0 32 32" fill="none" xmlns="http://www.w3.org/2000/svg">
<g id="icon/car-doors">
<path id="Union (Stroke)" fill-rule="evenodd" clip-rule="evenodd" d="M12.5472 3.42444C12.9267 2.95001 13.5014 2.67383 14.1089 2.67383H27.3262C28.4307 2.67383 29.3262 3.56926 29.3262 4.67383V27.3262C29.3262 28.4307 28.4307 29.3262 27.3262 29.3262H4.67383C3.56926 29.3262 2.67383 28.4307 2.67383 27.3262V16.4677C2.67383 16.0136 2.82839 15.5729 3.11209 15.2183L12.5472 3.42444ZM14.1089 4.00716C13.9064 4.00716 13.7149 4.09922 13.5884 4.25736L4.15325 16.0512C4.05868 16.1695 4.00716 16.3163 4.00716 16.4677V27.3262C4.00716 27.6944 4.30564 27.9928 4.67383 27.9928H27.3262C27.6944 27.9928 27.9928 27.6944 27.9928 27.3262V4.67383C27.9928 4.30564 27.6944 4.00716 27.3262 4.00716H14.1089Z" fill="#1C1C1C"/>
<path id="Rectangle 101494 (Stroke)" fill-rule="evenodd" clip-rule="evenodd" d="M14.4276 6.67943C14.5791 6.48327 14.813 6.36841 15.0608 6.36841L25.0206 6.36846C25.4624 6.36846 25.8206 6.72663 25.8206 7.16846V14.2706C25.8206 14.7124 25.4624 15.0706 25.0206 15.0706H9.57589C8.91144 15.0706 8.5366 14.3075 8.94273 13.7816L14.4276 6.67943ZM15.3228 7.70174L10.6616 13.7373H24.4872V7.70179L15.3228 7.70174Z" fill="#1C1C1C"/>
<path id="Vector 80 (Stroke)" fill-rule="evenodd" clip-rule="evenodd" d="M20.7451 18.6147C20.7451 18.2465 21.0436 17.948 21.4118 17.948H25.5217C25.8899 17.948 26.1884 18.2465 26.1884 18.6147C26.1884 18.9829 25.8899 19.2813 25.5217 19.2813H21.4118C21.0436 19.2813 20.7451 18.9829 20.7451 18.6147Z" fill="#1C1C1C"/>
</g>
</svg>
