<svg width="28" height="17" viewBox="0 0 28 17" fill="none" xmlns="http://www.w3.org/2000/svg">
<g id="Group 1597883098">
<path id="Vector (Stroke)" fill-rule="evenodd" clip-rule="evenodd" d="M9.57324 13.2955C9.57324 12.9143 9.88229 12.6052 10.2635 12.6052H17.8267C18.2079 12.6052 18.5169 12.9143 18.5169 13.2955C18.5169 13.6767 18.2079 13.9858 17.8267 13.9858H10.2635C9.88229 13.9858 9.57324 13.6767 9.57324 13.2955Z" fill="#1C1C1C"/>
<g id="Vector">
<path fill-rule="evenodd" clip-rule="evenodd" d="M25.2248 1.46961C24.7715 0.714064 23.9499 0 22.8682 0H14.0445C12.954 0 12.0497 0.469332 11.3444 1.03363C11.3245 1.04954 11.3055 1.06654 11.2875 1.08455C10.7132 1.65881 10.0146 2.38929 9.46211 2.97331C9.18531 3.26593 8.94413 3.52293 8.77211 3.70681L8.64309 3.84499C8.54981 3.866 8.42778 3.89359 8.2819 3.92683C7.92601 4.00789 7.42787 4.12254 6.85849 4.25698C5.72463 4.52469 4.29992 4.87283 3.1534 5.19108C1.86548 5.51777 0.749023 6.78176 0.749023 8.25341V12.035C0.749023 12.57 0.930377 13.0695 1.29785 13.437C1.66532 13.8044 2.16481 13.9858 2.69983 13.9858H5.22087C5.60211 13.9858 5.91116 13.6767 5.91116 13.2955C5.91116 12.9143 5.60211 12.6052 5.22087 12.6052H2.69983C2.47854 12.6052 2.34777 12.5345 2.27406 12.4608C2.20035 12.387 2.1296 12.2563 2.1296 12.035V8.25341C2.1296 7.45966 2.77251 6.70935 3.49751 6.5281L3.5149 6.52375C4.63594 6.21235 6.04332 5.86798 7.17574 5.6006C7.74083 5.46718 8.23535 5.35336 8.58851 5.27292C8.76506 5.2327 8.90622 5.20084 9.00313 5.17906L9.15165 5.14581L9.00244 4.47185L9.50828 4.94155L9.58011 4.86436L9.7803 4.64996C9.95099 4.4675 10.1904 4.21241 10.4651 3.92204C11.0065 3.34968 11.6808 2.64464 12.2359 2.0886C12.7832 1.65764 13.382 1.38057 14.0445 1.38057H22.8682C23.2919 1.38057 23.7234 1.66522 24.0258 2.1549L25.7573 5.7417C25.8912 6.14518 25.9594 6.56761 25.9594 6.99289V12.035C25.9594 12.2563 25.8887 12.387 25.815 12.4608C25.7413 12.5345 25.6105 12.6052 25.3892 12.6052H22.8682C22.4869 12.6052 22.1779 12.9143 22.1779 13.2955C22.1779 13.6767 22.4869 13.9858 22.8682 13.9858H25.3892C25.9242 13.9858 26.4237 13.8044 26.7912 13.437C27.1587 13.0695 27.34 12.57 27.34 12.035V6.99289C27.34 6.40205 27.2422 5.81529 27.0506 5.25639C27.0417 5.23038 27.0312 5.20493 27.0193 5.18017L25.2545 1.52465C25.2455 1.50587 25.2355 1.4875 25.2248 1.46961ZM9.00244 4.47185L9.50828 4.94155C9.41303 5.04413 9.2883 5.11545 9.15165 5.14581L9.00244 4.47185Z" fill="#1C1C1C"/>
<path fill-rule="evenodd" clip-rule="evenodd" d="M20.3468 11.4649C21.3579 11.4649 22.1779 12.2844 22.1779 13.2955C22.1779 14.3066 21.3579 15.1264 20.3468 15.1264C19.3357 15.1264 18.516 14.3067 18.516 13.2956C18.516 12.2845 19.3357 11.4649 20.3468 11.4649ZM23.5581 13.2956C23.5581 11.5221 22.1204 10.0843 20.3468 10.0843C18.5732 10.0843 17.1355 11.5221 17.1355 13.2956C17.1355 15.0692 18.5732 16.507 20.3468 16.507C22.1204 16.507 23.5581 15.0692 23.5581 13.2956Z" fill="#1C1C1C"/>
<path fill-rule="evenodd" clip-rule="evenodd" d="M7.74198 11.4649C8.75307 11.4649 9.57273 12.2845 9.57273 13.2956C9.57273 14.3067 8.75307 15.1264 7.74198 15.1264C6.73088 15.1264 5.91116 14.3066 5.91116 13.2955C5.91116 12.2844 6.73088 11.4649 7.74198 11.4649ZM10.9533 13.2956C10.9533 11.5221 9.51554 10.0843 7.74198 10.0843C5.96841 10.0843 4.53065 11.5221 4.53065 13.2956C4.53065 15.0692 5.96841 16.507 7.74198 16.507C9.51554 16.507 10.9533 15.0692 10.9533 13.2956Z" fill="#1C1C1C"/>
</g>
</g>
</svg>
