<svg width="28" height="28" viewBox="0 0 28 28" fill="none" xmlns="http://www.w3.org/2000/svg">
<g id="Group 1597883099">
<path id="Rectangle 101488 (Stroke)" fill-rule="evenodd" clip-rule="evenodd" d="M11.7083 2.03023C11.4347 1.75663 10.9911 1.75663 10.7175 2.03023L2.02974 10.718C1.75615 10.9916 1.75615 11.4352 2.02974 11.7088L8.94732 18.6264C9.22091 18.9 9.66448 18.9 9.93807 18.6264L10.3001 18.2644C10.489 18.0754 10.554 17.7955 10.4677 17.5426L10.0169 16.2225C9.76623 15.4884 9.95497 14.6756 10.5035 14.1271L14.1266 10.504C14.6751 9.95546 15.4879 9.76672 16.222 10.0174L17.5421 10.4682C17.795 10.5545 18.075 10.4895 18.2639 10.3005L18.6259 9.93856C18.8995 9.66497 18.8995 9.22139 18.6259 8.9478L11.7083 2.03023ZM9.77474 1.08742C10.569 0.293126 11.8568 0.293127 12.6511 1.08742L19.5687 8.00499C20.363 8.79928 20.363 10.0871 19.5687 10.8814L19.2067 11.2434C18.6582 11.7919 17.8454 11.9806 17.1113 11.73L15.7912 11.2792C15.5383 11.1928 15.2584 11.2579 15.0694 11.4468L11.4463 15.0699C11.2574 15.2589 11.1924 15.5388 11.2787 15.7917L11.7295 17.1118C11.9801 17.8459 11.7914 18.6587 11.2429 19.2072L10.8809 19.5692C10.0866 20.3635 8.79879 20.3635 8.00451 19.5692L1.08693 12.6516C0.292639 11.8573 0.292638 10.5695 1.08693 9.77522L9.77474 1.08742Z" fill="#1C1C1C"/>
<path id="Union (Stroke)" fill-rule="evenodd" clip-rule="evenodd" d="M18.9491 16.354L14.2813 11.6862L15.2242 10.7434L19.8919 15.4112C20.4009 15.9201 21.1997 16.12 22.1344 16.1691C23.4844 16.2401 24.8155 16.7917 25.8468 17.823C28.0625 20.0387 28.0625 23.6311 25.8468 25.8468C23.6311 28.0624 20.0388 28.0624 17.8231 25.8468C16.7922 24.8158 16.2406 23.4853 16.1693 22.1358C16.1199 21.2015 15.92 20.4032 15.4113 19.8945L10.7422 15.2254L11.685 14.2826L16.3541 18.9516C17.2258 19.8234 17.4471 21.0503 17.5008 22.0655C17.5554 23.0989 17.9767 24.1148 18.7659 24.9039C20.4609 26.5989 23.209 26.5989 24.904 24.9039C26.599 23.209 26.599 20.4608 24.904 18.7658C24.1146 17.9764 23.0982 17.555 22.0644 17.5006C21.0488 17.4472 19.8212 17.2261 18.9491 16.354Z" fill="#1C1C1C"/>
<rect id="Rectangle 101490" x="3.24707" y="13.8689" width="15.0209" height="1.25174" transform="rotate(-45 3.24707 13.8689)" fill="#1C1C1C"/>
</g>
</svg>
