<svg width="20" height="20" viewBox="0 0 20 20" fill="none" xmlns="http://www.w3.org/2000/svg">
<g clip-path="url(#clip0_960_13680)">
<path fill-rule="evenodd" clip-rule="evenodd" d="M10 0.5C10.2761 0.5 10.5 0.723858 10.5 1V11.7929L14.6464 7.64645C14.8417 7.45118 15.1583 7.45118 15.3536 7.64645C15.5488 7.84171 15.5488 8.15829 15.3536 8.35355L10.3536 13.3536C10.1583 13.5488 9.84171 13.5488 9.64645 13.3536L4.64645 8.35355C4.45118 8.15829 4.45118 7.84171 4.64645 7.64645C4.84171 7.45118 5.15829 7.45118 5.35355 7.64645L9.5 11.7929V1C9.5 0.723858 9.72386 0.5 10 0.5ZM1 12.5C1.27614 12.5 1.5 12.7239 1.5 13V14.2C1.5 15.0483 1.50039 15.6545 1.53921 16.1297C1.57756 16.599 1.65089 16.8963 1.77248 17.135C2.01217 17.6054 2.39462 17.9878 2.86502 18.2275C3.10366 18.3491 3.40099 18.4224 3.87032 18.4608C4.34549 18.4996 4.95167 18.5 5.8 18.5H14.2C15.0483 18.5 15.6545 18.4996 16.1297 18.4608C16.599 18.4224 16.8963 18.3491 17.135 18.2275C17.6054 17.9878 17.9878 17.6054 18.2275 17.135C18.3491 16.8963 18.4224 16.599 18.4608 16.1297C18.4996 15.6545 18.5 15.0483 18.5 14.2V13C18.5 12.7239 18.7239 12.5 19 12.5C19.2761 12.5 19.5 12.7239 19.5 13V14.2222C19.5 15.0435 19.5 15.6905 19.4575 16.2111C19.4141 16.7423 19.3239 17.1859 19.1185 17.589C18.783 18.2475 18.2475 18.783 17.589 19.1185C17.1859 19.3239 16.7423 19.4141 16.2111 19.4575C15.6905 19.5 15.0435 19.5 14.2222 19.5H5.77778C4.95651 19.5 4.30954 19.5 3.78889 19.4575C3.25771 19.4141 2.81413 19.3239 2.41103 19.1185C1.75247 18.783 1.21703 18.2475 0.881477 17.589C0.676087 17.1859 0.585932 16.7423 0.542533 16.2111C0.499994 15.6905 0.499997 15.0435 0.5 14.2222L0.5 13C0.5 12.7239 0.723858 12.5 1 12.5Z" fill="#EF9B1B"/>
</g>
<defs>
<clipPath id="clip0_960_13680">
<rect width="20" height="20" fill="white"/>
</clipPath>
</defs>
</svg>
