<svg width="32" height="32" viewBox="0 0 32 32" fill="none" xmlns="http://www.w3.org/2000/svg">
<path fill-rule="evenodd" clip-rule="evenodd" d="M7.23242 8.06706C7.23242 7.69887 7.5309 7.40039 7.89909 7.40039H13.946C14.3142 7.40039 14.6126 7.69887 14.6126 8.06706C14.6126 8.43525 14.3142 8.73372 13.946 8.73372H11.5892V10.0827C11.5892 10.4509 11.2907 10.7493 10.9225 10.7493C10.5543 10.7493 10.2559 10.4509 10.2559 10.0827V8.73372H7.89909C7.5309 8.73372 7.23242 8.43525 7.23242 8.06706Z" fill="#1C1C1C"/>
<path fill-rule="evenodd" clip-rule="evenodd" d="M3.36393 21.3313C2.99574 21.3313 2.69727 21.0328 2.69727 20.6646L2.69727 12.6021C2.69727 12.2339 2.99574 11.9355 3.36393 11.9355C3.73212 11.9355 4.0306 12.2339 4.0306 12.6021L4.0306 15.9667L5.37956 15.9667C5.74775 15.9667 6.04622 16.2652 6.04622 16.6334C6.04622 17.0016 5.74775 17.3 5.37956 17.3L4.0306 17.3L4.0306 20.6646C4.0306 21.0328 3.73212 21.3313 3.36393 21.3313Z" fill="#1C1C1C"/>
<path fill-rule="evenodd" clip-rule="evenodd" d="M6.72852 10.5945C6.72852 10.115 7.11724 9.72632 7.59674 9.72632H14.2483C14.7278 9.72632 15.1165 10.115 15.1165 10.5945V11.4706H17.2717C17.7513 11.4706 18.14 11.8593 18.14 12.3388V14.3777H18.8223V12.9202C18.8223 12.4407 19.211 12.052 19.6905 12.052H21.303C21.7825 12.052 22.1712 12.4407 22.1712 12.9202V20.6571C22.1712 21.1366 21.7825 21.5254 21.303 21.5254H19.6905C19.211 21.5254 18.8223 21.1366 18.8223 20.6571V19.1996H18.14V22.9829C18.14 23.4624 17.7513 23.8511 17.2717 23.8511H12.2691C11.9878 23.8511 11.7239 23.7148 11.5611 23.4854L10.1699 21.5254H5.58112C5.10161 21.5254 4.71289 21.1367 4.71289 20.6572V12.3388C4.71289 11.8593 5.10161 11.4706 5.58112 11.4706H6.72852V10.5945ZM8.06185 11.0597V11.9357C8.06185 12.4152 7.67313 12.8039 7.19362 12.8039H6.04622V20.1921H10.4101C10.6915 20.1921 10.9553 20.3284 11.1182 20.5578L12.5093 22.5178H16.8066V18.7345C16.8066 18.255 17.1954 17.8662 17.6749 17.8662H19.2874C19.7669 17.8662 20.1556 18.255 20.1556 18.7345V20.192H20.8379V13.3853H20.1556V14.8428C20.1556 15.3223 19.7669 15.711 19.2874 15.711H17.6749C17.1954 15.711 16.8066 15.3223 16.8066 14.8428V12.8039H14.6514C14.1719 12.8039 13.7832 12.4152 13.7832 11.9357V11.0597H8.06185Z" fill="#1C1C1C"/>
<path fill-rule="evenodd" clip-rule="evenodd" d="M26.1956 8.11447C26.4559 7.85412 26.878 7.85412 27.1384 8.11447L29.3809 10.357C29.6412 10.6173 29.6412 11.0394 29.3809 11.2998C29.1205 11.5601 28.6984 11.5601 28.4381 11.2998L26.667 9.52868L24.8959 11.2998C24.6356 11.5601 24.2134 11.5601 23.9531 11.2998C23.6927 11.0394 23.6927 10.6173 23.9531 10.357L26.1956 8.11447Z" fill="#1C1C1C"/>
<path fill-rule="evenodd" clip-rule="evenodd" d="M27.1384 23.6231C26.878 23.8834 26.4559 23.8834 26.1956 23.6231L23.9531 21.3806C23.6927 21.1202 23.6927 20.6981 23.9531 20.4378C24.2134 20.1774 24.6356 20.1774 24.8959 20.4378L26.667 22.2089L28.4381 20.4378C28.6984 20.1774 29.1205 20.1774 29.3809 20.4378C29.6412 20.6981 29.6412 21.1202 29.3809 21.3806L27.1384 23.6231Z" fill="#1C1C1C"/>
<path fill-rule="evenodd" clip-rule="evenodd" d="M26.6667 8.66675C27.0349 8.66675 27.3333 8.96522 27.3333 9.33341V22.6667C27.3333 23.0349 27.0349 23.3334 26.6667 23.3334C26.2985 23.3334 26 23.0349 26 22.6667V9.33341C26 8.96522 26.2985 8.66675 26.6667 8.66675Z" fill="#1C1C1C"/>
</svg>
