<svg width="32" height="32" viewBox="0 0 32 32" fill="none" xmlns="http://www.w3.org/2000/svg">
<g id="icon/engine">
<path id="Vector 71 (Stroke)" fill-rule="evenodd" clip-rule="evenodd" d="M9.33301 5.33341C9.33301 4.96522 9.63148 4.66675 9.99967 4.66675H17.9997C18.3679 4.66675 18.6663 4.96522 18.6663 5.33341C18.6663 5.7016 18.3679 6.00008 17.9997 6.00008H14.6663V8.00008C14.6663 8.36827 14.3679 8.66675 13.9997 8.66675C13.6315 8.66675 13.333 8.36827 13.333 8.00008V6.00008H9.99967C9.63148 6.00008 9.33301 5.7016 9.33301 5.33341Z" fill="#1C1C1C"/>
<path id="Vector 72 (Stroke)" fill-rule="evenodd" clip-rule="evenodd" d="M3.99967 22.6667C3.63148 22.6667 3.33301 22.3683 3.33301 22.0001L3.33301 11.3334C3.33301 10.9652 3.63148 10.6667 3.99967 10.6667C4.36786 10.6667 4.66634 10.9652 4.66634 11.3334L4.66634 16.0001L6.66634 16.0001C7.03453 16.0001 7.33301 16.2986 7.33301 16.6667C7.33301 17.0349 7.03453 17.3334 6.66634 17.3334L4.66634 17.3334L4.66634 22.0001C4.66634 22.3683 4.36786 22.6667 3.99967 22.6667Z" fill="#1C1C1C"/>
<path id="Union (Stroke)" fill-rule="evenodd" clip-rule="evenodd" d="M8.66667 8.67699C8.66667 8.16152 9.08453 7.74365 9.6 7.74365H18.4C18.9155 7.74365 19.3333 8.16152 19.3333 8.67699V10.0513H22.4C22.9155 10.0513 23.3333 10.4692 23.3333 10.9847V13.8975H24.6667V11.7539C24.6667 11.2384 25.0845 10.8206 25.6 10.8206H27.7333C28.2488 10.8206 28.6667 11.2384 28.6667 11.7539V21.9898C28.6667 22.5053 28.2488 22.9231 27.7333 22.9231H25.6C25.0845 22.9231 24.6667 22.5053 24.6667 21.9898V19.8462H23.3333V25.0667C23.3333 25.5822 22.9155 26.0001 22.4 26.0001H15.7815C15.4791 26.0001 15.1955 25.8535 15.0204 25.6069L13.1155 22.9231H6.93333C6.41787 22.9231 6 22.5053 6 21.9898V10.9847C6 10.4692 6.41787 10.0513 6.93333 10.0513H8.66667V8.67699ZM10 9.07699V10.4513C10 10.9668 9.58213 11.3847 9.06667 11.3847H7.33333V21.5898H13.3221C13.6245 21.5898 13.9082 21.7363 14.0832 21.9829L15.9881 24.6667H22V19.4462C22 18.9308 22.4179 18.5129 22.9333 18.5129H25.0667C25.5821 18.5129 26 18.9308 26 19.4462V21.5898H27.3333V12.1539H26V14.2975C26 14.813 25.5821 15.2308 25.0667 15.2308H22.9333C22.4179 15.2308 22 14.813 22 14.2975V11.3847H18.9333C18.4179 11.3847 18 10.9668 18 10.4513V9.07699H10Z" fill="#1C1C1C"/>
<path id="Icon (Stroke)" fill-rule="evenodd" clip-rule="evenodd" d="M15.866 12.3168C16.1535 12.5468 16.2001 12.9663 15.9701 13.2538L14.17 15.504H16.7829C17.0392 15.504 17.2727 15.6509 17.3838 15.8819C17.4948 16.1129 17.4636 16.387 17.3035 16.5871L14.6368 19.9205C14.4068 20.208 13.9873 20.2546 13.6998 20.0246C13.4122 19.7946 13.3656 19.3751 13.5956 19.0875L15.3958 16.8373H12.7829C12.5266 16.8373 12.293 16.6904 12.182 16.4595C12.071 16.2285 12.1022 15.9543 12.2623 15.7542L14.929 12.4209C15.159 12.1334 15.5785 12.0868 15.866 12.3168Z" fill="#1C1C1C"/>
</g>
</svg>
