<svg width="32" height="32" viewBox="0 0 32 32" fill="none" xmlns="http://www.w3.org/2000/svg">
<g id="icon/fuel">
<path id="Vector (Stroke)" fill-rule="evenodd" clip-rule="evenodd" d="M4.66699 27.9999C4.66699 27.6317 4.96547 27.3333 5.33366 27.3333H20.0003C20.3685 27.3333 20.667 27.6317 20.667 27.9999C20.667 28.3681 20.3685 28.6666 20.0003 28.6666H5.33366C4.96547 28.6666 4.66699 28.3681 4.66699 27.9999Z" fill="#1C1C1C"/>
<path id="Vector (Stroke)_2" fill-rule="evenodd" clip-rule="evenodd" d="M6 11.9999C6 11.6317 6.29848 11.3333 6.66667 11.3333H18.6667C19.0349 11.3333 19.3333 11.6317 19.3333 11.9999C19.3333 12.3681 19.0349 12.6666 18.6667 12.6666H6.66667C6.29848 12.6666 6 12.3681 6 11.9999Z" fill="#1C1C1C"/>
<path id="Vector (Stroke)_3" fill-rule="evenodd" clip-rule="evenodd" d="M6.89821 4.23146C7.47332 3.65635 8.25334 3.33325 9.06667 3.33325H16.2667C17.08 3.33325 17.86 3.65635 18.4351 4.23146C19.0102 4.80657 19.3333 5.58659 19.3333 6.39992V27.9999C19.3333 28.3681 19.0349 28.6666 18.6667 28.6666C18.2985 28.6666 18 28.3681 18 27.9999V6.39992C18 5.94021 17.8174 5.49933 17.4923 5.17427C17.1673 4.8492 16.7264 4.66659 16.2667 4.66659H9.06667C8.60696 4.66659 8.16608 4.8492 7.84101 5.17427C7.51595 5.49933 7.33333 5.94021 7.33333 6.39992V27.9999C7.33333 28.3681 7.03486 28.6666 6.66667 28.6666C6.29848 28.6666 6 28.3681 6 27.9999V6.39992C6 5.58659 6.32309 4.80657 6.89821 4.23146Z" fill="#1C1C1C"/>
<path id="Vector (Stroke)_4" fill-rule="evenodd" clip-rule="evenodd" d="M22.8571 7.5334C23.1147 7.27038 23.5368 7.26603 23.7999 7.52368L27.7768 11.4194C27.7765 11.4192 27.777 11.4197 27.7768 11.4194C28.0578 11.6933 28.2823 12.0204 28.4352 12.3808C28.5882 12.7416 28.667 13.1289 28.6667 13.5205V21.7142C28.6667 22.5017 28.3472 23.2541 27.7831 23.8067C27.2195 24.3588 26.4579 24.6666 25.6667 24.6666C24.8754 24.6666 24.1138 24.3588 23.5502 23.8067C22.9861 23.2541 22.6667 22.5017 22.6667 21.7142V19.4285C22.6667 19.0036 22.4945 18.5932 22.1834 18.2885C21.8718 17.9833 21.4464 17.8094 21 17.8094H18.6667C18.2985 17.8094 18 17.511 18 17.1428C18 16.7746 18.2985 16.4761 18.6667 16.4761H21C21.7913 16.4761 22.5528 16.7839 23.1164 17.336C23.6805 17.8886 24 18.641 24 19.4285V21.7142C24 22.1391 24.1722 22.5495 24.4833 22.8542C24.7948 23.1594 25.2203 23.3333 25.6667 23.3333C26.1131 23.3333 26.5385 23.1594 26.8501 22.8542C27.1611 22.5495 27.3333 22.1391 27.3333 21.7142V13.5199C27.3335 13.3082 27.2909 13.0977 27.2077 12.9014C27.1244 12.7051 27.0019 12.526 26.8466 12.3747L26.8451 12.3733L22.8668 8.47616C22.6038 8.21851 22.5994 7.79642 22.8571 7.5334Z" fill="#1C1C1C"/>
</g>
</svg>
