<svg width="32" height="32" viewBox="0 0 32 32" fill="none" xmlns="http://www.w3.org/2000/svg">
<g id="icon/gear">
<path id="Union" fill-rule="evenodd" clip-rule="evenodd" d="M16.6667 6.66667C16.6667 6.29848 16.3682 6 16 6C15.6318 6 15.3333 6.29848 15.3333 6.66667V15.3333H7.33333L7.33333 6.66667C7.33333 6.29848 7.03486 6 6.66667 6C6.29848 6 6 6.29848 6 6.66667L6 15.9992C6 15.9995 6 15.9997 6 16C6 16.0003 6 16.0005 6 16.0008L6 25.3333C6 25.7015 6.29848 26 6.66667 26C7.03486 26 7.33333 25.7015 7.33333 25.3333L7.33333 16.6667H15.3333V25.3333C15.3333 25.7015 15.6318 26 16 26C16.3682 26 16.6667 25.7015 16.6667 25.3333V16.6667H25.3333C25.7015 16.6667 26 16.3682 26 16V6.66667C26 6.29848 25.7015 6 25.3333 6C24.9651 6 24.6667 6.29848 24.6667 6.66667V15.3333H16.6667V6.66667Z" fill="#1C1C1C"/>
<path id="Ellipse 3624" d="M7.99967 5.33333C7.99967 6.06971 7.40272 6.66667 6.66634 6.66667C5.92996 6.66667 5.33301 6.06971 5.33301 5.33333C5.33301 4.59695 5.92996 4 6.66634 4C7.40272 4 7.99967 4.59695 7.99967 5.33333Z" fill="#1C1C1C"/>
<path id="Ellipse 3624 (Stroke)" fill-rule="evenodd" clip-rule="evenodd" d="M6.66634 6.66667C7.40272 6.66667 7.99967 6.06971 7.99967 5.33333C7.99967 4.59695 7.40272 4 6.66634 4C5.92996 4 5.33301 4.59695 5.33301 5.33333C5.33301 6.06971 5.92996 6.66667 6.66634 6.66667Z" fill="#1C1C1C"/>
<path id="Ellipse 3625" d="M17.3337 5.33333C17.3337 6.06971 16.7367 6.66667 16.0003 6.66667C15.2639 6.66667 14.667 6.06971 14.667 5.33333C14.667 4.59695 15.2639 4 16.0003 4C16.7367 4 17.3337 4.59695 17.3337 5.33333Z" fill="#1C1C1C"/>
<path id="Ellipse 3625 (Stroke)" fill-rule="evenodd" clip-rule="evenodd" d="M16.0003 6.66667C16.7367 6.66667 17.3337 6.06971 17.3337 5.33333C17.3337 4.59695 16.7367 4 16.0003 4C15.2639 4 14.667 4.59695 14.667 5.33333C14.667 6.06971 15.2639 6.66667 16.0003 6.66667Z" fill="#1C1C1C"/>
<path id="Ellipse 3626" d="M26.6667 5.33333C26.6667 6.06971 26.0697 6.66667 25.3333 6.66667C24.597 6.66667 24 6.06971 24 5.33333C24 4.59695 24.597 4 25.3333 4C26.0697 4 26.6667 4.59695 26.6667 5.33333Z" fill="#1C1C1C"/>
<path id="Ellipse 3626 (Stroke)" fill-rule="evenodd" clip-rule="evenodd" d="M25.3333 6.66667C26.0697 6.66667 26.6667 6.06971 26.6667 5.33333C26.6667 4.59695 26.0697 4 25.3333 4C24.597 4 24 4.59695 24 5.33333C24 6.06971 24.597 6.66667 25.3333 6.66667Z" fill="#1C1C1C"/>
<path id="Ellipse 3627" d="M17.3337 26.6666C17.3337 27.403 16.7367 27.9999 16.0003 27.9999C15.2639 27.9999 14.667 27.403 14.667 26.6666C14.667 25.9302 15.2639 25.3333 16.0003 25.3333C16.7367 25.3333 17.3337 25.9302 17.3337 26.6666Z" fill="#1C1C1C"/>
<path id="Ellipse 3627 (Stroke)" fill-rule="evenodd" clip-rule="evenodd" d="M16.0003 27.9999C16.7367 27.9999 17.3337 27.403 17.3337 26.6666C17.3337 25.9302 16.7367 25.3333 16.0003 25.3333C15.2639 25.3333 14.667 25.9302 14.667 26.6666C14.667 27.403 15.2639 27.9999 16.0003 27.9999Z" fill="#1C1C1C"/>
<path id="Ellipse 3628" d="M7.99967 26.6666C7.99967 27.403 7.40272 27.9999 6.66634 27.9999C5.92996 27.9999 5.33301 27.403 5.33301 26.6666C5.33301 25.9302 5.92996 25.3333 6.66634 25.3333C7.40272 25.3333 7.99967 25.9302 7.99967 26.6666Z" fill="#1C1C1C"/>
<path id="Ellipse 3628 (Stroke)" fill-rule="evenodd" clip-rule="evenodd" d="M6.66634 27.9999C7.40272 27.9999 7.99967 27.403 7.99967 26.6666C7.99967 25.9302 7.40272 25.3333 6.66634 25.3333C5.92996 25.3333 5.33301 25.9302 5.33301 26.6666C5.33301 27.403 5.92996 27.9999 6.66634 27.9999Z" fill="#1C1C1C"/>
</g>
</svg>
