<svg width="24" height="24" viewBox="0 0 24 24" fill="none" xmlns="http://www.w3.org/2000/svg">
<path fill-rule="evenodd" clip-rule="evenodd" d="M3.58073 12L4.41928 12C4.68285 12 4.91023 12 5.09752 12.0153C5.29519 12.0314 5.4918 12.0671 5.68099 12.1635C5.96323 12.3073 6.1927 12.5368 6.33651 12.819C6.43291 13.0082 6.46857 13.2048 6.48472 13.4025C6.49373 13.5128 6.49743 13.637 6.49895 13.7743L8.73208 12.8404L8.74689 12.8337L8.80744 12.8068C8.85949 12.7839 8.93424 12.7515 9.02669 12.7128C9.21125 12.6355 9.46812 12.5323 9.75702 12.4287C10.3121 12.2298 11.0642 12 11.6431 12C12.0825 12 12.5197 12.0523 12.9464 12.1558L15.3319 12.736C15.3319 12.7359 15.3319 12.736 15.3319 12.736C16.2494 12.9585 16.9079 13.7665 16.9079 14.7091V15.0159C16.9079 15.2334 16.8733 15.4422 16.8095 15.6376L19.1824 13.9064C20.0057 13.3061 21.1561 13.3841 21.8865 14.0947C22.7043 14.8902 22.7048 16.1855 21.8862 16.9804L19.729 19.0789C19.0776 19.7126 18.2482 20.1436 17.3486 20.3189L14.299 20.9122C13.6239 21.0433 12.9275 21.0276 12.2588 20.8647L9.50075 20.1945L9.49961 20.1942C9.20912 20.1229 8.9109 20.0872 8.61029 20.0872H6.49985C6.49928 20.2805 6.49667 20.4512 6.48472 20.5975C6.46857 20.7952 6.43291 20.9918 6.33651 21.181C6.1927 21.4632 5.96323 21.6927 5.68099 21.8365C5.4918 21.9329 5.29519 21.9686 5.09751 21.9847C4.91023 22 4.68285 22 4.41928 22H3.58076C3.31717 22 3.08978 22 2.90249 21.9847C2.70481 21.9686 2.5082 21.9329 2.31901 21.8365C2.03677 21.6927 1.8073 21.4632 1.66349 21.181C1.56709 20.9918 1.53144 20.7952 1.51529 20.5975C1.49998 20.4102 1.49999 20.1828 1.5 19.9193L1.5 14.0807C1.49999 13.8172 1.49998 13.5898 1.51529 13.4025C1.53144 13.2048 1.56709 13.0082 1.66349 12.819C1.8073 12.5368 2.03677 12.3073 2.31902 12.1635C2.50821 12.0671 2.70481 12.0314 2.90249 12.0153C3.08977 12 3.31716 12 3.58073 12ZM6.5 19.0872H8.61029C8.99014 19.0872 9.36822 19.1323 9.73738 19.2229C9.73717 19.2229 9.7376 19.223 9.73738 19.2229L12.495 19.893C13.0231 20.0217 13.5739 20.0343 14.1081 19.9306L17.1574 19.3373C17.8689 19.1987 18.5216 18.8583 19.0317 18.3621L21.1893 16.2633C21.603 15.8615 21.6038 15.2147 21.1893 14.8115C20.8102 14.4427 20.2036 14.3994 19.7717 14.7143L17.2577 16.5485C16.8106 16.8753 16.2688 17.0498 15.7137 17.0498H13.2855C13.0094 17.0498 12.7855 16.826 12.7855 16.5498C12.7855 16.2737 13.0093 16.0498 13.2855 16.0498L14.831 16.0498C15.4391 16.0498 15.9079 15.5743 15.9079 15.0159V14.7091C15.9079 14.2446 15.5817 13.8255 15.0963 13.7078L12.7107 13.1277C12.3611 13.0428 12.0031 13 11.6431 13C11.2572 13 10.6537 13.1696 10.0944 13.3701C9.8261 13.4663 9.58605 13.5627 9.41301 13.6352C9.32666 13.6714 9.25743 13.7014 9.2102 13.7221L9.15659 13.746L9.14339 13.7519L9.14039 13.7533L9.1248 13.7601L6.5 14.8577V19.0872ZM5.5 14.5365V19.9C5.5 20.1883 5.49961 20.3744 5.48804 20.5161C5.47694 20.6519 5.4581 20.7023 5.4455 20.727C5.39757 20.8211 5.32108 20.8976 5.227 20.9455C5.20227 20.9581 5.15191 20.9769 5.01608 20.988C4.87441 20.9996 4.68828 21 4.4 21H3.6C3.31172 21 3.12559 20.9996 2.98392 20.988C2.84809 20.9769 2.79773 20.9581 2.77301 20.9455C2.67892 20.8976 2.60243 20.8211 2.5545 20.727C2.5419 20.7023 2.52306 20.6519 2.51196 20.5161C2.50039 20.3744 2.5 20.1883 2.5 19.9V14.1C2.5 13.8117 2.50039 13.6256 2.51196 13.4839C2.52306 13.3481 2.5419 13.2977 2.5545 13.273C2.60243 13.1789 2.67893 13.1024 2.77301 13.0545C2.79773 13.0419 2.84809 13.0231 2.98392 13.012C3.12559 13.0004 3.31172 13 3.6 13L4.4 13C4.68828 13 4.87441 13.0004 5.01608 13.012C5.15192 13.0231 5.20227 13.0419 5.227 13.0545C5.32108 13.1024 5.39757 13.1789 5.4455 13.273C5.4581 13.2977 5.47694 13.3481 5.48804 13.4839C5.49961 13.6256 5.5 13.8117 5.5 14.1V14.5137C5.49983 14.5213 5.49983 14.5289 5.5 14.5365Z" fill="#757778"/>
<path fill-rule="evenodd" clip-rule="evenodd" d="M17.7048 2C18.6963 2 19.5 2.80373 19.5 3.79519L19.5 7.20481C19.5 8.19627 18.6963 9 17.7048 9L13.2952 9C12.3037 9 11.5 8.19627 11.5 7.20481L11.5 3.79519C11.5 2.80373 12.3037 2 13.2952 2L17.7048 2ZM18.5 3.79519C18.5 3.35602 18.144 3 17.7048 3L13.2952 3C12.856 3 12.5 3.35602 12.5 3.79519L12.5 7.20481C12.5 7.64398 12.856 8 13.2952 8L17.7048 8C18.144 8 18.5 7.64398 18.5 7.20481L18.5 3.79519Z" fill="#757778"/>
<path fill-rule="evenodd" clip-rule="evenodd" d="M11.8715 3.94287C12.2191 3.94287 12.501 4.22472 12.501 4.57239L12.501 6.90373C12.501 7.2514 12.2191 7.53325 11.8715 7.53325L5.89237 7.53325C5.72541 7.53325 5.56529 7.46692 5.44723 7.34887L4.28156 6.1832C4.03572 5.93735 4.03572 5.53876 4.28156 5.29292L5.44723 4.12725C5.56529 4.0092 5.72541 3.94287 5.89237 3.94287L11.8715 3.94287ZM11.501 4.94287L6.04582 4.94287L5.25064 5.73806L6.04582 6.53325L11.501 6.53325L11.501 4.94287Z" fill="#757778"/>
<path fill-rule="evenodd" clip-rule="evenodd" d="M14.5332 3.94678C14.8093 3.94678 15.0332 4.17063 15.0332 4.44678V6.55347C15.0332 6.82961 14.8093 7.05347 14.5332 7.05347C14.2571 7.05347 14.0332 6.82961 14.0332 6.55347V4.44678C14.0332 4.17063 14.2571 3.94678 14.5332 3.94678Z" fill="#757778"/>
<path fill-rule="evenodd" clip-rule="evenodd" d="M16.4824 3.94678C16.7586 3.94678 16.9824 4.17063 16.9824 4.44678V6.55347C16.9824 6.82961 16.7586 7.05347 16.4824 7.05347C16.2063 7.05347 15.9824 6.82961 15.9824 6.55347V4.44678C15.9824 4.17063 16.2063 3.94678 16.4824 3.94678Z" fill="#757778"/>
</svg>
