<svg width="24" height="24" viewBox="0 0 24 24" fill="none" xmlns="http://www.w3.org/2000/svg">
<path fill-rule="evenodd" clip-rule="evenodd" d="M12 1.5C12.2761 1.5 12.5 1.72386 12.5 2V3C12.5 3.27614 12.2761 3.5 12 3.5C11.7239 3.5 11.5 3.27614 11.5 3V2C11.5 1.72386 11.7239 1.5 12 1.5ZM4.54635 4.54635C4.74161 4.35109 5.05819 4.35109 5.25346 4.54635L5.85355 5.14645C6.04882 5.34171 6.04882 5.65829 5.85355 5.85355C5.65829 6.04882 5.34171 6.04882 5.14645 5.85355L4.54635 5.25346C4.35109 5.05819 4.35109 4.74161 4.54635 4.54635ZM19.4538 4.54639C19.6491 4.74168 19.649 5.05826 19.4538 5.2535L18.8535 5.8536C18.6582 6.04883 18.3416 6.0488 18.1464 5.85351C17.9512 5.65822 17.9512 5.34164 18.1465 5.1464L18.7467 4.5463C18.942 4.35107 19.2586 4.35111 19.4538 4.54639ZM12 6.5C8.96243 6.5 6.5 8.96243 6.5 12C6.5 15.0376 8.96243 17.5 12 17.5C15.0376 17.5 17.5 15.0376 17.5 12C17.5 8.96243 15.0376 6.5 12 6.5ZM5.5 12C5.5 8.41015 8.41015 5.5 12 5.5C15.5899 5.5 18.5 8.41015 18.5 12C18.5 14.704 16.849 17.0223 14.5 18.0018V20C14.5 21.3807 13.3807 22.5 12 22.5C10.6193 22.5 9.5 21.3807 9.5 20V18.0018C7.15105 17.0223 5.5 14.7039 5.5 12ZM10.5 18.3261V20C10.5 20.8284 11.1716 21.5 12 21.5C12.8284 21.5 13.5 20.8284 13.5 20V18.3261C13.0185 18.4398 12.5163 18.5 12 18.5C11.4837 18.5 10.9815 18.4398 10.5 18.3261ZM1.5 12C1.5 11.7239 1.72386 11.5 2 11.5H3C3.27614 11.5 3.5 11.7239 3.5 12C3.5 12.2761 3.27614 12.5 3 12.5H2C1.72386 12.5 1.5 12.2761 1.5 12ZM20.5 12C20.5 11.7239 20.7239 11.5 21 11.5H22C22.2761 11.5 22.5 11.7239 22.5 12C22.5 12.2761 22.2761 12.5 22 12.5H21C20.7239 12.5 20.5 12.2761 20.5 12Z" fill="#757778"/>
</svg>
