<svg width="135" height="45" viewBox="0 0 135 45" fill="none" xmlns="http://www.w3.org/2000/svg">
<g clip-path="url(#clip0_1069_1860)">
<path d="M11.7686 19.535H9.79447L0.472656 0.359375H3.26893L10.8113 16.313L18.2969 0.359375H20.9282L11.7686 19.535Z" fill="#1C1C1C"/>
<path d="M23.835 19.508L23.862 0.38623H39.9041V2.4067H26.4663V9.0177H37.4918V11.0112H26.4663V17.4606H40.261V19.508H23.835Z" fill="#1C1C1C"/>
<path d="M58.7682 19.5081V11.0948H46.4013V19.5081H43.77V0.359375H46.4013V8.9639H58.7682V0.359375H61.4022V19.5081H58.7682Z" fill="#1C1C1C"/>
<path d="M66.6108 19.5075V0.385742H69.1881V19.5075H66.6108Z" fill="#1C1C1C"/>
<path d="M93.8958 16.504C93.4557 16.8866 92.925 17.2738 92.303 17.6651C91.6824 18.0571 90.9752 18.4168 90.1801 18.7454C89.385 19.0727 88.5021 19.3354 87.5326 19.5348C86.5644 19.7355 85.5219 19.8365 84.4064 19.8365C83.1637 19.8365 81.8792 19.6223 80.5527 19.1953C79.2276 18.7663 78.0255 18.1332 76.9478 17.2961C75.8695 16.4576 74.9825 15.4197 74.2868 14.1818C73.5924 12.9426 73.2456 11.5135 73.2456 9.89305C73.2456 8.38106 73.5701 7.01522 74.2192 5.79553C74.8682 4.57449 75.718 3.53192 76.7693 2.66783C77.82 1.8024 79.0038 1.13766 80.3201 0.6743C81.6378 0.20959 82.9636 -0.0234375 84.2982 -0.0234375C86.2723 -0.0234375 87.9991 0.268858 89.4797 0.852101C90.9617 1.434 92.3057 2.17147 93.5118 3.06385L92.1678 4.81223C91.1077 4.04714 89.9556 3.41002 88.7117 2.89952C87.469 2.38968 86.0249 2.13443 84.3793 2.13443C83.3192 2.13443 82.2814 2.31695 81.2666 2.6813C80.2512 3.04634 79.3466 3.56492 78.5515 4.23842C77.7564 4.91191 77.1162 5.73222 76.6314 6.69801C76.148 7.66245 75.9067 8.73667 75.9067 9.91999C75.9067 11.1579 76.1622 12.2597 76.6747 13.2255C77.1865 14.1899 77.849 15.0049 78.6624 15.6689C79.475 16.3336 80.3891 16.8435 81.4046 17.1991C82.4194 17.5547 83.4288 17.7325 84.4334 17.7325C85.311 17.7325 86.1385 17.651 86.916 17.4873C87.6928 17.3223 88.4101 17.1122 89.0686 16.857C89.7265 16.6024 90.3342 16.3067 90.8913 15.9706C91.4498 15.6332 91.9575 15.2823 92.4139 14.9173L93.8958 16.504Z" fill="#1C1C1C"/>
<path d="M97.2676 19.508V0.38623H99.8448V17.3771H113.721V19.508H97.2676Z" fill="#1C1C1C"/>
<path d="M116.874 19.508L116.901 0.38623H132.943V2.4067H119.505V9.0177H130.53V11.0112H119.505V17.4606H133.3V19.508H116.874Z" fill="#1C1C1C"/>
<path d="M16.3777 44.7215C15.2615 43.4284 14.2372 42.245 13.3056 41.1708C12.9033 40.7149 12.5057 40.2643 12.1129 39.8184C11.7195 39.3712 11.3584 38.9577 11.0285 38.5765C10.6999 38.194 10.4173 37.8707 10.1793 37.6067C9.94137 37.3427 9.77708 37.1561 9.68716 37.0464H4.85994V44.7215H2.30976L2.28271 25.5728H12.0453C12.9033 25.5728 13.7477 25.7048 14.5793 25.9688C15.4122 26.2328 16.1532 26.6113 16.8022 27.1029C17.4513 27.5932 17.9766 28.1899 18.3789 28.8917C18.7805 29.5922 18.9819 30.3801 18.9819 31.2543C18.9819 32.0194 18.8075 32.7387 18.46 33.4122C18.1138 34.0857 17.6521 34.6824 17.0754 35.201C16.5 35.7202 15.8463 36.1351 15.1147 36.4456C14.3846 36.7547 13.6355 36.9271 12.8675 36.9628C12.8492 36.981 12.808 36.9857 12.7431 36.9763C12.6795 36.9676 12.6389 36.9723 12.6214 36.9898L12.8945 37.1811L19.1469 44.4494L19.2551 44.7215H16.3777ZM16.4858 31.2813C16.4858 30.7176 16.3621 30.2131 16.1153 29.7673C15.8699 29.3201 15.5454 28.9375 15.1418 28.6196C14.7395 28.3004 14.2737 28.0539 13.7437 27.8815C13.2136 27.7077 12.6741 27.6202 12.1265 27.6202H4.85994V34.9424H12.1535C12.7011 34.9424 13.2359 34.8474 13.7572 34.6568C14.2778 34.4649 14.7395 34.2009 15.1418 33.8648C15.5454 33.5274 15.8699 33.1361 16.1153 32.6902C16.3621 32.243 16.4858 31.7736 16.4858 31.2813Z" fill="#1C1C1C"/>
<path d="M24.082 44.7214L24.1091 25.5996H40.1511V27.6201H26.7133V34.2311H37.7389V36.2246H26.7133V42.674H40.5081V44.7214H24.082Z" fill="#1C1C1C"/>
<path d="M61.7855 31.909C61.7855 32.8936 61.5753 33.7725 61.1554 34.5464C60.7349 35.3209 60.1819 35.9762 59.495 36.5129C58.8094 37.0504 58.0414 37.4599 57.1909 37.7414C56.3417 38.0236 55.4966 38.1644 54.6569 38.1644H47.8555V44.7215H45.2783V25.5728H54.6001C55.4419 25.5728 56.2917 25.7007 57.1503 25.9553C58.0103 26.2106 58.7824 26.5978 59.4679 27.1164C60.1528 27.6357 60.7099 28.291 61.1392 29.083C61.5699 29.875 61.7855 30.8172 61.7855 31.909ZM59.2894 31.9359C59.2894 31.2624 59.161 30.6664 58.9054 30.1471C58.6492 29.6285 58.3064 29.1921 57.8778 28.8378C57.4485 28.4822 56.9644 28.2142 56.4256 28.0323C55.886 27.8492 55.333 27.7576 54.7651 27.7576H47.8555V36.09H54.546C55.0937 36.09 55.6508 35.9903 56.2173 35.791C56.7852 35.5903 57.2923 35.3074 57.7399 34.9424C58.1888 34.578 58.5593 34.1409 58.8513 33.6304C59.1434 33.1206 59.2894 32.5555 59.2894 31.9359Z" fill="#1C1C1C"/>
<path d="M88.8783 35.1608C88.8783 36.6357 88.5578 37.9834 87.9182 39.2044C87.278 40.4241 86.4227 41.4667 85.3518 42.3321C84.2823 43.1962 83.0531 43.865 81.6631 44.3391C80.2745 44.8133 78.8222 45.0503 77.3065 45.0503C75.788 45.0503 74.3344 44.8086 72.9444 44.3257C71.5557 43.8428 70.3266 43.1693 69.2557 42.3052C68.1861 41.4398 67.3315 40.3972 66.692 39.1775C66.0517 37.9565 65.7319 36.6088 65.7319 35.1339C65.7319 33.6401 66.0517 32.2783 66.692 31.0498C67.3315 29.82 68.1861 28.7727 69.2557 27.9086C70.3266 27.0432 71.5557 26.3744 72.9444 25.9016C74.3344 25.4275 75.788 25.1904 77.3065 25.1904C78.8222 25.1904 80.2745 25.4369 81.6631 25.9286C83.0531 26.4189 84.2823 27.1018 85.3518 27.976C86.4227 28.8509 87.278 29.8988 87.9182 31.1198C88.5578 32.3395 88.8783 33.6865 88.8783 35.1608ZM86.3551 35.1608C86.3551 34.0691 86.1259 33.0501 85.6682 32.1031C85.2119 31.1549 84.5764 30.3265 83.7617 29.6166C82.9484 28.9054 81.9883 28.3451 80.8816 27.9356C79.7762 27.5261 78.5842 27.3214 77.3065 27.3214C76.026 27.3214 74.8327 27.5261 73.7259 27.9356C72.6205 28.3451 71.6652 28.9054 70.8593 29.6166C70.0548 30.3265 69.4193 31.1549 68.9528 32.1031C68.4876 33.0501 68.2551 34.0691 68.2551 35.1608C68.2551 36.235 68.4876 37.2419 68.9528 38.1807C69.4193 39.1182 70.0548 39.9372 70.8593 40.6376C71.6652 41.3381 72.6205 41.8944 73.7259 42.3052C74.8327 42.7147 76.026 42.9194 77.3065 42.9194C78.5842 42.9194 79.7762 42.7194 80.8816 42.3187C81.9883 41.9186 82.9484 41.3677 83.7617 40.6673C84.5764 39.9655 85.2119 39.1411 85.6682 38.1942C86.1259 37.2459 86.3551 36.235 86.3551 35.1608Z" fill="#1C1C1C"/>
<path d="M107.661 44.7215C106.545 43.4284 105.52 42.245 104.589 41.1708C104.186 40.7149 103.789 40.2643 103.396 39.8184C103.003 39.3712 102.642 38.9577 102.312 38.5765C101.983 38.194 101.701 37.8707 101.463 37.6067C101.225 37.3427 101.06 37.1561 100.97 37.0464H96.1431V44.7215H93.593L93.5659 25.5728H103.329C104.186 25.5728 105.031 25.7048 105.862 25.9688C106.695 26.2328 107.436 26.6113 108.085 27.1029C108.734 27.5932 109.26 28.1899 109.662 28.8917C110.064 29.5922 110.265 30.3801 110.265 31.2543C110.265 32.0194 110.091 32.7387 109.743 33.4122C109.397 34.0857 108.935 34.6824 108.359 35.201C107.783 35.7202 107.129 36.1351 106.398 36.4456C105.668 36.7547 104.919 36.9271 104.151 36.9628C104.132 36.981 104.091 36.9857 104.026 36.9763C103.963 36.9676 103.922 36.9723 103.905 36.9898L104.178 37.1811L110.43 44.4494L110.538 44.7215H107.661ZM107.769 31.2813C107.769 30.7176 107.645 30.2131 107.399 29.7673C107.153 29.3201 106.829 28.9375 106.425 28.6196C106.023 28.3004 105.557 28.0539 105.027 27.8815C104.497 27.7077 103.957 27.6202 103.41 27.6202H96.1431V34.9424H103.437C103.984 34.9424 104.519 34.8474 105.04 34.6568C105.561 34.4649 106.023 34.2009 106.425 33.8648C106.829 33.5274 107.153 33.1361 107.399 32.6902C107.645 32.243 107.769 31.7736 107.769 31.2813Z" fill="#1C1C1C"/>
<path d="M125.704 27.6202V44.7215H123.043V27.6202H114.294L114.267 25.5728H134.368V27.6202H125.704Z" fill="#1C1C1C"/>
</g>
<defs>
<clipPath id="clip0_1069_1860">
<rect width="135" height="45" fill="white"/>
</clipPath>
</defs>
</svg>
