<svg width="402" height="402" viewBox="0 0 402 402" fill="none" xmlns="http://www.w3.org/2000/svg">
<circle cx="201" cy="201" r="201" transform="rotate(-90 201 201)" fill="#F7F8F9"/>
<circle cx="201" cy="201" r="184" transform="rotate(-90 201 201)" fill="#F7F8F9" stroke="#DCDDDE" stroke-width="16"/>
<path d="M93.5 350.348C47.1629 316.936 17 262.49 17 201C17 99.3794 99.3796 16.9998 201 16.9998C241.351 16.9998 278.669 29.9888 309 52.0138" stroke="#EF9B1B" stroke-width="16"/>
<path d="M338 337.5L319.5 319L314.5 88.5L339.5 65L379 116.5L398.5 204.5L379 280L360 316.5L338 337.5Z" fill="#F7F8F9"/>
<path d="M167.933 32.1755C178.472 30.1233 189.354 29.0333 200.485 29.0008L200.503 35.0007C200.669 35.0002 200.834 35 201 35C201.166 35 201.331 35.0002 201.497 35.0007L201.514 29.0008C212.646 29.0333 223.528 30.1233 234.067 32.1755L232.92 38.0649C233.242 38.1277 233.564 38.1914 233.886 38.256L235.068 32.3736C245.904 34.5509 256.372 37.7465 266.367 41.8564L264.085 47.4056C264.389 47.5306 264.693 47.6565 264.996 47.7833L267.311 42.2479C277.45 46.4878 287.096 51.6707 296.141 57.6869L292.817 62.6826C293.091 62.8648 293.365 63.0479 293.638 63.2317L296.99 58.2558C306.066 64.3707 314.526 71.3283 322.26 79.0163L318.03 83.2715C318.263 83.5036 318.496 83.7365 318.729 83.9701L322.984 79.74C330.672 87.4736 337.629 95.9342 343.744 105.01L338.768 108.362C338.952 108.635 339.135 108.909 339.317 109.183L344.313 105.859C350.329 114.904 355.512 124.55 359.752 134.689L354.217 137.004C354.343 137.307 354.469 137.61 354.594 137.915L360.144 135.633C364.253 145.628 367.449 156.096 369.626 166.932L363.744 168.114C363.809 168.435 363.872 168.757 363.935 169.08L369.824 167.933C371.877 178.472 372.967 189.354 372.999 200.485L366.999 200.503C367 200.583 367 200.663 367 200.744C367 200.829 367 200.915 367 201C367 201.166 367 201.331 366.999 201.497L372.999 201.514C372.967 212.646 371.877 223.528 369.824 234.067L363.935 232.92C363.872 233.242 363.809 233.564 363.744 233.886L369.626 235.068C367.449 245.904 364.253 256.372 360.144 266.367L354.594 264.085C354.469 264.389 354.343 264.693 354.217 264.996L359.752 267.311C355.512 277.45 350.329 287.096 344.313 296.141L339.317 292.817C339.135 293.091 338.952 293.365 338.768 293.638L343.744 296.99C337.629 306.066 330.672 314.526 322.984 322.26L318.729 318.03C318.496 318.263 318.263 318.496 318.03 318.729L322.26 322.984C314.526 330.672 306.066 337.629 296.99 343.744L293.638 338.768C293.365 338.952 293.091 339.135 292.817 339.317L296.141 344.313C287.096 350.329 277.45 355.512 267.311 359.752L264.996 354.217C264.693 354.343 264.389 354.469 264.085 354.594L266.367 360.144C256.372 364.253 245.904 367.449 235.068 369.626L233.886 363.744C233.565 363.809 233.243 363.872 232.92 363.935L234.067 369.824C223.528 371.877 212.646 372.967 201.515 372.999L201.497 366.999C201.331 367 201.166 367 201 367C200.834 367 200.669 367 200.503 366.999L200.486 372.999C189.354 372.967 178.472 371.877 167.933 369.824L169.08 363.935C168.758 363.872 168.435 363.809 168.114 363.744L166.932 369.626C156.096 367.449 145.628 364.253 135.633 360.144L137.915 354.594C137.611 354.469 137.307 354.343 137.004 354.217L134.689 359.752C124.55 355.512 114.904 350.329 105.859 344.313L109.183 339.317C108.909 339.135 108.635 338.952 108.362 338.768L105.01 343.744C95.9342 337.629 87.4736 330.672 79.74 322.984L83.9701 318.729C83.7365 318.496 83.5037 318.263 83.2715 318.03L79.0163 322.26C71.3283 314.526 64.3707 306.066 58.2558 296.99L63.2317 293.638C63.0479 293.365 62.8648 293.091 62.6826 292.817L57.6869 296.141C51.6707 287.096 46.4878 277.45 42.2479 267.311L47.7833 264.996C47.6565 264.693 47.5306 264.389 47.4056 264.085L41.8564 266.367C37.7465 256.372 34.5509 245.904 32.3736 235.068L38.256 233.886C38.1914 233.565 38.1277 233.243 38.0649 232.92L32.1755 234.067C30.1233 223.528 29.0333 212.646 29.0007 201.515L35.0007 201.497C35.0002 201.331 35 201.166 35 201C35 200.834 35.0002 200.669 35.0007 200.503L29.0007 200.486C29.0333 189.354 30.1233 178.472 32.1755 167.933L38.0649 169.08C38.1277 168.758 38.1914 168.435 38.256 168.114L32.3736 166.932C34.5509 156.096 37.7465 145.628 41.8564 135.633L47.4056 137.915C47.5306 137.611 47.6565 137.307 47.7833 137.004L42.2478 134.689C46.4878 124.55 51.6707 114.904 57.6869 105.859L62.6826 109.183C62.8648 108.909 63.0479 108.635 63.2317 108.362L58.2558 105.01C64.3707 95.9342 71.3283 87.4736 79.0163 79.74L83.2715 83.9701C83.5037 83.7365 83.7365 83.5037 83.9701 83.2715L79.74 79.0163C87.4736 71.3283 95.9342 64.3707 105.01 58.2558L108.362 63.2317C108.635 63.0479 108.909 62.8648 109.183 62.6826L105.859 57.6869C114.904 51.6707 124.55 46.4878 134.689 42.2479L137.004 47.7833C137.307 47.6565 137.61 47.5306 137.915 47.4056L135.633 41.8564C145.628 37.7465 156.096 34.5509 166.932 32.3736L168.114 38.256C168.435 38.1914 168.757 38.1277 169.08 38.0649L167.933 32.1755Z" fill="#F7F8F9" stroke="#DCDDDE" stroke-width="12" stroke-dasharray="1 32"/>
<circle cx="201" cy="201" r="164.5" transform="rotate(-90 201 201)" stroke="#DCDDDE" stroke-width="15" stroke-dasharray="2 109"/>
<path d="M97.0462 99.8182V110H95.2017V101.613H95.142L92.7607 103.134V101.444L95.2912 99.8182H97.0462ZM103.286 110.139C102.57 110.139 101.933 110.017 101.376 109.771C100.823 109.526 100.385 109.185 100.064 108.747C99.7424 108.31 99.5717 107.804 99.5518 107.231H101.421C101.438 107.506 101.529 107.746 101.695 107.952C101.86 108.154 102.081 108.311 102.356 108.424C102.631 108.537 102.939 108.593 103.281 108.593C103.645 108.593 103.968 108.53 104.25 108.404C104.532 108.275 104.752 108.096 104.911 107.867C105.07 107.638 105.148 107.375 105.145 107.077C105.148 106.768 105.069 106.497 104.906 106.261C104.744 106.026 104.509 105.842 104.2 105.71C103.895 105.577 103.527 105.511 103.097 105.511H102.197V104.089H103.097C103.451 104.089 103.761 104.027 104.026 103.905C104.295 103.782 104.505 103.61 104.658 103.388C104.81 103.162 104.885 102.902 104.881 102.607C104.885 102.319 104.82 102.069 104.688 101.857C104.558 101.641 104.374 101.474 104.136 101.354C103.9 101.235 103.624 101.175 103.305 101.175C102.994 101.175 102.705 101.232 102.44 101.344C102.175 101.457 101.961 101.618 101.799 101.827C101.637 102.032 101.55 102.277 101.54 102.562H99.7656C99.7789 101.992 99.9429 101.492 100.258 101.061C100.576 100.627 101 100.289 101.531 100.047C102.061 99.8016 102.656 99.679 103.315 99.679C103.995 99.679 104.585 99.8066 105.085 100.062C105.589 100.314 105.978 100.653 106.254 101.081C106.529 101.509 106.666 101.981 106.666 102.498C106.67 103.071 106.5 103.552 106.159 103.94C105.821 104.327 105.377 104.581 104.827 104.7V104.78C105.543 104.879 106.091 105.144 106.472 105.575C106.857 106.003 107.047 106.535 107.044 107.171C107.044 107.741 106.882 108.252 106.557 108.702C106.235 109.15 105.791 109.501 105.224 109.756C104.661 110.012 104.015 110.139 103.286 110.139ZM112.514 110.194C111.695 110.194 110.993 109.987 110.406 109.572C109.823 109.155 109.374 108.553 109.059 107.768C108.747 106.979 108.591 106.029 108.591 104.919C108.595 103.809 108.752 102.864 109.064 102.085C109.379 101.303 109.828 100.706 110.411 100.295C110.998 99.8845 111.699 99.679 112.514 99.679C113.329 99.679 114.03 99.8845 114.617 100.295C115.204 100.706 115.653 101.303 115.964 102.085C116.279 102.867 116.437 103.812 116.437 104.919C116.437 106.033 116.279 106.984 115.964 107.773C115.653 108.558 115.204 109.158 114.617 109.572C114.034 109.987 113.333 110.194 112.514 110.194ZM112.514 108.638C113.15 108.638 113.653 108.325 114.02 107.698C114.392 107.068 114.577 106.142 114.577 104.919C114.577 104.11 114.493 103.431 114.324 102.881C114.155 102.33 113.916 101.916 113.608 101.638C113.3 101.356 112.935 101.215 112.514 101.215C111.881 101.215 111.381 101.53 111.013 102.16C110.645 102.786 110.459 103.706 110.456 104.919C110.452 105.731 110.534 106.414 110.699 106.967C110.868 107.521 111.107 107.938 111.415 108.22C111.724 108.499 112.09 108.638 112.514 108.638ZM119.749 107.604L119.744 105.431H120.032L122.777 102.364H124.88L121.504 106.122H121.131L119.749 107.604ZM118.108 110V99.8182H119.908V110H118.108ZM122.901 110L120.415 106.525L121.628 105.257L125.054 110H122.901Z" fill="#A7A9AB"/>
<path d="M286.524 308.139C285.785 308.139 285.129 308.015 284.555 307.766C283.985 307.518 283.538 307.178 283.213 306.747C282.892 306.313 282.732 305.821 282.736 305.271C282.732 304.843 282.825 304.45 283.014 304.092C283.203 303.734 283.458 303.436 283.78 303.197C284.105 302.955 284.466 302.801 284.864 302.735V302.665C284.34 302.549 283.916 302.283 283.591 301.865C283.269 301.444 283.11 300.959 283.114 300.408C283.11 299.885 283.256 299.417 283.551 299.006C283.846 298.595 284.25 298.272 284.764 298.037C285.278 297.798 285.865 297.679 286.524 297.679C287.177 297.679 287.759 297.798 288.269 298.037C288.783 298.272 289.187 298.595 289.482 299.006C289.781 299.417 289.93 299.885 289.93 300.408C289.93 300.959 289.766 301.444 289.438 301.865C289.113 302.283 288.693 302.549 288.18 302.665V302.735C288.577 302.801 288.935 302.955 289.254 303.197C289.575 303.436 289.83 303.734 290.019 304.092C290.211 304.45 290.308 304.843 290.308 305.271C290.308 305.821 290.145 306.313 289.82 306.747C289.496 307.178 289.048 307.518 288.478 307.766C287.911 308.015 287.26 308.139 286.524 308.139ZM286.524 306.717C286.905 306.717 287.237 306.653 287.518 306.523C287.8 306.391 288.019 306.205 288.175 305.967C288.33 305.728 288.41 305.453 288.413 305.141C288.41 304.817 288.326 304.53 288.16 304.281C287.997 304.029 287.774 303.832 287.489 303.69C287.207 303.547 286.885 303.476 286.524 303.476C286.16 303.476 285.835 303.547 285.55 303.69C285.265 303.832 285.039 304.029 284.874 304.281C284.711 304.53 284.632 304.817 284.635 305.141C284.632 305.453 284.708 305.728 284.864 305.967C285.019 306.202 285.238 306.386 285.52 306.518C285.805 306.651 286.14 306.717 286.524 306.717ZM286.524 302.079C286.836 302.079 287.111 302.016 287.349 301.89C287.591 301.764 287.782 301.588 287.921 301.363C288.06 301.138 288.132 300.877 288.135 300.582C288.132 300.291 288.062 300.036 287.926 299.817C287.79 299.595 287.601 299.424 287.359 299.305C287.117 299.182 286.839 299.121 286.524 299.121C286.203 299.121 285.919 299.182 285.674 299.305C285.432 299.424 285.243 299.595 285.107 299.817C284.975 300.036 284.91 300.291 284.913 300.582C284.91 300.877 284.976 301.138 285.112 301.363C285.251 301.585 285.442 301.761 285.684 301.89C285.929 302.016 286.209 302.079 286.524 302.079ZM295.705 308.194C294.887 308.194 294.184 307.987 293.597 307.572C293.014 307.155 292.565 306.553 292.25 305.768C291.939 304.979 291.783 304.029 291.783 302.919C291.786 301.809 291.944 300.864 292.255 300.085C292.57 299.303 293.019 298.706 293.602 298.295C294.189 297.884 294.89 297.679 295.705 297.679C296.521 297.679 297.222 297.884 297.808 298.295C298.395 298.706 298.844 299.303 299.156 300.085C299.471 300.867 299.628 301.812 299.628 302.919C299.628 304.033 299.471 304.984 299.156 305.773C298.844 306.558 298.395 307.158 297.808 307.572C297.225 307.987 296.524 308.194 295.705 308.194ZM295.705 306.638C296.342 306.638 296.844 306.325 297.212 305.698C297.583 305.068 297.769 304.142 297.769 302.919C297.769 302.11 297.684 301.431 297.515 300.881C297.346 300.33 297.107 299.916 296.799 299.638C296.491 299.356 296.126 299.215 295.705 299.215C295.072 299.215 294.572 299.53 294.204 300.16C293.836 300.786 293.651 301.706 293.647 302.919C293.644 303.731 293.725 304.414 293.891 304.967C294.06 305.521 294.298 305.938 294.607 306.22C294.915 306.499 295.281 306.638 295.705 306.638ZM302.94 305.604L302.935 303.431H303.224L305.968 300.364H308.071L304.695 304.122H304.322L302.94 305.604ZM301.3 308V297.818H303.099V308H301.3ZM306.092 308L303.607 304.525L304.82 303.257L308.245 308H306.092Z" fill="#A7A9AB"/>
<path d="M193.44 339.679C193.927 339.682 194.401 339.768 194.862 339.938C195.326 340.103 195.743 340.375 196.114 340.753C196.486 341.127 196.781 341.629 196.999 342.259C197.218 342.889 197.327 343.668 197.327 344.596C197.331 345.471 197.238 346.253 197.049 346.942C196.863 347.629 196.597 348.209 196.249 348.683C195.901 349.156 195.481 349.518 194.991 349.766C194.5 350.015 193.948 350.139 193.335 350.139C192.692 350.139 192.122 350.013 191.625 349.761C191.131 349.509 190.732 349.165 190.427 348.727C190.122 348.29 189.935 347.789 189.865 347.226H191.68C191.772 347.63 191.961 347.952 192.246 348.19C192.535 348.426 192.898 348.543 193.335 348.543C194.041 348.543 194.585 348.237 194.966 347.624C195.347 347.01 195.538 346.159 195.538 345.068H195.468C195.306 345.36 195.095 345.612 194.837 345.824C194.578 346.033 194.285 346.193 193.957 346.306C193.632 346.419 193.287 346.475 192.923 346.475C192.326 346.475 191.789 346.333 191.312 346.048C190.838 345.763 190.462 345.371 190.183 344.874C189.908 344.377 189.769 343.809 189.766 343.169C189.766 342.506 189.918 341.911 190.223 341.384C190.531 340.854 190.96 340.436 191.511 340.131C192.061 339.823 192.704 339.672 193.44 339.679ZM193.445 341.17C193.087 341.17 192.763 341.258 192.475 341.434C192.19 341.606 191.965 341.842 191.799 342.14C191.637 342.435 191.555 342.765 191.555 343.129C191.559 343.491 191.64 343.819 191.799 344.114C191.961 344.409 192.182 344.642 192.46 344.815C192.742 344.987 193.063 345.073 193.425 345.073C193.693 345.073 193.943 345.022 194.175 344.919C194.407 344.816 194.61 344.674 194.782 344.491C194.958 344.306 195.094 344.095 195.19 343.86C195.289 343.625 195.337 343.376 195.334 343.114C195.334 342.766 195.251 342.445 195.085 342.15C194.923 341.855 194.699 341.618 194.414 341.439C194.132 341.26 193.809 341.17 193.445 341.17ZM202.746 350.194C201.928 350.194 201.225 349.987 200.638 349.572C200.055 349.155 199.606 348.553 199.291 347.768C198.98 346.979 198.824 346.029 198.824 344.919C198.827 343.809 198.985 342.864 199.296 342.085C199.611 341.303 200.06 340.706 200.643 340.295C201.23 339.884 201.931 339.679 202.746 339.679C203.562 339.679 204.263 339.884 204.849 340.295C205.436 340.706 205.885 341.303 206.197 342.085C206.512 342.867 206.669 343.812 206.669 344.919C206.669 346.033 206.512 346.984 206.197 347.773C205.885 348.558 205.436 349.158 204.849 349.572C204.266 349.987 203.565 350.194 202.746 350.194ZM202.746 348.638C203.383 348.638 203.885 348.325 204.253 347.698C204.624 347.068 204.81 346.142 204.81 344.919C204.81 344.11 204.725 343.431 204.556 342.881C204.387 342.33 204.148 341.916 203.84 341.638C203.532 341.356 203.167 341.215 202.746 341.215C202.113 341.215 201.613 341.53 201.245 342.16C200.877 342.786 200.692 343.706 200.688 344.919C200.685 345.731 200.766 346.414 200.932 346.967C201.101 347.521 201.339 347.938 201.648 348.22C201.956 348.499 202.322 348.638 202.746 348.638ZM209.981 347.604L209.976 345.431H210.265L213.009 342.364H215.112L211.736 346.122H211.363L209.981 347.604ZM208.341 350V339.818H210.14V350H208.341ZM213.133 350L210.648 346.525L211.861 345.257L215.286 350H213.133Z" fill="#A7A9AB"/>
<path d="M96.0462 298.818V309H94.2017V300.613H94.142L91.7607 302.134V300.444L94.2912 298.818H96.0462ZM102.395 309.194C101.576 309.194 100.874 308.987 100.287 308.572C99.7036 308.155 99.2545 307.553 98.9396 306.768C98.6281 305.979 98.4723 305.029 98.4723 303.919C98.4756 302.809 98.633 301.864 98.9446 301.085C99.2595 300.303 99.7086 299.706 100.292 299.295C100.879 298.884 101.58 298.679 102.395 298.679C103.21 298.679 103.911 298.884 104.498 299.295C105.085 299.706 105.534 300.303 105.845 301.085C106.16 301.867 106.317 302.812 106.317 303.919C106.317 305.033 106.16 305.984 105.845 306.773C105.534 307.558 105.085 308.158 104.498 308.572C103.915 308.987 103.214 309.194 102.395 309.194ZM102.395 307.638C103.031 307.638 103.533 307.325 103.901 306.698C104.272 306.068 104.458 305.142 104.458 303.919C104.458 303.11 104.374 302.431 104.205 301.881C104.036 301.33 103.797 300.916 103.489 300.638C103.18 300.356 102.816 300.215 102.395 300.215C101.762 300.215 101.261 300.53 100.893 301.16C100.526 301.786 100.34 302.706 100.337 303.919C100.333 304.731 100.415 305.414 100.58 305.967C100.749 306.521 100.988 306.938 101.296 307.22C101.604 307.499 101.971 307.638 102.395 307.638ZM111.733 309.194C110.914 309.194 110.211 308.987 109.625 308.572C109.041 308.155 108.592 307.553 108.278 306.768C107.966 305.979 107.81 305.029 107.81 303.919C107.814 302.809 107.971 301.864 108.282 301.085C108.597 300.303 109.046 299.706 109.63 299.295C110.216 298.884 110.917 298.679 111.733 298.679C112.548 298.679 113.249 298.884 113.836 299.295C114.422 299.706 114.872 300.303 115.183 301.085C115.498 301.867 115.655 302.812 115.655 303.919C115.655 305.033 115.498 305.984 115.183 306.773C114.872 307.558 114.422 308.158 113.836 308.572C113.252 308.987 112.551 309.194 111.733 309.194ZM111.733 307.638C112.369 307.638 112.871 307.325 113.239 306.698C113.61 306.068 113.796 305.142 113.796 303.919C113.796 303.11 113.711 302.431 113.542 301.881C113.373 301.33 113.135 300.916 112.827 300.638C112.518 300.356 112.154 300.215 111.733 300.215C111.1 300.215 110.599 300.53 110.231 301.16C109.863 301.786 109.678 302.706 109.675 303.919C109.671 304.731 109.752 305.414 109.918 305.967C110.087 306.521 110.326 306.938 110.634 307.22C110.942 307.499 111.309 307.638 111.733 307.638ZM118.968 306.604L118.963 304.431H119.251L121.995 301.364H124.098L120.723 305.122H120.35L118.968 306.604ZM117.327 309V298.818H119.127V309H117.327ZM122.12 309L119.634 305.525L120.847 304.257L124.272 309H122.12Z" fill="#A7A9AB"/>
<path d="M55.0462 194.818V205H53.2017V196.613H53.142L50.7607 198.134V196.444L53.2912 194.818H55.0462ZM57.6314 205V203.668L61.1662 200.202C61.5043 199.861 61.786 199.558 62.0114 199.293C62.2367 199.027 62.4058 198.771 62.5185 198.522C62.6312 198.273 62.6875 198.008 62.6875 197.727C62.6875 197.405 62.6146 197.13 62.4688 196.901C62.3229 196.669 62.1224 196.49 61.8672 196.364C61.612 196.238 61.322 196.175 60.9972 196.175C60.6624 196.175 60.3691 196.245 60.1172 196.384C59.8653 196.52 59.6697 196.714 59.5305 196.966C59.3946 197.218 59.3267 197.518 59.3267 197.866H57.5717C57.5717 197.219 57.7192 196.658 58.0142 196.18C58.3092 195.703 58.7152 195.334 59.2322 195.072C59.7526 194.81 60.3492 194.679 61.022 194.679C61.7048 194.679 62.3047 194.807 62.8217 195.062C63.3388 195.317 63.7398 195.667 64.0249 196.111C64.3132 196.555 64.4574 197.062 64.4574 197.632C64.4574 198.013 64.3845 198.388 64.2386 198.756C64.0928 199.124 63.8359 199.531 63.468 199.979C63.1035 200.426 62.5914 200.968 61.9318 201.604L60.1768 203.389V203.459H64.6115V205H57.6314ZM70.0902 205.194C69.2715 205.194 68.5689 204.987 67.9822 204.572C67.3989 204.155 66.9498 203.553 66.6349 202.768C66.3234 201.979 66.1676 201.029 66.1676 199.919C66.1709 198.809 66.3284 197.864 66.6399 197.085C66.9548 196.303 67.4039 195.706 67.9872 195.295C68.5739 194.884 69.2749 194.679 70.0902 194.679C70.9055 194.679 71.6065 194.884 72.1932 195.295C72.7798 195.706 73.2289 196.303 73.5405 197.085C73.8554 197.867 74.0128 198.812 74.0128 199.919C74.0128 201.033 73.8554 201.984 73.5405 202.773C73.2289 203.558 72.7798 204.158 72.1932 204.572C71.6098 204.987 70.9089 205.194 70.0902 205.194ZM70.0902 203.638C70.7266 203.638 71.2287 203.325 71.5966 202.698C71.9678 202.068 72.1534 201.142 72.1534 199.919C72.1534 199.11 72.0689 198.431 71.8999 197.881C71.7308 197.33 71.4922 196.916 71.1839 196.638C70.8757 196.356 70.5111 196.215 70.0902 196.215C69.4571 196.215 68.9567 196.53 68.5888 197.16C68.2209 197.786 68.0353 198.706 68.032 199.919C68.0286 200.731 68.1098 201.414 68.2756 201.967C68.4446 202.521 68.6832 202.938 68.9915 203.22C69.2997 203.499 69.666 203.638 70.0902 203.638ZM77.3251 202.604L77.3201 200.431H77.6085L80.3528 197.364H82.4558L79.0801 201.122H78.7072L77.3251 202.604ZM75.6845 205V194.818H77.4842V205H75.6845ZM80.4771 205L77.9913 201.525L79.2044 200.257L82.6298 205H80.4771Z" fill="#A7A9AB"/>
<path d="M190.046 55.8182V66H188.202V57.6129H188.142L185.761 59.1342V57.4439L188.291 55.8182H190.046ZM192.447 64.1108V62.6442L196.768 55.8182H197.991V57.9062H197.245L194.337 62.5149V62.5945H200.367V64.1108H192.447ZM197.305 66V63.6634L197.325 63.0071V55.8182H199.065V66H197.305ZM205.719 66.1939C204.9 66.1939 204.198 65.9867 203.611 65.5724C203.028 65.1548 202.579 64.5533 202.264 63.7678C201.952 62.9789 201.797 62.0294 201.797 60.919C201.8 59.8087 201.957 58.8641 202.269 58.0852C202.584 57.303 203.033 56.7064 203.616 56.2955C204.203 55.8845 204.904 55.679 205.719 55.679C206.534 55.679 207.235 55.8845 207.822 56.2955C208.409 56.7064 208.858 57.303 209.169 58.0852C209.484 58.8674 209.642 59.812 209.642 60.919C209.642 62.0327 209.484 62.9839 209.169 63.7727C208.858 64.5582 208.409 65.1581 207.822 65.5724C207.239 65.9867 206.538 66.1939 205.719 66.1939ZM205.719 64.6378C206.355 64.6378 206.858 64.3246 207.225 63.6982C207.597 63.0684 207.782 62.142 207.782 60.919C207.782 60.1103 207.698 59.4309 207.529 58.8807C207.36 58.3305 207.121 57.9162 206.813 57.6378C206.505 57.3561 206.14 57.2152 205.719 57.2152C205.086 57.2152 204.586 57.5301 204.218 58.1598C203.85 58.7862 203.664 59.706 203.661 60.919C203.658 61.7311 203.739 62.4138 203.904 62.9673C204.074 63.5208 204.312 63.9384 204.62 64.2202C204.929 64.4986 205.295 64.6378 205.719 64.6378ZM212.954 63.6037L212.949 61.4311H213.237L215.982 58.3636H218.085L214.709 62.1222H214.336L212.954 63.6037ZM211.313 66V55.8182H213.113V66H211.313ZM216.106 66L213.62 62.5249L214.833 61.2571L218.259 66H216.106Z" fill="#A7A9AB"/>
<path d="M281.046 97.8182V108H279.202V99.6129H279.142L276.761 101.134V99.4439L279.291 97.8182H281.046ZM287.171 108.139C286.508 108.139 285.915 108.015 285.391 107.766C284.868 107.514 284.452 107.17 284.143 106.732C283.839 106.295 283.676 105.794 283.656 105.231H285.446C285.479 105.648 285.66 105.99 285.988 106.255C286.316 106.517 286.71 106.648 287.171 106.648C287.532 106.648 287.854 106.565 288.136 106.399C288.417 106.233 288.639 106.003 288.802 105.708C288.964 105.413 289.044 105.077 289.04 104.699C289.044 104.314 288.963 103.973 288.797 103.675C288.631 103.376 288.404 103.143 288.116 102.974C287.827 102.801 287.496 102.715 287.121 102.715C286.817 102.712 286.517 102.768 286.222 102.884C285.927 103 285.693 103.153 285.521 103.342L283.855 103.068L284.387 97.8182H290.293V99.3594H285.913L285.62 102.059H285.68C285.869 101.837 286.135 101.653 286.48 101.507C286.825 101.358 287.203 101.283 287.614 101.283C288.23 101.283 288.78 101.429 289.264 101.721C289.748 102.009 290.129 102.407 290.408 102.914C290.686 103.421 290.825 104.001 290.825 104.654C290.825 105.327 290.67 105.927 290.358 106.454C290.05 106.978 289.621 107.39 289.07 107.692C288.523 107.99 287.89 108.139 287.171 108.139ZM296.254 108.194C295.436 108.194 294.733 107.987 294.146 107.572C293.563 107.155 293.114 106.553 292.799 105.768C292.487 104.979 292.332 104.029 292.332 102.919C292.335 101.809 292.492 100.864 292.804 100.085C293.119 99.303 293.568 98.7064 294.151 98.2955C294.738 97.8845 295.439 97.679 296.254 97.679C297.07 97.679 297.771 97.8845 298.357 98.2955C298.944 98.7064 299.393 99.303 299.705 100.085C300.019 100.867 300.177 101.812 300.177 102.919C300.177 104.033 300.019 104.984 299.705 105.773C299.393 106.558 298.944 107.158 298.357 107.572C297.774 107.987 297.073 108.194 296.254 108.194ZM296.254 106.638C296.891 106.638 297.393 106.325 297.761 105.698C298.132 105.068 298.317 104.142 298.317 102.919C298.317 102.11 298.233 101.431 298.064 100.881C297.895 100.33 297.656 99.9162 297.348 99.6378C297.04 99.3561 296.675 99.2152 296.254 99.2152C295.621 99.2152 295.121 99.5301 294.753 100.16C294.385 100.786 294.199 101.706 294.196 102.919C294.193 103.731 294.274 104.414 294.44 104.967C294.609 105.521 294.847 105.938 295.156 106.22C295.464 106.499 295.83 106.638 296.254 106.638ZM303.489 105.604L303.484 103.431H303.773L306.517 100.364H308.62L305.244 104.122H304.871L303.489 105.604ZM301.849 108V97.8182H303.648V108H301.849ZM306.641 108L304.155 104.525L305.368 103.257L308.794 108H306.641Z" fill="#A7A9AB"/>
<circle cx="337" cy="298" r="18" transform="rotate(-90 337 298)" fill="#F7F8F9"/>
<circle cx="355" cy="262" r="18" transform="rotate(-90 355 262)" fill="#F7F8F9"/>
<ellipse cx="368" cy="224.5" rx="24.5" ry="23" transform="rotate(-90 368 224.5)" fill="#F7F8F9"/>
<ellipse cx="373.5" cy="199" rx="18" ry="21.5" transform="rotate(-90 373.5 199)" fill="#F7F8F9"/>
<circle cx="363" cy="166" r="18" transform="rotate(-90 363 166)" fill="#F7F8F9"/>
<circle cx="355" cy="136" r="18" transform="rotate(-90 355 136)" fill="#F7F8F9"/>
<circle cx="342" cy="109" r="18" transform="rotate(-90 342 109)" fill="#F7F8F9"/>
<g filter="url(#filter0_d_546_51863)">
<path fill-rule="evenodd" clip-rule="evenodd" d="M278.72 96.7813C278.779 96.6871 278.656 96.5939 278.581 96.6758L271.158 104.804L250 132.738L251.75 134.063L272.907 106.129L278.72 96.7813ZM271.268 105.749L271.968 106.279L251.64 133.118L250.94 132.588L271.268 105.749Z" fill="#EF9B1B"/>
</g>
<g filter="url(#filter1_d_546_51863)">
<path fill-rule="evenodd" clip-rule="evenodd" d="M126.862 303.229C126.805 303.324 126.929 303.416 127.003 303.333L134.332 295.12L155.165 266.943L153.4 265.638L132.567 293.815L126.862 303.229ZM134.211 294.176L133.505 293.654L153.521 266.582L154.227 267.104L134.211 294.176Z" fill="#EF9B1B"/>
</g>
<path d="M145.33 166.455V181H142.695V169.018H142.61L139.208 171.192V168.777L142.823 166.455H145.33ZM148.76 178.301V176.206L154.932 166.455H156.679V169.438H155.614L151.459 176.021V176.135H160.074V178.301H148.76ZM155.699 181V177.662L155.728 176.724V166.455H158.213V181H155.699ZM167.393 166.256C168.089 166.26 168.766 166.384 169.424 166.625C170.087 166.862 170.684 167.25 171.214 167.79C171.744 168.325 172.166 169.042 172.478 169.942C172.791 170.841 172.947 171.954 172.947 173.28C172.952 174.53 172.819 175.647 172.549 176.632C172.284 177.612 171.903 178.441 171.406 179.118C170.909 179.795 170.31 180.311 169.609 180.666C168.908 181.021 168.12 181.199 167.244 181.199C166.325 181.199 165.511 181.019 164.801 180.659C164.095 180.299 163.525 179.807 163.089 179.182C162.654 178.557 162.386 177.842 162.287 177.037H164.879C165.011 177.615 165.281 178.074 165.689 178.415C166.1 178.751 166.619 178.919 167.244 178.919C168.252 178.919 169.029 178.481 169.574 177.605C170.118 176.729 170.39 175.512 170.39 173.955H170.291C170.059 174.371 169.758 174.731 169.389 175.034C169.02 175.332 168.6 175.562 168.132 175.723C167.668 175.884 167.175 175.964 166.654 175.964C165.802 175.964 165.035 175.761 164.353 175.354C163.676 174.946 163.139 174.388 162.741 173.678C162.348 172.967 162.149 172.155 162.145 171.241C162.145 170.295 162.362 169.445 162.798 168.692C163.238 167.934 163.851 167.338 164.637 166.902C165.423 166.462 166.342 166.246 167.393 166.256ZM167.4 168.386C166.889 168.386 166.427 168.512 166.015 168.763C165.608 169.009 165.286 169.345 165.049 169.771C164.817 170.193 164.701 170.664 164.701 171.185C164.706 171.701 164.822 172.17 165.049 172.591C165.281 173.012 165.596 173.346 165.994 173.592C166.396 173.839 166.856 173.962 167.372 173.962C167.755 173.962 168.113 173.888 168.444 173.741C168.776 173.595 169.065 173.391 169.311 173.131C169.562 172.866 169.756 172.565 169.893 172.229C170.035 171.893 170.104 171.537 170.099 171.163C170.099 170.666 169.981 170.207 169.744 169.786C169.512 169.364 169.192 169.026 168.785 168.77C168.383 168.514 167.921 168.386 167.4 168.386ZM177.793 179.011L177.7 179.793C177.634 180.389 177.516 180.995 177.345 181.611C177.179 182.231 177.004 182.802 176.82 183.322C176.635 183.843 176.486 184.253 176.372 184.551H174.639C174.705 184.262 174.795 183.869 174.909 183.372C175.027 182.875 175.141 182.316 175.25 181.696C175.359 181.076 175.432 180.446 175.47 179.807L175.52 179.011H177.793ZM185.454 181.277C184.285 181.277 183.281 180.981 182.443 180.389C181.609 179.793 180.968 178.933 180.518 177.811C180.073 176.684 179.85 175.328 179.85 173.741C179.855 172.155 180.08 170.806 180.525 169.693C180.975 168.576 181.617 167.723 182.45 167.136C183.288 166.549 184.289 166.256 185.454 166.256C186.619 166.256 187.62 166.549 188.458 167.136C189.297 167.723 189.938 168.576 190.383 169.693C190.833 170.811 191.058 172.16 191.058 173.741C191.058 175.332 190.833 176.691 190.383 177.818C189.938 178.94 189.297 179.797 188.458 180.389C187.625 180.981 186.624 181.277 185.454 181.277ZM185.454 179.054C186.363 179.054 187.081 178.607 187.606 177.712C188.136 176.812 188.402 175.489 188.402 173.741C188.402 172.586 188.281 171.616 188.039 170.83C187.798 170.044 187.457 169.452 187.017 169.054C186.576 168.652 186.056 168.45 185.454 168.45C184.55 168.45 183.835 168.9 183.309 169.8C182.784 170.695 182.519 172.009 182.514 173.741C182.509 174.902 182.625 175.877 182.862 176.668C183.103 177.458 183.444 178.055 183.885 178.457C184.325 178.855 184.848 179.054 185.454 179.054ZM198.794 181.277C197.625 181.277 196.621 180.981 195.783 180.389C194.949 179.793 194.308 178.933 193.858 177.811C193.413 176.684 193.19 175.328 193.19 173.741C193.195 172.155 193.42 170.806 193.865 169.693C194.315 168.576 194.956 167.723 195.79 167.136C196.628 166.549 197.629 166.256 198.794 166.256C199.959 166.256 200.96 166.549 201.798 167.136C202.636 167.723 203.278 168.576 203.723 169.693C204.173 170.811 204.398 172.16 204.398 173.741C204.398 175.332 204.173 176.691 203.723 177.818C203.278 178.94 202.636 179.797 201.798 180.389C200.965 180.981 199.964 181.277 198.794 181.277ZM198.794 179.054C199.703 179.054 200.42 178.607 200.946 177.712C201.476 176.812 201.741 175.489 201.741 173.741C201.741 172.586 201.621 171.616 201.379 170.83C201.138 170.044 200.797 169.452 200.357 169.054C199.916 168.652 199.395 168.45 198.794 168.45C197.89 168.45 197.175 168.9 196.649 169.8C196.124 170.695 195.858 172.009 195.854 173.741C195.849 174.902 195.965 175.877 196.202 176.668C196.443 177.458 196.784 178.055 197.224 178.457C197.665 178.855 198.188 179.054 198.794 179.054ZM212.134 181.277C210.964 181.277 209.961 180.981 209.123 180.389C208.289 179.793 207.648 178.933 207.198 177.811C206.753 176.684 206.53 175.328 206.53 173.741C206.535 172.155 206.76 170.806 207.205 169.693C207.655 168.576 208.296 167.723 209.13 167.136C209.968 166.549 210.969 166.256 212.134 166.256C213.299 166.256 214.3 166.549 215.138 167.136C215.976 167.723 216.618 168.576 217.063 169.693C217.513 170.811 217.738 172.16 217.738 173.741C217.738 175.332 217.513 176.691 217.063 177.818C216.618 178.94 215.976 179.797 215.138 180.389C214.305 180.981 213.303 181.277 212.134 181.277ZM212.134 179.054C213.043 179.054 213.76 178.607 214.286 177.712C214.816 176.812 215.081 175.489 215.081 173.741C215.081 172.586 214.961 171.616 214.719 170.83C214.478 170.044 214.137 169.452 213.696 169.054C213.256 168.652 212.735 168.45 212.134 168.45C211.23 168.45 210.515 168.9 209.989 169.8C209.463 170.695 209.198 172.009 209.194 173.741C209.189 174.902 209.305 175.877 209.542 176.668C209.783 177.458 210.124 178.055 210.564 178.457C211.005 178.855 211.528 179.054 212.134 179.054ZM227.068 181H224.256L229.376 166.455H232.629L237.757 181L234.945 181L231.06 169.438H230.946L227.068 181ZM227.161 175.297H234.831V177.413H227.161V175.297ZM239.673 181V166.455H249.133V168.663H242.308V172.612H248.643V174.821H242.308V178.791H249.19V181H239.673ZM256.75 181H251.821V166.455H256.85C258.294 166.455 259.534 166.746 260.571 167.328C261.613 167.906 262.413 168.737 262.972 169.821C263.531 170.905 263.81 172.203 263.81 173.713C263.81 175.228 263.528 176.53 262.965 177.619C262.406 178.708 261.599 179.544 260.543 180.126C259.492 180.709 258.228 181 256.75 181ZM254.456 178.72H256.623C257.636 178.72 258.481 178.536 259.158 178.166C259.835 177.792 260.344 177.236 260.685 176.497C261.026 175.754 261.196 174.826 261.196 173.713C261.196 172.6 261.026 171.677 260.685 170.943C260.344 170.205 259.84 169.653 259.172 169.288C258.509 168.919 257.685 168.734 256.701 168.734H254.456V178.72Z" fill="#1C1C1C"/>
<defs>
<filter id="filter0_d_546_51863" x="244.863" y="94.0756" width="39.0103" height="47.6936" filterUnits="userSpaceOnUse" color-interpolation-filters="sRGB">
<feFlood flood-opacity="0" result="BackgroundImageFix"/>
<feColorMatrix in="SourceAlpha" type="matrix" values="0 0 0 0 0 0 0 0 0 0 0 0 0 0 0 0 0 0 127 0" result="hardAlpha"/>
<feOffset dy="2.56874"/>
<feGaussianBlur stdDeviation="2.56874"/>
<feComposite in2="hardAlpha" operator="out"/>
<feColorMatrix type="matrix" values="0 0 0 0 0.937255 0 0 0 0 0.607843 0 0 0 0 0.105882 0 0 0 0.8 0"/>
<feBlend mode="normal" in2="BackgroundImageFix" result="effect1_dropShadow_546_51863"/>
<feBlend mode="normal" in="SourceGraphic" in2="effect1_dropShadow_546_51863" result="shape"/>
</filter>
<filter id="filter1_d_546_51863" x="121.71" y="263.069" width="38.5923" height="48.002" filterUnits="userSpaceOnUse" color-interpolation-filters="sRGB">
<feFlood flood-opacity="0" result="BackgroundImageFix"/>
<feColorMatrix in="SourceAlpha" type="matrix" values="0 0 0 0 0 0 0 0 0 0 0 0 0 0 0 0 0 0 127 0" result="hardAlpha"/>
<feOffset dy="2.56874"/>
<feGaussianBlur stdDeviation="2.56874"/>
<feComposite in2="hardAlpha" operator="out"/>
<feColorMatrix type="matrix" values="0 0 0 0 0.937255 0 0 0 0 0.607843 0 0 0 0 0.105882 0 0 0 0.8 0"/>
<feBlend mode="normal" in2="BackgroundImageFix" result="effect1_dropShadow_546_51863"/>
<feBlend mode="normal" in="SourceGraphic" in2="effect1_dropShadow_546_51863" result="shape"/>
</filter>
</defs>
</svg>
