<svg width="471" height="335" viewBox="0 0 471 335" fill="none" xmlns="http://www.w3.org/2000/svg">
<rect y="69" width="471" height="266" rx="16" fill="#FFE8C6"/>
<path d="M23.017 262H20.3807L24.3977 250.364H27.5682L31.5795 262H28.9432L26.0284 253.023H25.9375L23.017 262ZM22.8523 257.426H29.0795V259.347H22.8523V257.426ZM35.7443 262.142C35.0814 262.142 34.4811 261.972 33.9432 261.631C33.4091 261.286 32.9848 260.78 32.6705 260.114C32.3598 259.443 32.2045 258.621 32.2045 257.648C32.2045 256.648 32.3655 255.816 32.6875 255.153C33.0095 254.487 33.4375 253.989 33.9716 253.659C34.5095 253.326 35.0985 253.159 35.7386 253.159C36.2273 253.159 36.6345 253.242 36.9602 253.409C37.2898 253.572 37.5549 253.777 37.7557 254.023C37.9602 254.265 38.1155 254.504 38.2216 254.739H38.2955V250.364H40.7102V262H38.3239V260.602H38.2216C38.108 260.845 37.947 261.085 37.7386 261.324C37.5341 261.559 37.267 261.754 36.9375 261.909C36.6117 262.064 36.214 262.142 35.7443 262.142ZM36.5114 260.216C36.9015 260.216 37.2311 260.11 37.5 259.898C37.7727 259.682 37.9811 259.381 38.125 258.994C38.2727 258.608 38.3466 258.155 38.3466 257.636C38.3466 257.117 38.2746 256.667 38.1307 256.284C37.9867 255.902 37.7784 255.606 37.5057 255.398C37.233 255.189 36.9015 255.085 36.5114 255.085C36.1136 255.085 35.7784 255.193 35.5057 255.409C35.233 255.625 35.0265 255.924 34.8864 256.307C34.7462 256.689 34.6761 257.133 34.6761 257.636C34.6761 258.144 34.7462 258.593 34.8864 258.983C35.0303 259.369 35.2367 259.672 35.5057 259.892C35.7784 260.108 36.1136 260.216 36.5114 260.216ZM45.1889 262.165C44.6321 262.165 44.1359 262.068 43.7003 261.875C43.2647 261.678 42.92 261.388 42.6662 261.006C42.4162 260.619 42.2912 260.138 42.2912 259.562C42.2912 259.078 42.3802 258.67 42.5582 258.341C42.7363 258.011 42.9787 257.746 43.2855 257.545C43.5923 257.345 43.9408 257.193 44.331 257.091C44.7249 256.989 45.1378 256.917 45.5696 256.875C46.0772 256.822 46.4863 256.773 46.7969 256.727C47.1075 256.678 47.3329 256.606 47.473 256.511C47.6132 256.417 47.6832 256.277 47.6832 256.091V256.057C47.6832 255.697 47.5696 255.419 47.3423 255.222C47.1188 255.025 46.8007 254.926 46.3878 254.926C45.9522 254.926 45.6056 255.023 45.348 255.216C45.0904 255.405 44.92 255.644 44.8366 255.932L42.598 255.75C42.7116 255.22 42.9351 254.761 43.2685 254.375C43.6018 253.985 44.0317 253.686 44.5582 253.477C45.0885 253.265 45.7022 253.159 46.3991 253.159C46.884 253.159 47.348 253.216 47.7912 253.33C48.2382 253.443 48.634 253.619 48.9787 253.858C49.3272 254.097 49.6018 254.403 49.8026 254.778C50.0033 255.15 50.1037 255.595 50.1037 256.114V262H47.8082V260.79H47.7401C47.5999 261.062 47.4124 261.303 47.1776 261.511C46.9427 261.716 46.6605 261.877 46.331 261.994C46.0014 262.108 45.6207 262.165 45.1889 262.165ZM45.8821 260.494C46.2382 260.494 46.5526 260.424 46.8253 260.284C47.098 260.14 47.312 259.947 47.4673 259.705C47.6226 259.462 47.7003 259.187 47.7003 258.881V257.955C47.6245 258.004 47.5204 258.049 47.3878 258.091C47.259 258.129 47.1132 258.165 46.9503 258.199C46.7874 258.229 46.6245 258.258 46.4616 258.284C46.2988 258.307 46.151 258.328 46.0185 258.347C45.7344 258.388 45.4863 258.455 45.2741 258.545C45.062 258.636 44.8973 258.759 44.7798 258.915C44.6624 259.066 44.6037 259.256 44.6037 259.483C44.6037 259.812 44.723 260.064 44.9616 260.239C45.2041 260.409 45.5109 260.494 45.8821 260.494ZM51.9815 262V253.273H54.2884V254.812H54.3906C54.5724 254.301 54.8755 253.898 55.2997 253.602C55.724 253.307 56.2315 253.159 56.8224 253.159C57.4209 253.159 57.9304 253.309 58.3509 253.608C58.7713 253.903 59.0516 254.305 59.1918 254.812H59.2827C59.4607 254.312 59.7827 253.913 60.2486 253.614C60.7183 253.311 61.2732 253.159 61.9134 253.159C62.7277 253.159 63.3887 253.419 63.8963 253.938C64.4077 254.453 64.6634 255.184 64.6634 256.131V262H62.2486V256.608C62.2486 256.123 62.1198 255.759 61.8622 255.517C61.6046 255.275 61.2827 255.153 60.8963 255.153C60.4569 255.153 60.1141 255.294 59.8679 255.574C59.6217 255.85 59.4986 256.216 59.4986 256.67V262H57.152V256.557C57.152 256.129 57.0289 255.788 56.7827 255.534C56.5402 255.28 56.2202 255.153 55.8224 255.153C55.5535 255.153 55.3111 255.222 55.0952 255.358C54.883 255.491 54.7145 255.678 54.5895 255.92C54.4645 256.159 54.402 256.439 54.402 256.761V262H51.9815ZM72.3295 262H69.6932L73.7102 250.364H76.8807L80.892 262H78.2557L75.3409 253.023H75.25L72.3295 262ZM72.1648 257.426H78.392V259.347H72.1648V257.426ZM89.3054 255.761L87.0895 255.898C87.0516 255.708 86.9702 255.538 86.8452 255.386C86.7202 255.231 86.5554 255.108 86.3509 255.017C86.1501 254.922 85.9096 254.875 85.6293 254.875C85.2543 254.875 84.938 254.955 84.6804 255.114C84.4228 255.269 84.294 255.477 84.294 255.739C84.294 255.947 84.3774 256.123 84.544 256.267C84.7107 256.411 84.9967 256.527 85.402 256.614L86.9815 256.932C87.83 257.106 88.4626 257.386 88.8793 257.773C89.2959 258.159 89.5043 258.667 89.5043 259.295C89.5043 259.867 89.3357 260.369 88.9986 260.801C88.6652 261.233 88.2069 261.57 87.6236 261.812C87.044 262.051 86.3755 262.17 85.6179 262.17C84.4626 262.17 83.5421 261.93 82.8565 261.449C82.1747 260.964 81.7751 260.305 81.6577 259.472L84.0384 259.347C84.1103 259.699 84.2846 259.968 84.5611 260.153C84.8376 260.335 85.1918 260.426 85.6236 260.426C86.0478 260.426 86.3887 260.345 86.6463 260.182C86.9077 260.015 87.0402 259.801 87.044 259.54C87.0402 259.32 86.9474 259.14 86.7656 259C86.5838 258.856 86.3035 258.746 85.9247 258.67L84.4134 258.369C83.5611 258.199 82.9266 257.903 82.5099 257.483C82.0971 257.062 81.8906 256.527 81.8906 255.875C81.8906 255.314 82.0421 254.831 82.3452 254.426C82.652 254.021 83.0819 253.708 83.6349 253.489C84.1918 253.269 84.8433 253.159 85.5895 253.159C86.6918 253.159 87.5592 253.392 88.1918 253.858C88.8281 254.324 89.1993 254.958 89.3054 255.761ZM98.2898 255.761L96.0739 255.898C96.036 255.708 95.9545 255.538 95.8295 255.386C95.7045 255.231 95.5398 255.108 95.3352 255.017C95.1345 254.922 94.8939 254.875 94.6136 254.875C94.2386 254.875 93.9223 254.955 93.6648 255.114C93.4072 255.269 93.2784 255.477 93.2784 255.739C93.2784 255.947 93.3617 256.123 93.5284 256.267C93.6951 256.411 93.9811 256.527 94.3864 256.614L95.9659 256.932C96.8144 257.106 97.447 257.386 97.8636 257.773C98.2803 258.159 98.4886 258.667 98.4886 259.295C98.4886 259.867 98.3201 260.369 97.983 260.801C97.6496 261.233 97.1913 261.57 96.608 261.812C96.0284 262.051 95.3598 262.17 94.6023 262.17C93.447 262.17 92.5265 261.93 91.8409 261.449C91.1591 260.964 90.7595 260.305 90.642 259.472L93.0227 259.347C93.0947 259.699 93.2689 259.968 93.5455 260.153C93.822 260.335 94.1761 260.426 94.608 260.426C95.0322 260.426 95.3731 260.345 95.6307 260.182C95.892 260.015 96.0246 259.801 96.0284 259.54C96.0246 259.32 95.9318 259.14 95.75 259C95.5682 258.856 95.2879 258.746 94.9091 258.67L93.3977 258.369C92.5455 258.199 91.911 257.903 91.4943 257.483C91.0814 257.062 90.875 256.527 90.875 255.875C90.875 255.314 91.0265 254.831 91.3295 254.426C91.6364 254.021 92.0663 253.708 92.6193 253.489C93.1761 253.269 93.8277 253.159 94.5739 253.159C95.6761 253.159 96.5436 253.392 97.1761 253.858C97.8125 254.324 98.1837 254.958 98.2898 255.761ZM102.501 262.165C101.945 262.165 101.448 262.068 101.013 261.875C100.577 261.678 100.232 261.388 99.9787 261.006C99.7287 260.619 99.6037 260.138 99.6037 259.562C99.6037 259.078 99.6927 258.67 99.8707 258.341C100.049 258.011 100.291 257.746 100.598 257.545C100.905 257.345 101.253 257.193 101.643 257.091C102.037 256.989 102.45 256.917 102.882 256.875C103.39 256.822 103.799 256.773 104.109 256.727C104.42 256.678 104.645 256.606 104.786 256.511C104.926 256.417 104.996 256.277 104.996 256.091V256.057C104.996 255.697 104.882 255.419 104.655 255.222C104.431 255.025 104.113 254.926 103.7 254.926C103.265 254.926 102.918 255.023 102.661 255.216C102.403 255.405 102.232 255.644 102.149 255.932L99.9105 255.75C100.024 255.22 100.248 254.761 100.581 254.375C100.914 253.985 101.344 253.686 101.871 253.477C102.401 253.265 103.015 253.159 103.712 253.159C104.196 253.159 104.661 253.216 105.104 253.33C105.551 253.443 105.946 253.619 106.291 253.858C106.64 254.097 106.914 254.403 107.115 254.778C107.316 255.15 107.416 255.595 107.416 256.114V262H105.121V260.79H105.053C104.912 261.062 104.725 261.303 104.49 261.511C104.255 261.716 103.973 261.877 103.643 261.994C103.314 262.108 102.933 262.165 102.501 262.165ZM103.195 260.494C103.551 260.494 103.865 260.424 104.138 260.284C104.411 260.14 104.625 259.947 104.78 259.705C104.935 259.462 105.013 259.187 105.013 258.881V257.955C104.937 258.004 104.833 258.049 104.7 258.091C104.571 258.129 104.426 258.165 104.263 258.199C104.1 258.229 103.937 258.258 103.774 258.284C103.611 258.307 103.464 258.328 103.331 258.347C103.047 258.388 102.799 258.455 102.587 258.545C102.375 258.636 102.21 258.759 102.092 258.915C101.975 259.066 101.916 259.256 101.916 259.483C101.916 259.812 102.036 260.064 102.274 260.239C102.517 260.409 102.823 260.494 103.195 260.494ZM112.51 262.142C111.847 262.142 111.247 261.972 110.709 261.631C110.175 261.286 109.75 260.78 109.436 260.114C109.125 259.443 108.97 258.621 108.97 257.648C108.97 256.648 109.131 255.816 109.453 255.153C109.775 254.487 110.203 253.989 110.737 253.659C111.275 253.326 111.864 253.159 112.504 253.159C112.993 253.159 113.4 253.242 113.726 253.409C114.055 253.572 114.321 253.777 114.521 254.023C114.726 254.265 114.881 254.504 114.987 254.739H115.061V250.364H117.476V262H115.089V260.602H114.987C114.874 260.845 114.713 261.085 114.504 261.324C114.3 261.559 114.033 261.754 113.703 261.909C113.377 262.064 112.98 262.142 112.51 262.142ZM113.277 260.216C113.667 260.216 113.997 260.11 114.266 259.898C114.538 259.682 114.747 259.381 114.891 258.994C115.038 258.608 115.112 258.155 115.112 257.636C115.112 257.117 115.04 256.667 114.896 256.284C114.752 255.902 114.544 255.606 114.271 255.398C113.999 255.189 113.667 255.085 113.277 255.085C112.879 255.085 112.544 255.193 112.271 255.409C111.999 255.625 111.792 255.924 111.652 256.307C111.512 256.689 111.442 257.133 111.442 257.636C111.442 258.144 111.512 258.593 111.652 258.983C111.796 259.369 112.002 259.672 112.271 259.892C112.544 260.108 112.879 260.216 113.277 260.216ZM31.2784 278.438H28.7898C28.7443 278.116 28.6515 277.83 28.5114 277.58C28.3712 277.326 28.1913 277.11 27.9716 276.932C27.7519 276.754 27.4981 276.617 27.2102 276.523C26.9261 276.428 26.6174 276.381 26.2841 276.381C25.6818 276.381 25.1572 276.53 24.7102 276.83C24.2633 277.125 23.9167 277.557 23.6705 278.125C23.4242 278.689 23.3011 279.375 23.3011 280.182C23.3011 281.011 23.4242 281.708 23.6705 282.273C23.9205 282.837 24.2689 283.263 24.7159 283.551C25.1629 283.839 25.6799 283.983 26.267 283.983C26.5966 283.983 26.9015 283.939 27.1818 283.852C27.4659 283.765 27.7178 283.638 27.9375 283.472C28.1572 283.301 28.339 283.095 28.483 282.852C28.6307 282.61 28.733 282.333 28.7898 282.023L31.2784 282.034C31.214 282.568 31.053 283.083 30.7955 283.58C30.5417 284.072 30.1989 284.513 29.767 284.903C29.339 285.29 28.8277 285.597 28.233 285.824C27.642 286.047 26.9735 286.159 26.2273 286.159C25.1894 286.159 24.2614 285.924 23.4432 285.455C22.6288 284.985 21.9848 284.305 21.5114 283.415C21.0417 282.525 20.8068 281.447 20.8068 280.182C20.8068 278.913 21.0455 277.833 21.5227 276.943C22 276.053 22.6477 275.375 23.4659 274.909C24.2841 274.439 25.2045 274.205 26.2273 274.205C26.9015 274.205 27.5265 274.299 28.1023 274.489C28.6818 274.678 29.1951 274.955 29.642 275.318C30.089 275.678 30.4527 276.119 30.733 276.642C31.017 277.165 31.1989 277.763 31.2784 278.438ZM38.0369 274.364V286H35.5767V276.699H35.5085L32.8438 278.369V276.188L35.7244 274.364H38.0369ZM45.0526 286.159C44.2495 286.159 43.5336 286.011 42.9048 285.716C42.2798 285.42 41.7836 285.013 41.4162 284.494C41.0488 283.975 40.8575 283.381 40.8423 282.71H43.2287C43.2552 283.161 43.4446 283.527 43.7969 283.807C44.1491 284.087 44.5677 284.227 45.0526 284.227C45.4389 284.227 45.7798 284.142 46.0753 283.972C46.3745 283.797 46.6075 283.557 46.7741 283.25C46.9446 282.939 47.0298 282.583 47.0298 282.182C47.0298 281.773 46.9427 281.413 46.7685 281.102C46.598 280.792 46.3613 280.549 46.0582 280.375C45.7552 280.201 45.4086 280.112 45.0185 280.108C44.6776 280.108 44.3461 280.178 44.0241 280.318C43.706 280.458 43.4579 280.65 43.2798 280.892L41.0923 280.5L41.6435 274.364H48.7571V276.375H43.6719L43.3707 279.29H43.4389C43.6435 279.002 43.9522 278.763 44.3651 278.574C44.7779 278.384 45.2401 278.29 45.7514 278.29C46.4522 278.29 47.0772 278.455 47.6264 278.784C48.1757 279.114 48.6094 279.566 48.9276 280.142C49.2457 280.714 49.4029 281.373 49.3991 282.119C49.4029 282.903 49.2211 283.6 48.8537 284.21C48.4901 284.816 47.9806 285.294 47.3253 285.642C46.6738 285.987 45.9162 286.159 45.0526 286.159ZM54.8864 286V274.364H59.5455C60.4015 274.364 61.1155 274.491 61.6875 274.744C62.2595 274.998 62.6894 275.35 62.9773 275.801C63.2652 276.248 63.4091 276.763 63.4091 277.347C63.4091 277.801 63.3182 278.201 63.1364 278.545C62.9545 278.886 62.7045 279.167 62.3864 279.386C62.072 279.602 61.7121 279.756 61.3068 279.847V279.96C61.75 279.979 62.1648 280.104 62.5511 280.335C62.9413 280.566 63.2576 280.89 63.5 281.307C63.7424 281.72 63.8636 282.212 63.8636 282.784C63.8636 283.402 63.7102 283.953 63.4034 284.438C63.1004 284.919 62.6515 285.299 62.0568 285.58C61.4621 285.86 60.7292 286 59.858 286H54.8864ZM57.3466 283.989H59.3523C60.0379 283.989 60.5379 283.858 60.8523 283.597C61.1667 283.331 61.3239 282.979 61.3239 282.54C61.3239 282.218 61.2462 281.934 61.0909 281.688C60.9356 281.441 60.714 281.248 60.4261 281.108C60.142 280.968 59.803 280.898 59.4091 280.898H57.3466V283.989ZM57.3466 279.233H59.1705C59.5076 279.233 59.8068 279.174 60.0682 279.057C60.3333 278.936 60.5417 278.765 60.6932 278.545C60.8485 278.326 60.9261 278.062 60.9261 277.756C60.9261 277.335 60.7765 276.996 60.4773 276.739C60.1818 276.481 59.7614 276.352 59.2159 276.352H57.3466V279.233ZM65.2202 283.955V282.017L70.0781 274.364H71.7486V277.045H70.7599L67.6974 281.892V281.983H74.6009V283.955H65.2202ZM70.8054 286V283.364L70.8509 282.506V274.364H73.1577V286H70.8054ZM86.3239 277.71C86.2784 277.252 86.0833 276.896 85.7386 276.642C85.3939 276.388 84.9261 276.261 84.3352 276.261C83.9337 276.261 83.5947 276.318 83.3182 276.432C83.0417 276.542 82.8295 276.695 82.6818 276.892C82.5379 277.089 82.4659 277.312 82.4659 277.562C82.4583 277.771 82.5019 277.953 82.5966 278.108C82.6951 278.263 82.8295 278.398 83 278.511C83.1705 278.621 83.3674 278.718 83.5909 278.801C83.8144 278.881 84.053 278.949 84.3068 279.006L85.3523 279.256C85.8598 279.369 86.3258 279.521 86.75 279.71C87.1742 279.9 87.5417 280.133 87.8523 280.409C88.1629 280.686 88.4034 281.011 88.5739 281.386C88.7481 281.761 88.8371 282.191 88.8409 282.676C88.8371 283.388 88.6553 284.006 88.2955 284.528C87.9394 285.047 87.4242 285.451 86.75 285.739C86.0795 286.023 85.2708 286.165 84.3239 286.165C83.3845 286.165 82.5663 286.021 81.8693 285.733C81.1761 285.445 80.6345 285.019 80.2443 284.455C79.858 283.886 79.6553 283.184 79.6364 282.347H82.017C82.0436 282.737 82.1553 283.062 82.3523 283.324C82.553 283.581 82.8201 283.777 83.1534 283.909C83.4905 284.038 83.8712 284.102 84.2955 284.102C84.7121 284.102 85.0739 284.042 85.3807 283.92C85.6913 283.799 85.9318 283.631 86.1023 283.415C86.2727 283.199 86.358 282.951 86.358 282.67C86.358 282.409 86.2803 282.189 86.125 282.011C85.9735 281.833 85.75 281.682 85.4545 281.557C85.1629 281.432 84.8049 281.318 84.3807 281.216L83.1136 280.898C82.1326 280.659 81.358 280.286 80.7898 279.778C80.2216 279.271 79.9394 278.587 79.9432 277.727C79.9394 277.023 80.1269 276.407 80.5057 275.881C80.8883 275.354 81.4129 274.943 82.0795 274.648C82.7462 274.352 83.5038 274.205 84.3523 274.205C85.2159 274.205 85.9697 274.352 86.6136 274.648C87.2614 274.943 87.7652 275.354 88.125 275.881C88.4848 276.407 88.6705 277.017 88.6818 277.71H86.3239ZM95.0923 277.273V279.091H89.8366V277.273H95.0923ZM91.0298 275.182H93.4503V283.318C93.4503 283.542 93.4844 283.716 93.5526 283.841C93.6207 283.962 93.7154 284.047 93.8366 284.097C93.9616 284.146 94.1056 284.17 94.2685 284.17C94.3821 284.17 94.4957 284.161 94.6094 284.142C94.723 284.119 94.8101 284.102 94.8707 284.091L95.2514 285.892C95.1302 285.93 94.9598 285.973 94.7401 286.023C94.5204 286.076 94.2533 286.108 93.9389 286.119C93.3556 286.142 92.8442 286.064 92.4048 285.886C91.9692 285.708 91.6302 285.432 91.3878 285.057C91.1454 284.682 91.026 284.208 91.0298 283.636V275.182ZM96.669 286V277.273H99.0156V278.795H99.1065C99.2656 278.254 99.5327 277.845 99.9077 277.568C100.283 277.288 100.714 277.148 101.203 277.148C101.438 277.148 101.656 277.176 101.857 277.233C102.057 277.29 102.237 277.367 102.396 277.466L101.669 279.466C101.555 279.409 101.43 279.362 101.294 279.324C101.161 279.282 101.012 279.261 100.845 279.261C100.519 279.261 100.224 279.339 99.9588 279.494C99.6937 279.646 99.4834 279.856 99.3281 280.125C99.1728 280.394 99.0933 280.706 99.0895 281.062V286H96.669ZM106.99 286.17C106.092 286.17 105.32 285.989 104.672 285.625C104.028 285.258 103.532 284.739 103.183 284.068C102.835 283.394 102.661 282.597 102.661 281.676C102.661 280.778 102.835 279.991 103.183 279.312C103.532 278.634 104.022 278.106 104.655 277.727C105.291 277.348 106.037 277.159 106.893 277.159C107.469 277.159 108.005 277.252 108.501 277.438C109.001 277.619 109.437 277.894 109.808 278.261C110.183 278.629 110.475 279.091 110.683 279.648C110.892 280.201 110.996 280.848 110.996 281.591V282.256H103.626V280.756H108.717C108.717 280.407 108.642 280.098 108.49 279.83C108.339 279.561 108.128 279.35 107.859 279.199C107.594 279.044 107.286 278.966 106.933 278.966C106.566 278.966 106.24 279.051 105.956 279.222C105.676 279.388 105.456 279.614 105.297 279.898C105.138 280.178 105.056 280.491 105.053 280.835V282.261C105.053 282.693 105.132 283.066 105.291 283.381C105.454 283.695 105.683 283.938 105.979 284.108C106.274 284.278 106.625 284.364 107.03 284.364C107.299 284.364 107.545 284.326 107.768 284.25C107.992 284.174 108.183 284.061 108.342 283.909C108.501 283.758 108.623 283.572 108.706 283.352L110.945 283.5C110.831 284.038 110.598 284.508 110.246 284.909C109.897 285.307 109.446 285.617 108.893 285.841C108.344 286.061 107.71 286.17 106.99 286.17ZM116.553 286.17C115.655 286.17 114.882 285.989 114.234 285.625C113.59 285.258 113.094 284.739 112.746 284.068C112.397 283.394 112.223 282.597 112.223 281.676C112.223 280.778 112.397 279.991 112.746 279.312C113.094 278.634 113.585 278.106 114.217 277.727C114.854 277.348 115.6 277.159 116.456 277.159C117.032 277.159 117.568 277.252 118.064 277.438C118.564 277.619 119 277.894 119.371 278.261C119.746 278.629 120.037 279.091 120.246 279.648C120.454 280.201 120.558 280.848 120.558 281.591V282.256H113.189V280.756H118.28C118.28 280.407 118.204 280.098 118.053 279.83C117.901 279.561 117.691 279.35 117.422 279.199C117.157 279.044 116.848 278.966 116.496 278.966C116.128 278.966 115.803 279.051 115.518 279.222C115.238 279.388 115.018 279.614 114.859 279.898C114.7 280.178 114.619 280.491 114.615 280.835V282.261C114.615 282.693 114.695 283.066 114.854 283.381C115.017 283.695 115.246 283.938 115.541 284.108C115.837 284.278 116.187 284.364 116.592 284.364C116.861 284.364 117.107 284.326 117.331 284.25C117.554 284.174 117.746 284.061 117.905 283.909C118.064 283.758 118.185 283.572 118.268 283.352L120.507 283.5C120.393 284.038 120.161 284.508 119.808 284.909C119.46 285.307 119.009 285.617 118.456 285.841C117.907 286.061 117.272 286.17 116.553 286.17ZM126.78 277.273V279.091H121.524V277.273H126.78ZM122.717 275.182H125.138V283.318C125.138 283.542 125.172 283.716 125.24 283.841C125.308 283.962 125.403 284.047 125.524 284.097C125.649 284.146 125.793 284.17 125.956 284.17C126.07 284.17 126.183 284.161 126.297 284.142C126.411 284.119 126.498 284.102 126.558 284.091L126.939 285.892C126.818 285.93 126.647 285.973 126.428 286.023C126.208 286.076 125.941 286.108 125.626 286.119C125.043 286.142 124.532 286.064 124.092 285.886C123.657 285.708 123.318 285.432 123.075 285.057C122.833 284.682 122.714 284.208 122.717 283.636V275.182ZM25.1364 310H21.0114V298.364H25.1705C26.3409 298.364 27.3485 298.597 28.1932 299.062C29.0379 299.525 29.6875 300.189 30.142 301.057C30.6004 301.924 30.8295 302.962 30.8295 304.17C30.8295 305.383 30.6004 306.424 30.142 307.295C29.6875 308.167 29.0341 308.835 28.1818 309.301C27.3333 309.767 26.3182 310 25.1364 310ZM23.4716 307.892H25.0341C25.7614 307.892 26.3731 307.763 26.8693 307.506C27.3693 307.244 27.7443 306.841 27.9943 306.295C28.2481 305.746 28.375 305.038 28.375 304.17C28.375 303.311 28.2481 302.608 27.9943 302.062C27.7443 301.517 27.3712 301.116 26.875 300.858C26.3788 300.6 25.767 300.472 25.0398 300.472H23.4716V307.892ZM38.2031 306.284V301.273H40.6236V310H38.2997V308.415H38.2088C38.0118 308.926 37.6842 309.337 37.2259 309.648C36.7713 309.958 36.2164 310.114 35.5611 310.114C34.9777 310.114 34.4645 309.981 34.0213 309.716C33.5781 309.451 33.2315 309.074 32.9815 308.585C32.7353 308.097 32.6103 307.511 32.6065 306.83V301.273H35.027V306.398C35.0308 306.913 35.169 307.32 35.4418 307.619C35.7145 307.919 36.08 308.068 36.5384 308.068C36.83 308.068 37.1027 308.002 37.3565 307.869C37.6103 307.733 37.8149 307.532 37.9702 307.267C38.1293 307.002 38.2069 306.674 38.2031 306.284ZM42.6051 310V298.364H45.0256V302.739H45.0994C45.2055 302.504 45.3589 302.265 45.5597 302.023C45.7642 301.777 46.0294 301.572 46.3551 301.409C46.6847 301.242 47.0938 301.159 47.5824 301.159C48.2188 301.159 48.8059 301.326 49.3438 301.659C49.8816 301.989 50.3116 302.487 50.6335 303.153C50.9555 303.816 51.1165 304.648 51.1165 305.648C51.1165 306.621 50.9593 307.443 50.6449 308.114C50.3343 308.78 49.91 309.286 49.3722 309.631C48.8381 309.972 48.2396 310.142 47.5767 310.142C47.107 310.142 46.7074 310.064 46.3778 309.909C46.0521 309.754 45.785 309.559 45.5767 309.324C45.3684 309.085 45.2093 308.845 45.0994 308.602H44.9915V310H42.6051ZM44.9744 305.636C44.9744 306.155 45.0464 306.608 45.1903 306.994C45.3343 307.381 45.5426 307.682 45.8153 307.898C46.0881 308.11 46.4195 308.216 46.8097 308.216C47.2036 308.216 47.5369 308.108 47.8097 307.892C48.0824 307.672 48.2888 307.369 48.429 306.983C48.5729 306.593 48.6449 306.144 48.6449 305.636C48.6449 305.133 48.5748 304.689 48.4347 304.307C48.2945 303.924 48.0881 303.625 47.8153 303.409C47.5426 303.193 47.2074 303.085 46.8097 303.085C46.4157 303.085 46.0824 303.189 45.8097 303.398C45.5407 303.606 45.3343 303.902 45.1903 304.284C45.0464 304.667 44.9744 305.117 44.9744 305.636ZM55.2202 310.165C54.6634 310.165 54.1671 310.068 53.7315 309.875C53.2959 309.678 52.9512 309.388 52.6974 309.006C52.4474 308.619 52.3224 308.138 52.3224 307.562C52.3224 307.078 52.4115 306.67 52.5895 306.341C52.7675 306.011 53.0099 305.746 53.3168 305.545C53.6236 305.345 53.9721 305.193 54.3622 305.091C54.7562 304.989 55.169 304.917 55.6009 304.875C56.1084 304.822 56.5175 304.773 56.8281 304.727C57.1387 304.678 57.3641 304.606 57.5043 304.511C57.6444 304.417 57.7145 304.277 57.7145 304.091V304.057C57.7145 303.697 57.6009 303.419 57.3736 303.222C57.1501 303.025 56.8319 302.926 56.419 302.926C55.9834 302.926 55.6368 303.023 55.3793 303.216C55.1217 303.405 54.9512 303.644 54.8679 303.932L52.6293 303.75C52.7429 303.22 52.9664 302.761 53.2997 302.375C53.633 301.985 54.063 301.686 54.5895 301.477C55.1198 301.265 55.7334 301.159 56.4304 301.159C56.9152 301.159 57.3793 301.216 57.8224 301.33C58.2694 301.443 58.6652 301.619 59.0099 301.858C59.3584 302.097 59.633 302.403 59.8338 302.778C60.0346 303.15 60.1349 303.595 60.1349 304.114V310H57.8395V308.79H57.7713C57.6312 309.062 57.4437 309.303 57.2088 309.511C56.974 309.716 56.6918 309.877 56.3622 309.994C56.0327 310.108 55.652 310.165 55.2202 310.165ZM55.9134 308.494C56.2694 308.494 56.5838 308.424 56.8565 308.284C57.1293 308.14 57.3433 307.947 57.4986 307.705C57.6539 307.462 57.7315 307.187 57.7315 306.881V305.955C57.6558 306.004 57.5516 306.049 57.419 306.091C57.2902 306.129 57.1444 306.165 56.9815 306.199C56.8187 306.229 56.6558 306.258 56.4929 306.284C56.33 306.307 56.1823 306.328 56.0497 306.347C55.7656 306.388 55.5175 306.455 55.3054 306.545C55.0933 306.636 54.9285 306.759 54.8111 306.915C54.6937 307.066 54.6349 307.256 54.6349 307.483C54.6349 307.812 54.7543 308.064 54.9929 308.239C55.2353 308.409 55.5421 308.494 55.9134 308.494ZM62.0128 310V301.273H64.4332V310H62.0128ZM63.2287 300.148C62.8688 300.148 62.5601 300.028 62.3026 299.79C62.0488 299.547 61.9219 299.258 61.9219 298.92C61.9219 298.587 62.0488 298.301 62.3026 298.062C62.5601 297.82 62.8688 297.699 63.2287 297.699C63.5885 297.699 63.8954 297.82 64.1491 298.062C64.4067 298.301 64.5355 298.587 64.5355 298.92C64.5355 299.258 64.4067 299.547 64.1491 299.79C63.8954 300.028 63.5885 300.148 63.2287 300.148ZM69.0028 308.409L68.9403 309.034C68.8911 309.534 68.7964 310.032 68.6562 310.528C68.5199 311.028 68.3759 311.481 68.2244 311.886C68.0767 312.292 67.9574 312.61 67.8665 312.841H66.2983C66.3551 312.617 66.4328 312.305 66.5312 311.903C66.6297 311.506 66.7225 311.059 66.8097 310.562C66.8968 310.066 66.9517 309.561 66.9744 309.045L67.0028 308.409H69.0028ZM74.3494 310V308.227L78.4915 304.392C78.8438 304.051 79.1392 303.744 79.3778 303.472C79.6203 303.199 79.804 302.932 79.929 302.67C80.054 302.405 80.1165 302.119 80.1165 301.812C80.1165 301.472 80.0388 301.178 79.8835 300.932C79.7282 300.682 79.5161 300.491 79.2472 300.358C78.9782 300.222 78.6733 300.153 78.3324 300.153C77.9763 300.153 77.6657 300.225 77.4006 300.369C77.1354 300.513 76.9309 300.72 76.7869 300.989C76.643 301.258 76.571 301.578 76.571 301.949H74.2358C74.2358 301.187 74.4081 300.527 74.7528 299.966C75.0975 299.405 75.5805 298.972 76.2017 298.665C76.8229 298.358 77.5388 298.205 78.3494 298.205C79.1828 298.205 79.9081 298.352 80.5256 298.648C81.1468 298.939 81.6297 299.345 81.9744 299.864C82.3191 300.383 82.4915 300.977 82.4915 301.648C82.4915 302.087 82.4044 302.521 82.2301 302.949C82.0597 303.377 81.7547 303.852 81.3153 304.375C80.8759 304.894 80.2566 305.517 79.4574 306.244L77.7585 307.909V307.989H82.6449V310H74.3494ZM88.6776 310.159C87.8745 310.159 87.1586 310.011 86.5298 309.716C85.9048 309.42 85.4086 309.013 85.0412 308.494C84.6738 307.975 84.4825 307.381 84.4673 306.71H86.8537C86.8802 307.161 87.0696 307.527 87.4219 307.807C87.7741 308.087 88.1927 308.227 88.6776 308.227C89.0639 308.227 89.4048 308.142 89.7003 307.972C89.9995 307.797 90.2325 307.557 90.3991 307.25C90.5696 306.939 90.6548 306.583 90.6548 306.182C90.6548 305.773 90.5677 305.413 90.3935 305.102C90.223 304.792 89.9863 304.549 89.6832 304.375C89.3802 304.201 89.0336 304.112 88.6435 304.108C88.3026 304.108 87.9711 304.178 87.6491 304.318C87.331 304.458 87.0829 304.65 86.9048 304.892L84.7173 304.5L85.2685 298.364H92.3821V300.375H87.2969L86.9957 303.29H87.0639C87.2685 303.002 87.5772 302.763 87.9901 302.574C88.4029 302.384 88.8651 302.29 89.3764 302.29C90.0772 302.29 90.7022 302.455 91.2514 302.784C91.8007 303.114 92.2344 303.566 92.5526 304.142C92.8707 304.714 93.0279 305.373 93.0241 306.119C93.0279 306.903 92.8461 307.6 92.4787 308.21C92.1151 308.816 91.6056 309.294 90.9503 309.642C90.2988 309.987 89.5412 310.159 88.6776 310.159ZM99.0412 310.159C98.1927 310.159 97.437 310.013 96.7741 309.722C96.1151 309.426 95.5942 309.021 95.2116 308.506C94.8329 307.987 94.6378 307.388 94.6264 306.71H97.1037C97.1188 306.994 97.2116 307.244 97.3821 307.46C97.5563 307.672 97.7874 307.837 98.0753 307.955C98.3632 308.072 98.687 308.131 99.0469 308.131C99.4219 308.131 99.7533 308.064 100.041 307.932C100.329 307.799 100.554 307.616 100.717 307.381C100.88 307.146 100.962 306.875 100.962 306.568C100.962 306.258 100.875 305.983 100.7 305.744C100.53 305.502 100.284 305.312 99.9616 305.176C99.6435 305.04 99.2647 304.972 98.8253 304.972H97.7401V303.165H98.8253C99.1965 303.165 99.5241 303.1 99.8082 302.972C100.096 302.843 100.32 302.665 100.479 302.438C100.638 302.206 100.717 301.938 100.717 301.631C100.717 301.339 100.647 301.083 100.507 300.864C100.371 300.64 100.178 300.466 99.9276 300.341C99.6813 300.216 99.3935 300.153 99.0639 300.153C98.7306 300.153 98.4257 300.214 98.1491 300.335C97.8726 300.453 97.651 300.621 97.4844 300.841C97.3177 301.061 97.2287 301.318 97.2173 301.614H94.8594C94.8707 300.943 95.062 300.352 95.4332 299.841C95.8045 299.33 96.3045 298.93 96.9332 298.642C97.5658 298.35 98.2798 298.205 99.0753 298.205C99.8783 298.205 100.581 298.35 101.183 298.642C101.786 298.934 102.253 299.328 102.587 299.824C102.924 300.316 103.09 300.869 103.087 301.483C103.09 302.134 102.888 302.678 102.479 303.114C102.073 303.549 101.545 303.826 100.893 303.943V304.034C101.75 304.144 102.401 304.441 102.848 304.926C103.299 305.407 103.522 306.009 103.518 306.733C103.522 307.396 103.331 307.985 102.945 308.5C102.562 309.015 102.034 309.42 101.359 309.716C100.685 310.011 99.9124 310.159 99.0412 310.159ZM110.349 298.364V310H107.889V300.699H107.821L105.156 302.369V300.188L108.037 298.364H110.349ZM112.939 307.955V306.017L117.797 298.364H119.467V301.045H118.479L115.416 305.892V305.983H122.32V307.955H112.939ZM118.524 310V307.364L118.57 306.506V298.364H120.876V310H118.524Z" fill="#E08210"/>
<path d="M21.0114 163V151.364H25.6705C26.5265 151.364 27.2405 151.491 27.8125 151.744C28.3845 151.998 28.8144 152.35 29.1023 152.801C29.3902 153.248 29.5341 153.763 29.5341 154.347C29.5341 154.801 29.4432 155.201 29.2614 155.545C29.0795 155.886 28.8295 156.167 28.5114 156.386C28.197 156.602 27.8371 156.756 27.4318 156.847V156.96C27.875 156.979 28.2898 157.104 28.6761 157.335C29.0663 157.566 29.3826 157.89 29.625 158.307C29.8674 158.72 29.9886 159.212 29.9886 159.784C29.9886 160.402 29.8352 160.953 29.5284 161.438C29.2254 161.919 28.7765 162.299 28.1818 162.58C27.5871 162.86 26.8542 163 25.983 163H21.0114ZM23.4716 160.989H25.4773C26.1629 160.989 26.6629 160.858 26.9773 160.597C27.2917 160.331 27.4489 159.979 27.4489 159.54C27.4489 159.218 27.3712 158.934 27.2159 158.688C27.0606 158.441 26.839 158.248 26.5511 158.108C26.267 157.968 25.928 157.898 25.5341 157.898H23.4716V160.989ZM23.4716 156.233H25.2955C25.6326 156.233 25.9318 156.174 26.1932 156.057C26.4583 155.936 26.6667 155.765 26.8182 155.545C26.9735 155.326 27.0511 155.062 27.0511 154.756C27.0511 154.335 26.9015 153.996 26.6023 153.739C26.3068 153.481 25.8864 153.352 25.3409 153.352H23.4716V156.233ZM41.0669 163.256C40.0897 163.252 39.2487 163.011 38.5442 162.534C37.8434 162.057 37.3037 161.366 36.9249 160.46C36.5499 159.555 36.3643 158.466 36.3681 157.193C36.3681 155.924 36.5556 154.843 36.9306 153.949C37.3094 153.055 37.8491 152.375 38.5499 151.909C39.2544 151.439 40.0934 151.205 41.0669 151.205C42.0404 151.205 42.8775 151.439 43.5783 151.909C44.2828 152.379 44.8245 153.061 45.2033 153.955C45.5821 154.845 45.7696 155.924 45.7658 157.193C45.7658 158.47 45.5764 159.561 45.1976 160.466C44.8226 161.371 44.2847 162.062 43.584 162.54C42.8832 163.017 42.0442 163.256 41.0669 163.256ZM41.0669 161.216C41.7336 161.216 42.2658 160.881 42.6635 160.21C43.0613 159.54 43.2582 158.534 43.2544 157.193C43.2544 156.311 43.1635 155.576 42.9817 154.989C42.8037 154.402 42.5499 153.96 42.2203 153.665C41.8946 153.369 41.5101 153.222 41.0669 153.222C40.4041 153.222 39.8737 153.553 39.476 154.216C39.0783 154.879 38.8775 155.871 38.8737 157.193C38.8737 158.087 38.9628 158.833 39.1408 159.432C39.3226 160.027 39.5783 160.473 39.9078 160.773C40.2374 161.068 40.6237 161.216 41.0669 161.216ZM52.501 163.159C51.626 163.159 50.8476 163.017 50.1657 162.733C49.4877 162.445 48.9555 162.053 48.5691 161.557C48.1828 161.061 47.9896 160.498 47.9896 159.869C47.9896 159.384 48.0995 158.939 48.3191 158.534C48.5426 158.125 48.8457 157.786 49.2282 157.517C49.6108 157.244 50.0388 157.07 50.5123 156.994V156.915C49.8911 156.79 49.3873 156.489 49.001 156.011C48.6146 155.53 48.4214 154.972 48.4214 154.335C48.4214 153.733 48.5976 153.197 48.9498 152.727C49.3021 152.254 49.7851 151.883 50.3987 151.614C51.0161 151.341 51.7169 151.205 52.501 151.205C53.2851 151.205 53.9839 151.341 54.5976 151.614C55.215 151.886 55.6998 152.259 56.0521 152.733C56.4044 153.203 56.5824 153.737 56.5862 154.335C56.5824 154.975 56.3854 155.534 55.9953 156.011C55.6051 156.489 55.1051 156.79 54.4953 156.915V156.994C54.9612 157.07 55.3835 157.244 55.7623 157.517C56.1449 157.786 56.4479 158.125 56.6714 158.534C56.8987 158.939 57.0142 159.384 57.018 159.869C57.0142 160.498 56.8191 161.061 56.4328 161.557C56.0464 162.053 55.5123 162.445 54.8305 162.733C54.1525 163.017 53.376 163.159 52.501 163.159ZM52.501 161.352C52.8911 161.352 53.232 161.282 53.5237 161.142C53.8154 160.998 54.0426 160.801 54.2055 160.551C54.3722 160.297 54.4555 160.006 54.4555 159.676C54.4555 159.339 54.3703 159.042 54.1998 158.784C54.0294 158.523 53.7983 158.318 53.5066 158.17C53.215 158.019 52.8798 157.943 52.501 157.943C52.126 157.943 51.7907 158.019 51.4953 158.17C51.1998 158.318 50.9669 158.523 50.7964 158.784C50.6298 159.042 50.5464 159.339 50.5464 159.676C50.5464 160.006 50.6279 160.297 50.7907 160.551C50.9536 160.801 51.1828 160.998 51.4782 161.142C51.7737 161.282 52.1146 161.352 52.501 161.352ZM52.501 156.153C52.8267 156.153 53.1165 156.087 53.3703 155.955C53.6241 155.822 53.8229 155.638 53.9669 155.403C54.1108 155.169 54.1828 154.898 54.1828 154.591C54.1828 154.288 54.1108 154.023 53.9669 153.795C53.8229 153.564 53.626 153.384 53.376 153.256C53.126 153.123 52.8343 153.057 52.501 153.057C52.1714 153.057 51.8798 153.123 51.626 153.256C51.3722 153.384 51.1733 153.564 51.0294 153.795C50.8892 154.023 50.8191 154.288 50.8191 154.591C50.8191 154.898 50.8911 155.169 51.0351 155.403C51.179 155.638 51.3779 155.822 51.6316 155.955C51.8854 156.087 52.1752 156.153 52.501 156.153ZM63.6282 163.159C62.8252 163.159 62.1092 163.011 61.4805 162.716C60.8555 162.42 60.3592 162.013 59.9918 161.494C59.6244 160.975 59.4331 160.381 59.418 159.71H61.8043C61.8308 160.161 62.0202 160.527 62.3725 160.807C62.7248 161.087 63.1433 161.227 63.6282 161.227C64.0145 161.227 64.3555 161.142 64.6509 160.972C64.9502 160.797 65.1831 160.557 65.3498 160.25C65.5202 159.939 65.6055 159.583 65.6055 159.182C65.6055 158.773 65.5183 158.413 65.3441 158.102C65.1736 157.792 64.9369 157.549 64.6339 157.375C64.3308 157.201 63.9842 157.112 63.5941 157.108C63.2532 157.108 62.9217 157.178 62.5998 157.318C62.2816 157.458 62.0335 157.65 61.8555 157.892L59.668 157.5L60.2191 151.364H67.3327V153.375H62.2475L61.9464 156.29H62.0145C62.2191 156.002 62.5278 155.763 62.9407 155.574C63.3536 155.384 63.8157 155.29 64.327 155.29C65.0278 155.29 65.6528 155.455 66.202 155.784C66.7513 156.114 67.185 156.566 67.5032 157.142C67.8214 157.714 67.9786 158.373 67.9748 159.119C67.9786 159.903 67.7967 160.6 67.4293 161.21C67.0657 161.816 66.5562 162.294 65.9009 162.642C65.2494 162.987 64.4918 163.159 63.6282 163.159ZM70.3307 163V161.227L74.4727 157.392C74.825 157.051 75.1205 156.744 75.3591 156.472C75.6015 156.199 75.7852 155.932 75.9102 155.67C76.0352 155.405 76.0977 155.119 76.0977 154.812C76.0977 154.472 76.0201 154.178 75.8648 153.932C75.7095 153.682 75.4973 153.491 75.2284 153.358C74.9595 153.222 74.6545 153.153 74.3136 153.153C73.9576 153.153 73.647 153.225 73.3818 153.369C73.1167 153.513 72.9121 153.72 72.7682 153.989C72.6242 154.258 72.5523 154.578 72.5523 154.949H70.217C70.217 154.187 70.3894 153.527 70.7341 152.966C71.0788 152.405 71.5617 151.972 72.183 151.665C72.8042 151.358 73.5201 151.205 74.3307 151.205C75.164 151.205 75.8894 151.352 76.5068 151.648C77.128 151.939 77.611 152.345 77.9557 152.864C78.3004 153.383 78.4727 153.977 78.4727 154.648C78.4727 155.087 78.3856 155.521 78.2114 155.949C78.0409 156.377 77.736 156.852 77.2966 157.375C76.8572 157.894 76.2379 158.517 75.4386 159.244L73.7398 160.909V160.989H78.6261V163H70.3307ZM80.6227 160.955V159.017L85.4806 151.364H87.1511V154.045H86.1624L83.0999 158.892V158.983H90.0034V160.955H80.6227ZM86.2079 163V160.364L86.2534 159.506V151.364H88.5602V163H86.2079Z" fill="#E08210"/>
<path d="M182.943 163V161.227L187.085 157.392C187.438 157.051 187.733 156.744 187.972 156.472C188.214 156.199 188.398 155.932 188.523 155.67C188.648 155.405 188.71 155.119 188.71 154.812C188.71 154.472 188.633 154.178 188.477 153.932C188.322 153.682 188.11 153.491 187.841 153.358C187.572 153.222 187.267 153.153 186.926 153.153C186.57 153.153 186.259 153.225 185.994 153.369C185.729 153.513 185.525 153.72 185.381 153.989C185.237 154.258 185.165 154.578 185.165 154.949H182.83C182.83 154.187 183.002 153.527 183.347 152.966C183.691 152.405 184.174 151.972 184.795 151.665C185.417 151.358 186.133 151.205 186.943 151.205C187.777 151.205 188.502 151.352 189.119 151.648C189.741 151.939 190.223 152.345 190.568 152.864C190.913 153.383 191.085 153.977 191.085 154.648C191.085 155.087 190.998 155.521 190.824 155.949C190.653 156.377 190.348 156.852 189.909 157.375C189.47 157.894 188.85 158.517 188.051 159.244L186.352 160.909V160.989H191.239V163H182.943ZM198.724 151.364V163H196.264V153.699H196.195L193.531 155.369V153.188L196.411 151.364H198.724ZM206.431 163.159C205.582 163.159 204.826 163.013 204.164 162.722C203.504 162.426 202.984 162.021 202.601 161.506C202.222 160.987 202.027 160.388 202.016 159.71H204.493C204.508 159.994 204.601 160.244 204.771 160.46C204.946 160.672 205.177 160.837 205.465 160.955C205.753 161.072 206.076 161.131 206.436 161.131C206.811 161.131 207.143 161.064 207.431 160.932C207.718 160.799 207.944 160.616 208.107 160.381C208.27 160.146 208.351 159.875 208.351 159.568C208.351 159.258 208.264 158.983 208.09 158.744C207.919 158.502 207.673 158.312 207.351 158.176C207.033 158.04 206.654 157.972 206.215 157.972H205.129V156.165H206.215C206.586 156.165 206.914 156.1 207.198 155.972C207.485 155.843 207.709 155.665 207.868 155.438C208.027 155.206 208.107 154.938 208.107 154.631C208.107 154.339 208.037 154.083 207.896 153.864C207.76 153.64 207.567 153.466 207.317 153.341C207.071 153.216 206.783 153.153 206.453 153.153C206.12 153.153 205.815 153.214 205.539 153.335C205.262 153.453 205.04 153.621 204.874 153.841C204.707 154.061 204.618 154.318 204.607 154.614H202.249C202.26 153.943 202.451 153.352 202.823 152.841C203.194 152.33 203.694 151.93 204.323 151.642C204.955 151.35 205.669 151.205 206.465 151.205C207.268 151.205 207.97 151.35 208.573 151.642C209.175 151.934 209.643 152.328 209.976 152.824C210.313 153.316 210.48 153.869 210.476 154.483C210.48 155.134 210.277 155.678 209.868 156.114C209.463 156.549 208.934 156.826 208.283 156.943V157.034C209.139 157.144 209.79 157.441 210.237 157.926C210.688 158.407 210.912 159.009 210.908 159.733C210.912 160.396 210.72 160.985 210.334 161.5C209.951 162.015 209.423 162.42 208.749 162.716C208.075 163.011 207.302 163.159 206.431 163.159ZM213.316 163V161.227L217.458 157.392C217.811 157.051 218.106 156.744 218.345 156.472C218.587 156.199 218.771 155.932 218.896 155.67C219.021 155.405 219.083 155.119 219.083 154.812C219.083 154.472 219.006 154.178 218.85 153.932C218.695 153.682 218.483 153.491 218.214 153.358C217.945 153.222 217.64 153.153 217.299 153.153C216.943 153.153 216.633 153.225 216.367 153.369C216.102 153.513 215.898 153.72 215.754 153.989C215.61 154.258 215.538 154.578 215.538 154.949H213.203C213.203 154.187 213.375 153.527 213.72 152.966C214.064 152.405 214.547 151.972 215.169 151.665C215.79 151.358 216.506 151.205 217.316 151.205C218.15 151.205 218.875 151.352 219.492 151.648C220.114 151.939 220.597 152.345 220.941 152.864C221.286 153.383 221.458 153.977 221.458 154.648C221.458 155.087 221.371 155.521 221.197 155.949C221.027 156.377 220.722 156.852 220.282 157.375C219.843 157.894 219.224 158.517 218.424 159.244L216.725 160.909V160.989H221.612V163H213.316ZM228.284 163.159C227.481 163.159 226.765 163.011 226.137 162.716C225.512 162.42 225.015 162.013 224.648 161.494C224.281 160.975 224.089 160.381 224.074 159.71H226.461C226.487 160.161 226.676 160.527 227.029 160.807C227.381 161.087 227.8 161.227 228.284 161.227C228.671 161.227 229.012 161.142 229.307 160.972C229.606 160.797 229.839 160.557 230.006 160.25C230.176 159.939 230.262 159.583 230.262 159.182C230.262 158.773 230.175 158.413 230 158.102C229.83 157.792 229.593 157.549 229.29 157.375C228.987 157.201 228.64 157.112 228.25 157.108C227.909 157.108 227.578 157.178 227.256 157.318C226.938 157.458 226.69 157.65 226.512 157.892L224.324 157.5L224.875 151.364H231.989V153.375H226.904L226.603 156.29H226.671C226.875 156.002 227.184 155.763 227.597 155.574C228.01 155.384 228.472 155.29 228.983 155.29C229.684 155.29 230.309 155.455 230.858 155.784C231.408 156.114 231.841 156.566 232.159 157.142C232.478 157.714 232.635 158.373 232.631 159.119C232.635 159.903 232.453 160.6 232.086 161.21C231.722 161.816 231.212 162.294 230.557 162.642C229.906 162.987 229.148 163.159 228.284 163.159ZM239.453 163.159C238.854 163.155 238.277 163.055 237.72 162.858C237.167 162.661 236.671 162.341 236.231 161.898C235.792 161.455 235.443 160.867 235.186 160.136C234.932 159.405 234.805 158.508 234.805 157.443C234.809 156.466 234.921 155.593 235.14 154.824C235.364 154.051 235.682 153.396 236.095 152.858C236.512 152.32 237.01 151.911 237.589 151.631C238.169 151.347 238.818 151.205 239.538 151.205C240.315 151.205 241 151.356 241.595 151.659C242.19 151.958 242.667 152.366 243.027 152.881C243.39 153.396 243.61 153.973 243.686 154.614H241.26C241.165 154.208 240.966 153.89 240.663 153.659C240.36 153.428 239.985 153.312 239.538 153.312C238.78 153.312 238.205 153.642 237.811 154.301C237.421 154.96 237.222 155.856 237.214 156.989H237.294C237.468 156.644 237.703 156.35 237.998 156.108C238.298 155.862 238.637 155.674 239.015 155.545C239.398 155.413 239.801 155.347 240.226 155.347C240.915 155.347 241.529 155.509 242.066 155.835C242.604 156.157 243.029 156.6 243.339 157.165C243.65 157.729 243.805 158.375 243.805 159.102C243.805 159.89 243.621 160.591 243.254 161.205C242.89 161.818 242.381 162.299 241.726 162.648C241.074 162.992 240.316 163.163 239.453 163.159ZM239.441 161.227C239.82 161.227 240.159 161.136 240.459 160.955C240.758 160.773 240.993 160.527 241.163 160.216C241.334 159.905 241.419 159.557 241.419 159.17C241.419 158.784 241.334 158.437 241.163 158.131C240.996 157.824 240.765 157.58 240.47 157.398C240.174 157.216 239.837 157.125 239.459 157.125C239.174 157.125 238.911 157.178 238.669 157.284C238.43 157.39 238.22 157.538 238.038 157.727C237.86 157.917 237.72 158.136 237.618 158.386C237.515 158.633 237.464 158.896 237.464 159.176C237.464 159.551 237.549 159.894 237.72 160.205C237.894 160.515 238.129 160.763 238.424 160.949C238.724 161.134 239.063 161.227 239.441 161.227ZM246.013 160.955V159.017L250.871 151.364H252.542V154.045H251.553L248.491 158.892V158.983H255.394V160.955H246.013ZM251.599 163V160.364L251.644 159.506V151.364H253.951V163H251.599ZM261.974 163.159C261.126 163.159 260.37 163.013 259.707 162.722C259.048 162.426 258.527 162.021 258.145 161.506C257.766 160.987 257.571 160.388 257.56 159.71H260.037C260.052 159.994 260.145 160.244 260.315 160.46C260.489 160.672 260.721 160.837 261.008 160.955C261.296 161.072 261.62 161.131 261.98 161.131C262.355 161.131 262.686 161.064 262.974 160.932C263.262 160.799 263.488 160.616 263.65 160.381C263.813 160.146 263.895 159.875 263.895 159.568C263.895 159.258 263.808 158.983 263.633 158.744C263.463 158.502 263.217 158.312 262.895 158.176C262.577 158.04 262.198 157.972 261.758 157.972H260.673V156.165H261.758C262.13 156.165 262.457 156.1 262.741 155.972C263.029 155.843 263.253 155.665 263.412 155.438C263.571 155.206 263.65 154.938 263.65 154.631C263.65 154.339 263.58 154.083 263.44 153.864C263.304 153.64 263.111 153.466 262.861 153.341C262.614 153.216 262.327 153.153 261.997 153.153C261.664 153.153 261.359 153.214 261.082 153.335C260.806 153.453 260.584 153.621 260.418 153.841C260.251 154.061 260.162 154.318 260.15 154.614H257.793C257.804 153.943 257.995 153.352 258.366 152.841C258.738 152.33 259.238 151.93 259.866 151.642C260.499 151.35 261.213 151.205 262.008 151.205C262.811 151.205 263.514 151.35 264.116 151.642C264.719 151.934 265.186 152.328 265.52 152.824C265.857 153.316 266.024 153.869 266.02 154.483C266.024 155.134 265.821 155.678 265.412 156.114C265.007 156.549 264.478 156.826 263.827 156.943V157.034C264.683 157.144 265.334 157.441 265.781 157.926C266.232 158.407 266.455 159.009 266.452 159.733C266.455 160.396 266.264 160.985 265.878 161.5C265.495 162.015 264.967 162.42 264.293 162.716C263.618 163.011 262.846 163.159 261.974 163.159Z" fill="#E08210"/>
<path d="M371.727 155.125C371.648 154.848 371.536 154.604 371.392 154.392C371.248 154.176 371.072 153.994 370.864 153.847C370.659 153.695 370.424 153.58 370.159 153.5C369.898 153.42 369.608 153.381 369.29 153.381C368.695 153.381 368.172 153.528 367.722 153.824C367.275 154.119 366.926 154.549 366.676 155.114C366.426 155.674 366.301 156.36 366.301 157.17C366.301 157.981 366.424 158.67 366.67 159.239C366.917 159.807 367.265 160.241 367.716 160.54C368.167 160.835 368.699 160.983 369.312 160.983C369.869 160.983 370.345 160.884 370.739 160.688C371.136 160.487 371.439 160.205 371.648 159.841C371.86 159.477 371.966 159.047 371.966 158.551L372.466 158.625H369.466V156.773H374.335V158.239C374.335 159.261 374.119 160.14 373.688 160.875C373.256 161.606 372.661 162.17 371.903 162.568C371.146 162.962 370.278 163.159 369.301 163.159C368.21 163.159 367.252 162.919 366.426 162.438C365.6 161.953 364.956 161.265 364.494 160.375C364.036 159.481 363.807 158.42 363.807 157.193C363.807 156.25 363.943 155.409 364.216 154.67C364.492 153.928 364.879 153.299 365.375 152.784C365.871 152.269 366.449 151.877 367.108 151.608C367.767 151.339 368.481 151.205 369.25 151.205C369.909 151.205 370.523 151.301 371.091 151.494C371.659 151.684 372.163 151.953 372.602 152.301C373.045 152.65 373.407 153.064 373.688 153.545C373.968 154.023 374.148 154.549 374.227 155.125H371.727ZM376.823 151.364H379.857L383.062 159.182H383.198L386.403 151.364H389.437V163H387.051V155.426H386.954L383.943 162.943H382.318L379.306 155.398H379.21V163H376.823V151.364ZM402.371 155.438H399.882C399.837 155.116 399.744 154.83 399.604 154.58C399.464 154.326 399.284 154.11 399.064 153.932C398.844 153.754 398.591 153.617 398.303 153.523C398.019 153.428 397.71 153.381 397.377 153.381C396.774 153.381 396.25 153.53 395.803 153.83C395.356 154.125 395.009 154.557 394.763 155.125C394.517 155.689 394.394 156.375 394.394 157.182C394.394 158.011 394.517 158.708 394.763 159.273C395.013 159.837 395.361 160.263 395.808 160.551C396.255 160.839 396.772 160.983 397.36 160.983C397.689 160.983 397.994 160.939 398.274 160.852C398.558 160.765 398.81 160.638 399.03 160.472C399.25 160.301 399.432 160.095 399.575 159.852C399.723 159.61 399.825 159.333 399.882 159.023L402.371 159.034C402.307 159.568 402.146 160.083 401.888 160.58C401.634 161.072 401.291 161.513 400.86 161.903C400.432 162.29 399.92 162.597 399.325 162.824C398.735 163.047 398.066 163.159 397.32 163.159C396.282 163.159 395.354 162.924 394.536 162.455C393.721 161.985 393.077 161.305 392.604 160.415C392.134 159.525 391.899 158.447 391.899 157.182C391.899 155.913 392.138 154.833 392.615 153.943C393.093 153.053 393.74 152.375 394.558 151.909C395.377 151.439 396.297 151.205 397.32 151.205C397.994 151.205 398.619 151.299 399.195 151.489C399.774 151.678 400.288 151.955 400.735 152.318C401.182 152.678 401.545 153.119 401.825 153.642C402.11 154.165 402.291 154.763 402.371 155.438ZM409.05 163V161.227L413.192 157.392C413.544 157.051 413.84 156.744 414.078 156.472C414.321 156.199 414.505 155.932 414.63 155.67C414.755 155.405 414.817 155.119 414.817 154.812C414.817 154.472 414.739 154.178 414.584 153.932C414.429 153.682 414.217 153.491 413.948 153.358C413.679 153.222 413.374 153.153 413.033 153.153C412.677 153.153 412.366 153.225 412.101 153.369C411.836 153.513 411.631 153.72 411.488 153.989C411.344 154.258 411.272 154.578 411.272 154.949H408.936C408.936 154.187 409.109 153.527 409.453 152.966C409.798 152.405 410.281 151.972 410.902 151.665C411.524 151.358 412.239 151.205 413.05 151.205C413.883 151.205 414.609 151.352 415.226 151.648C415.847 151.939 416.33 152.345 416.675 152.864C417.02 153.383 417.192 153.977 417.192 154.648C417.192 155.087 417.105 155.521 416.931 155.949C416.76 156.377 416.455 156.852 416.016 157.375C415.577 157.894 414.957 158.517 414.158 159.244L412.459 160.909V160.989H417.346V163H409.05ZM424.331 163.256C423.353 163.252 422.513 163.011 421.808 162.534C421.107 162.057 420.567 161.366 420.189 160.46C419.814 159.555 419.628 158.466 419.632 157.193C419.632 155.924 419.819 154.843 420.194 153.949C420.573 153.055 421.113 152.375 421.814 151.909C422.518 151.439 423.357 151.205 424.331 151.205C425.304 151.205 426.141 151.439 426.842 151.909C427.547 152.379 428.088 153.061 428.467 153.955C428.846 154.845 429.033 155.924 429.03 157.193C429.03 158.47 428.84 159.561 428.461 160.466C428.086 161.371 427.548 162.062 426.848 162.54C426.147 163.017 425.308 163.256 424.331 163.256ZM424.331 161.216C424.997 161.216 425.53 160.881 425.927 160.21C426.325 159.54 426.522 158.534 426.518 157.193C426.518 156.311 426.427 155.576 426.245 154.989C426.067 154.402 425.814 153.96 425.484 153.665C425.158 153.369 424.774 153.222 424.331 153.222C423.668 153.222 423.138 153.553 422.74 154.216C422.342 154.879 422.141 155.871 422.138 157.193C422.138 158.087 422.227 158.833 422.405 159.432C422.586 160.027 422.842 160.473 423.172 160.773C423.501 161.068 423.888 161.216 424.331 161.216ZM436.486 151.364V163H434.026V153.699H433.958L431.293 155.369V153.188L434.174 151.364H436.486ZM439.892 163V161.227L444.034 157.392C444.386 157.051 444.682 156.744 444.92 156.472C445.163 156.199 445.346 155.932 445.471 155.67C445.596 155.405 445.659 155.119 445.659 154.812C445.659 154.472 445.581 154.178 445.426 153.932C445.271 153.682 445.059 153.491 444.79 153.358C444.521 153.222 444.216 153.153 443.875 153.153C443.519 153.153 443.208 153.225 442.943 153.369C442.678 153.513 442.473 153.72 442.329 153.989C442.185 154.258 442.114 154.578 442.114 154.949H439.778C439.778 154.187 439.951 153.527 440.295 152.966C440.64 152.405 441.123 151.972 441.744 151.665C442.365 151.358 443.081 151.205 443.892 151.205C444.725 151.205 445.451 151.352 446.068 151.648C446.689 151.939 447.172 152.345 447.517 152.864C447.862 153.383 448.034 153.977 448.034 154.648C448.034 155.087 447.947 155.521 447.773 155.949C447.602 156.377 447.297 156.852 446.858 157.375C446.418 157.894 445.799 158.517 445 159.244L443.301 160.909V160.989H448.187V163H439.892Z" fill="#E08210"/>
<path d="M277.244 102.159C276.396 102.159 275.64 102.013 274.977 101.722C274.318 101.426 273.797 101.021 273.415 100.506C273.036 99.9867 272.841 99.3883 272.83 98.7102H275.307C275.322 98.9943 275.415 99.2443 275.585 99.4602C275.759 99.6723 275.991 99.8371 276.278 99.9545C276.566 100.072 276.89 100.131 277.25 100.131C277.625 100.131 277.956 100.064 278.244 99.9318C278.532 99.7992 278.758 99.6155 278.92 99.3807C279.083 99.1458 279.165 98.875 279.165 98.5682C279.165 98.2576 279.078 97.983 278.903 97.7443C278.733 97.5019 278.487 97.3125 278.165 97.1761C277.847 97.0398 277.468 96.9716 277.028 96.9716H275.943V95.1648H277.028C277.4 95.1648 277.727 95.1004 278.011 94.9716C278.299 94.8428 278.523 94.6648 278.682 94.4375C278.841 94.2064 278.92 93.9375 278.92 93.6307C278.92 93.339 278.85 93.0833 278.71 92.8636C278.574 92.6402 278.381 92.4659 278.131 92.3409C277.884 92.2159 277.597 92.1534 277.267 92.1534C276.934 92.1534 276.629 92.214 276.352 92.3352C276.076 92.4527 275.854 92.6212 275.688 92.8409C275.521 93.0606 275.432 93.3182 275.42 93.6136H273.062C273.074 92.9432 273.265 92.3523 273.636 91.8409C274.008 91.3295 274.508 90.9299 275.136 90.642C275.769 90.3504 276.483 90.2045 277.278 90.2045C278.081 90.2045 278.784 90.3504 279.386 90.642C279.989 90.9337 280.456 91.3277 280.79 91.8239C281.127 92.3163 281.294 92.8693 281.29 93.483C281.294 94.1345 281.091 94.678 280.682 95.1136C280.277 95.5492 279.748 95.8258 279.097 95.9432V96.0341C279.953 96.1439 280.604 96.4413 281.051 96.9261C281.502 97.4072 281.725 98.0095 281.722 98.733C281.725 99.3958 281.534 99.9848 281.148 100.5C280.765 101.015 280.237 101.42 279.562 101.716C278.888 102.011 278.116 102.159 277.244 102.159ZM284.198 102V90.3636H286.658V95.1648H291.653V90.3636H294.107V102H291.653V97.1932H286.658V102H284.198ZM296.333 92.392V90.3636H305.889V92.392H302.327V102H299.895V92.392H296.333ZM317.836 90.3636V102H315.711L310.649 94.6761H310.563V102H308.103V90.3636H310.262L315.285 97.6818H315.387V90.3636H317.836ZM320.509 102V90.3636H328.35V92.392H322.969V95.1648H327.946V97.1932H322.969V99.9716H328.373V102H320.509ZM335.088 90.2045C335.686 90.2045 336.262 90.3049 336.815 90.5057C337.372 90.7064 337.868 91.0265 338.304 91.4659C338.743 91.9053 339.09 92.4886 339.343 93.2159C339.601 93.9394 339.732 94.8277 339.736 95.8807C339.736 96.8693 339.624 97.7519 339.4 98.5284C339.181 99.3011 338.864 99.9583 338.451 100.5C338.039 101.042 337.54 101.455 336.957 101.739C336.374 102.019 335.722 102.159 335.003 102.159C334.226 102.159 333.54 102.009 332.946 101.71C332.351 101.407 331.872 100.996 331.508 100.477C331.148 99.9545 330.931 99.3674 330.855 98.7159H333.281C333.376 99.1402 333.575 99.4697 333.878 99.7045C334.181 99.9356 334.556 100.051 335.003 100.051C335.76 100.051 336.336 99.7216 336.73 99.0625C337.124 98.3996 337.323 97.4924 337.326 96.3409H337.247C337.073 96.6818 336.838 96.9754 336.542 97.2216C336.247 97.464 335.908 97.6515 335.525 97.7841C335.146 97.9167 334.743 97.983 334.315 97.983C333.629 97.983 333.018 97.822 332.48 97.5C331.942 97.178 331.518 96.7348 331.207 96.1705C330.896 95.6061 330.741 94.9621 330.741 94.2386C330.737 93.4583 330.917 92.7633 331.281 92.1534C331.645 91.5436 332.152 91.0663 332.804 90.7216C333.459 90.3731 334.22 90.2008 335.088 90.2045ZM335.105 92.1364C334.722 92.1364 334.381 92.2273 334.082 92.4091C333.787 92.5909 333.552 92.8352 333.378 93.142C333.207 93.4489 333.124 93.7917 333.128 94.1705C333.128 94.553 333.211 94.8977 333.378 95.2045C333.548 95.5076 333.779 95.75 334.071 95.9318C334.366 96.1098 334.703 96.1989 335.082 96.1989C335.366 96.1989 335.629 96.1458 335.872 96.0398C336.114 95.9337 336.325 95.7879 336.503 95.6023C336.684 95.4129 336.826 95.1951 336.929 94.9489C337.031 94.7027 337.082 94.4413 337.082 94.1648C337.078 93.7973 336.991 93.4602 336.821 93.1534C336.65 92.8466 336.415 92.6004 336.116 92.4148C335.817 92.2292 335.48 92.1364 335.105 92.1364ZM346.29 90.2045C346.889 90.2045 347.465 90.3049 348.018 90.5057C348.574 90.7064 349.071 91.0265 349.506 91.4659C349.946 91.9053 350.292 92.4886 350.546 93.2159C350.804 93.9394 350.934 94.8277 350.938 95.8807C350.938 96.8693 350.826 97.7519 350.603 98.5284C350.383 99.3011 350.067 99.9583 349.654 100.5C349.241 101.042 348.743 101.455 348.16 101.739C347.576 102.019 346.925 102.159 346.205 102.159C345.429 102.159 344.743 102.009 344.148 101.71C343.554 101.407 343.074 100.996 342.711 100.477C342.351 99.9545 342.133 99.3674 342.057 98.7159H344.483C344.578 99.1402 344.777 99.4697 345.08 99.7045C345.383 99.9356 345.758 100.051 346.205 100.051C346.963 100.051 347.538 99.7216 347.932 99.0625C348.326 98.3996 348.525 97.4924 348.529 96.3409H348.449C348.275 96.6818 348.04 96.9754 347.745 97.2216C347.449 97.464 347.11 97.6515 346.728 97.7841C346.349 97.9167 345.946 97.983 345.518 97.983C344.832 97.983 344.22 97.822 343.682 97.5C343.144 97.178 342.72 96.7348 342.41 96.1705C342.099 95.6061 341.944 94.9621 341.944 94.2386C341.94 93.4583 342.12 92.7633 342.483 92.1534C342.847 91.5436 343.355 91.0663 344.006 90.7216C344.661 90.3731 345.423 90.2008 346.29 90.2045ZM346.307 92.1364C345.925 92.1364 345.584 92.2273 345.285 92.4091C344.989 92.5909 344.754 92.8352 344.58 93.142C344.41 93.4489 344.326 93.7917 344.33 94.1705C344.33 94.553 344.413 94.8977 344.58 95.2045C344.751 95.5076 344.982 95.75 345.273 95.9318C345.569 96.1098 345.906 96.1989 346.285 96.1989C346.569 96.1989 346.832 96.1458 347.074 96.0398C347.317 95.9337 347.527 95.7879 347.705 95.6023C347.887 95.4129 348.029 95.1951 348.131 94.9489C348.233 94.7027 348.285 94.4413 348.285 94.1648C348.281 93.7973 348.194 93.4602 348.023 93.1534C347.853 92.8466 347.618 92.6004 347.319 92.4148C347.019 92.2292 346.682 92.1364 346.307 92.1364ZM357.584 102.159C356.735 102.159 355.98 102.013 355.317 101.722C354.658 101.426 354.137 101.021 353.754 100.506C353.375 99.9867 353.18 99.3883 353.169 98.7102H355.646C355.661 98.9943 355.754 99.2443 355.925 99.4602C356.099 99.6723 356.33 99.8371 356.618 99.9545C356.906 100.072 357.23 100.131 357.589 100.131C357.964 100.131 358.296 100.064 358.584 99.9318C358.872 99.7992 359.097 99.6155 359.26 99.3807C359.423 99.1458 359.504 98.875 359.504 98.5682C359.504 98.2576 359.417 97.983 359.243 97.7443C359.072 97.5019 358.826 97.3125 358.504 97.1761C358.186 97.0398 357.807 96.9716 357.368 96.9716H356.283V95.1648H357.368C357.739 95.1648 358.067 95.1004 358.351 94.9716C358.639 94.8428 358.862 94.6648 359.021 94.4375C359.18 94.2064 359.26 93.9375 359.26 93.6307C359.26 93.339 359.19 93.0833 359.05 92.8636C358.913 92.6402 358.72 92.4659 358.47 92.3409C358.224 92.2159 357.936 92.1534 357.606 92.1534C357.273 92.1534 356.968 92.214 356.692 92.3352C356.415 92.4527 356.194 92.6212 356.027 92.8409C355.86 93.0606 355.771 93.3182 355.76 93.6136H353.402C353.413 92.9432 353.605 92.3523 353.976 91.8409C354.347 91.3295 354.847 90.9299 355.476 90.642C356.108 90.3504 356.822 90.2045 357.618 90.2045C358.421 90.2045 359.123 90.3504 359.726 90.642C360.328 90.9337 360.796 91.3277 361.129 91.8239C361.466 92.3163 361.633 92.8693 361.629 93.483C361.633 94.1345 361.43 94.678 361.021 95.1136C360.616 95.5492 360.087 95.8258 359.436 95.9432V96.0341C360.292 96.1439 360.944 96.4413 361.391 96.9261C361.841 97.4072 362.065 98.0095 362.061 98.733C362.065 99.3958 361.873 99.9848 361.487 100.5C361.105 101.015 360.576 101.42 359.902 101.716C359.228 102.011 358.455 102.159 357.584 102.159ZM368.719 102.159C367.916 102.159 367.2 102.011 366.572 101.716C365.947 101.42 365.45 101.013 365.083 100.494C364.716 99.9754 364.524 99.3807 364.509 98.7102H366.896C366.922 99.161 367.111 99.5265 367.464 99.8068C367.816 100.087 368.235 100.227 368.719 100.227C369.106 100.227 369.447 100.142 369.742 99.9716C370.041 99.7973 370.274 99.5568 370.441 99.25C370.611 98.9394 370.697 98.5833 370.697 98.1818C370.697 97.7727 370.61 97.4129 370.435 97.1023C370.265 96.7917 370.028 96.5492 369.725 96.375C369.422 96.2008 369.075 96.1117 368.685 96.108C368.344 96.108 368.013 96.178 367.691 96.3182C367.373 96.4583 367.125 96.6496 366.947 96.892L364.759 96.5L365.31 90.3636H372.424V92.375H367.339L367.038 95.2898H367.106C367.31 95.0019 367.619 94.7633 368.032 94.5739C368.445 94.3845 368.907 94.2898 369.418 94.2898C370.119 94.2898 370.744 94.4545 371.293 94.7841C371.843 95.1136 372.276 95.5663 372.594 96.142C372.913 96.714 373.07 97.3731 373.066 98.1193C373.07 98.9034 372.888 99.6004 372.521 100.21C372.157 100.816 371.647 101.294 370.992 101.642C370.341 101.987 369.583 102.159 368.719 102.159ZM379.672 102.159C378.869 102.159 378.153 102.011 377.524 101.716C376.899 101.42 376.403 101.013 376.036 100.494C375.668 99.9754 375.477 99.3807 375.462 98.7102H377.848C377.875 99.161 378.064 99.5265 378.416 99.8068C378.769 100.087 379.187 100.227 379.672 100.227C380.058 100.227 380.399 100.142 380.695 99.9716C380.994 99.7973 381.227 99.5568 381.394 99.25C381.564 98.9394 381.649 98.5833 381.649 98.1818C381.649 97.7727 381.562 97.4129 381.388 97.1023C381.217 96.7917 380.981 96.5492 380.678 96.375C380.375 96.2008 380.028 96.1117 379.638 96.108C379.297 96.108 378.965 96.178 378.644 96.3182C378.325 96.4583 378.077 96.6496 377.899 96.892L375.712 96.5L376.263 90.3636H383.376V92.375H378.291L377.99 95.2898H378.058C378.263 95.0019 378.572 94.7633 378.984 94.5739C379.397 94.3845 379.859 94.2898 380.371 94.2898C381.072 94.2898 381.697 94.4545 382.246 94.7841C382.795 95.1136 383.229 95.5663 383.547 96.142C383.865 96.714 384.022 97.3731 384.019 98.1193C384.022 98.9034 383.84 99.6004 383.473 100.21C383.109 100.816 382.6 101.294 381.945 101.642C381.293 101.987 380.536 102.159 379.672 102.159ZM390.937 102.256C389.96 102.252 389.119 102.011 388.414 101.534C387.713 101.057 387.174 100.366 386.795 99.4602C386.42 98.5549 386.234 97.4659 386.238 96.1932C386.238 94.9242 386.426 93.8428 386.801 92.9489C387.179 92.0549 387.719 91.375 388.42 90.9091C389.124 90.4394 389.963 90.2045 390.937 90.2045C391.91 90.2045 392.748 90.4394 393.448 90.9091C394.153 91.3788 394.695 92.0606 395.073 92.9545C395.452 93.8447 395.64 94.9242 395.636 96.1932C395.636 97.4697 395.446 98.5606 395.068 99.4659C394.693 100.371 394.155 101.062 393.454 101.54C392.753 102.017 391.914 102.256 390.937 102.256ZM390.937 100.216C391.604 100.216 392.136 99.8807 392.534 99.2102C392.931 98.5398 393.128 97.5341 393.124 96.1932C393.124 95.3106 393.034 94.5758 392.852 93.9886C392.674 93.4015 392.42 92.9602 392.09 92.6648C391.765 92.3693 391.38 92.2216 390.937 92.2216C390.274 92.2216 389.744 92.553 389.346 93.2159C388.948 93.8788 388.748 94.8712 388.744 96.1932C388.744 97.0871 388.833 97.8333 389.011 98.4318C389.193 99.0265 389.448 99.4735 389.778 99.7727C390.107 100.068 390.494 100.216 390.937 100.216ZM402.28 102.159C401.477 102.159 400.761 102.011 400.132 101.716C399.507 101.42 399.011 101.013 398.644 100.494C398.276 99.9754 398.085 99.3807 398.07 98.7102H400.456C400.483 99.161 400.672 99.5265 401.024 99.8068C401.377 100.087 401.795 100.227 402.28 100.227C402.666 100.227 403.007 100.142 403.303 99.9716C403.602 99.7973 403.835 99.5568 404.002 99.25C404.172 98.9394 404.257 98.5833 404.257 98.1818C404.257 97.7727 404.17 97.4129 403.996 97.1023C403.826 96.7917 403.589 96.5492 403.286 96.375C402.983 96.2008 402.636 96.1117 402.246 96.108C401.905 96.108 401.574 96.178 401.252 96.3182C400.933 96.4583 400.685 96.6496 400.507 96.892L398.32 96.5L398.871 90.3636H405.985V92.375H400.899L400.598 95.2898H400.666C400.871 95.0019 401.18 94.7633 401.593 94.5739C402.005 94.3845 402.468 94.2898 402.979 94.2898C403.68 94.2898 404.305 94.4545 404.854 94.7841C405.403 95.1136 405.837 95.5663 406.155 96.142C406.473 96.714 406.63 97.3731 406.627 98.1193C406.63 98.9034 406.449 99.6004 406.081 100.21C405.718 100.816 405.208 101.294 404.553 101.642C403.901 101.987 403.144 102.159 402.28 102.159ZM408.806 99.9545V98.017L413.664 90.3636H415.335V93.0455H414.346L411.284 97.892V97.983H418.187V99.9545H408.806ZM414.392 102V99.3636L414.437 98.5057V90.3636H416.744V102H414.392ZM424.767 102.159C423.919 102.159 423.163 102.013 422.5 101.722C421.841 101.426 421.32 101.021 420.938 100.506C420.559 99.9867 420.364 99.3883 420.353 98.7102H422.83C422.845 98.9943 422.938 99.2443 423.108 99.4602C423.283 99.6723 423.514 99.8371 423.802 99.9545C424.089 100.072 424.413 100.131 424.773 100.131C425.148 100.131 425.48 100.064 425.767 99.9318C426.055 99.7992 426.281 99.6155 426.444 99.3807C426.606 99.1458 426.688 98.875 426.688 98.5682C426.688 98.2576 426.601 97.983 426.427 97.7443C426.256 97.5019 426.01 97.3125 425.688 97.1761C425.37 97.0398 424.991 96.9716 424.552 96.9716H423.466V95.1648H424.552C424.923 95.1648 425.25 95.1004 425.534 94.9716C425.822 94.8428 426.046 94.6648 426.205 94.4375C426.364 94.2064 426.444 93.9375 426.444 93.6307C426.444 93.339 426.374 93.0833 426.233 92.8636C426.097 92.6402 425.904 92.4659 425.654 92.3409C425.408 92.2159 425.12 92.1534 424.79 92.1534C424.457 92.1534 424.152 92.214 423.875 92.3352C423.599 92.4527 423.377 92.6212 423.211 92.8409C423.044 93.0606 422.955 93.3182 422.944 93.6136H420.586C420.597 92.9432 420.788 92.3523 421.159 91.8409C421.531 91.3295 422.031 90.9299 422.659 90.642C423.292 90.3504 424.006 90.2045 424.802 90.2045C425.605 90.2045 426.307 90.3504 426.909 90.642C427.512 90.9337 427.98 91.3277 428.313 91.8239C428.65 92.3163 428.817 92.8693 428.813 93.483C428.817 94.1345 428.614 94.678 428.205 95.1136C427.8 95.5492 427.271 95.8258 426.62 95.9432V96.0341C427.476 96.1439 428.127 96.4413 428.574 96.9261C429.025 97.4072 429.249 98.0095 429.245 98.733C429.249 99.3958 429.057 99.9848 428.671 100.5C428.288 101.015 427.76 101.42 427.086 101.716C426.411 102.011 425.639 102.159 424.767 102.159ZM431.653 102V100.227L435.795 96.392C436.148 96.0511 436.443 95.7443 436.682 95.4716C436.924 95.1989 437.108 94.9318 437.233 94.6705C437.358 94.4053 437.42 94.1193 437.42 93.8125C437.42 93.4716 437.343 93.178 437.187 92.9318C437.032 92.6818 436.82 92.4905 436.551 92.358C436.282 92.2216 435.977 92.1534 435.636 92.1534C435.28 92.1534 434.969 92.2254 434.704 92.3693C434.439 92.5133 434.235 92.7197 434.091 92.9886C433.947 93.2576 433.875 93.5777 433.875 93.9489H431.54C431.54 93.1875 431.712 92.5265 432.057 91.9659C432.401 91.4053 432.884 90.9716 433.505 90.6648C434.127 90.358 434.843 90.2045 435.653 90.2045C436.487 90.2045 437.212 90.3523 437.829 90.6477C438.451 90.9394 438.933 91.3447 439.278 91.8636C439.623 92.3826 439.795 92.9773 439.795 93.6477C439.795 94.0871 439.708 94.5208 439.534 94.9489C439.363 95.3769 439.058 95.8523 438.619 96.375C438.18 96.8939 437.56 97.517 436.761 98.2443L435.062 99.9091V99.9886H439.949V102H431.653ZM447.434 90.3636V102H444.974V92.6989H444.905L442.241 94.3693V92.1875L445.121 90.3636H447.434Z" fill="#E08210"/>
<path d="M3.35864 10.3636L6.17114 19.2045H6.27909L9.09728 10.3636H11.8245L7.81318 22H4.64273L0.625685 10.3636H3.35864ZM16.0053 10.3636V22H13.5451V10.3636H16.0053ZM28.0824 10.3636V22H25.9574L20.8949 14.6761H20.8097V22H18.3495V10.3636H20.5086L25.5313 17.6818H25.6336V10.3636H28.0824ZM44.1912 10.3636V22H42.0662L37.0037 14.6761H36.9185V22H34.4582V10.3636H36.6173L41.6401 17.6818H41.7423V10.3636H44.1912ZM53.7314 10.3636H56.1916V17.9205C56.1916 18.7689 55.9889 19.5114 55.5836 20.1477C55.1821 20.7841 54.6196 21.2803 53.8961 21.6364C53.1727 21.9886 52.3299 22.1648 51.3677 22.1648C50.4018 22.1648 49.5571 21.9886 48.8336 21.6364C48.1102 21.2803 47.5477 20.7841 47.1461 20.1477C46.7446 19.5114 46.5439 18.7689 46.5439 17.9205V10.3636H49.0041V17.7102C49.0041 18.1534 49.1007 18.5473 49.2939 18.892C49.4908 19.2367 49.7673 19.5076 50.1234 19.7045C50.4795 19.9015 50.8942 20 51.3677 20C51.845 20 52.2598 19.9015 52.612 19.7045C52.9681 19.5076 53.2427 19.2367 53.4359 18.892C53.6329 18.5473 53.7314 18.1534 53.7314 17.7102V10.3636ZM58.5357 10.3636H61.5698L64.7744 18.1818H64.9107L68.1153 10.3636H71.1494V22H68.763V14.4261H68.6664L65.6551 21.9432H64.0301L61.0187 14.3977H60.9221V22H58.5357V10.3636ZM73.4964 22V10.3636H78.1555C79.0115 10.3636 79.7255 10.4905 80.2975 10.7443C80.8695 10.9981 81.2994 11.3504 81.5873 11.8011C81.8752 12.2481 82.0191 12.7633 82.0191 13.3466C82.0191 13.8011 81.9282 14.2008 81.7464 14.5455C81.5645 14.8864 81.3145 15.1667 80.9964 15.3864C80.682 15.6023 80.3221 15.7557 79.9168 15.8466V15.9602C80.36 15.9792 80.7748 16.1042 81.1611 16.3352C81.5513 16.5663 81.8676 16.8902 82.11 17.3068C82.3524 17.7197 82.4736 18.2121 82.4736 18.7841C82.4736 19.4015 82.3202 19.9527 82.0134 20.4375C81.7104 20.9186 81.2615 21.2992 80.6668 21.5795C80.0721 21.8598 79.3392 22 78.468 22H73.4964ZM75.9566 19.9886H77.9623C78.6479 19.9886 79.1479 19.858 79.4623 19.5966C79.7767 19.3314 79.9339 18.9792 79.9339 18.5398C79.9339 18.2178 79.8562 17.9337 79.7009 17.6875C79.5456 17.4413 79.324 17.2481 79.0361 17.108C78.752 16.9678 78.413 16.8977 78.0191 16.8977H75.9566V19.9886ZM75.9566 15.233H77.7805C78.1176 15.233 78.4168 15.1742 78.6782 15.0568C78.9433 14.9356 79.1517 14.7652 79.3032 14.5455C79.4585 14.3258 79.5361 14.0625 79.5361 13.7557C79.5361 13.3352 79.3865 12.9962 79.0873 12.7386C78.7918 12.4811 78.3714 12.3523 77.8259 12.3523H75.9566V15.233ZM84.3945 22V10.3636H92.2354V12.392H86.8547V15.1648H91.832V17.1932H86.8547V19.9716H92.2581V22H84.3945ZM94.5114 22V10.3636H99.1023C99.9811 10.3636 100.731 10.5208 101.352 10.8352C101.977 11.1458 102.453 11.5871 102.778 12.1591C103.108 12.7273 103.273 13.3958 103.273 14.1648C103.273 14.9375 103.106 15.6023 102.773 16.1591C102.439 16.7121 101.956 17.1364 101.324 17.4318C100.695 17.7273 99.9337 17.875 99.0398 17.875H95.9659V15.8977H98.642C99.1117 15.8977 99.5019 15.8333 99.8125 15.7045C100.123 15.5758 100.354 15.3826 100.506 15.125C100.661 14.8674 100.739 14.5473 100.739 14.1648C100.739 13.7784 100.661 13.4527 100.506 13.1875C100.354 12.9223 100.121 12.7216 99.8068 12.5852C99.4962 12.4451 99.1042 12.375 98.6307 12.375H96.9716V22H94.5114ZM100.795 16.7045L103.688 22H100.972L98.142 16.7045H100.795Z" fill="#1C1C1C"/>
<path d="M66 86L66 26" stroke="url(#paint0_linear_898_55146)" stroke-width="2.3292"/>
<path d="M26.0057 90.3636V102H23.5455V92.6989H23.4773L20.8125 94.3693V92.1875L23.6932 90.3636H26.0057ZM37.1954 94.125C37.1159 93.8485 37.0041 93.6042 36.8602 93.392C36.7162 93.1761 36.5401 92.9943 36.3318 92.8466C36.1272 92.6951 35.8924 92.5795 35.6272 92.5C35.3659 92.4205 35.0761 92.3807 34.7579 92.3807C34.1632 92.3807 33.6405 92.5284 33.1897 92.8239C32.7427 93.1193 32.3943 93.5492 32.1443 94.1136C31.8943 94.6742 31.7693 95.3598 31.7693 96.1705C31.7693 96.9811 31.8924 97.6705 32.1386 98.2386C32.3848 98.8068 32.7333 99.2405 33.184 99.5398C33.6348 99.8352 34.167 99.983 34.7806 99.983C35.3374 99.983 35.8128 99.8845 36.2068 99.6875C36.6045 99.4867 36.9075 99.2045 37.1159 98.8409C37.328 98.4773 37.434 98.0473 37.434 97.5511L37.934 97.625H34.934V95.7727H39.8034V97.2386C39.8034 98.2614 39.5874 99.1402 39.1556 99.875C38.7238 100.606 38.1291 101.17 37.3715 101.568C36.614 101.962 35.7465 102.159 34.7693 102.159C33.6784 102.159 32.72 101.919 31.8943 101.438C31.0685 100.953 30.4246 100.265 29.9624 99.375C29.5041 98.4811 29.2749 97.4205 29.2749 96.1932C29.2749 95.25 29.4113 94.4091 29.684 93.6705C29.9605 92.928 30.3469 92.2992 30.8431 91.7841C31.3393 91.2689 31.917 90.8769 32.5761 90.608C33.2352 90.339 33.9492 90.2045 34.7181 90.2045C35.3772 90.2045 35.9909 90.3011 36.559 90.4943C37.1272 90.6837 37.631 90.9527 38.0704 91.3011C38.5136 91.6496 38.8753 92.0644 39.1556 92.5455C39.4359 93.0227 39.6159 93.5492 39.6954 94.125H37.1954ZM52.0243 90.3636V102H49.8993L44.8368 94.6761H44.7516V102H42.2914V90.3636H44.4505L49.4732 97.6818H49.5755V90.3636H52.0243ZM54.697 102V90.3636H62.5379V92.392H57.1572V95.1648H62.1345V97.1932H57.1572V99.9716H62.5606V102H54.697ZM65.1339 102V90.3636H67.5941V95.4943H67.7475L71.935 90.3636H74.8839L70.5657 95.5739L74.935 102H71.9918L68.8043 97.2159L67.5941 98.6932V102H65.1339ZM81.7994 90.3636V102H79.3392V92.6989H79.271L76.6063 94.3693V92.1875L79.4869 90.3636H81.7994ZM89.5062 102.159C88.6577 102.159 87.902 102.013 87.2391 101.722C86.5801 101.426 86.0592 101.021 85.6766 100.506C85.2979 99.9867 85.1028 99.3883 85.0914 98.7102H87.5687C87.5838 98.9943 87.6766 99.2443 87.8471 99.4602C88.0213 99.6723 88.2524 99.8371 88.5403 99.9545C88.8282 100.072 89.152 100.131 89.5119 100.131C89.8869 100.131 90.2183 100.064 90.5062 99.9318C90.7941 99.7992 91.0194 99.6155 91.1823 99.3807C91.3452 99.1458 91.4266 98.875 91.4266 98.5682C91.4266 98.2576 91.3395 97.983 91.1653 97.7443C90.9948 97.5019 90.7486 97.3125 90.4266 97.1761C90.1085 97.0398 89.7297 96.9716 89.2903 96.9716H88.2051V95.1648H89.2903C89.6615 95.1648 89.9891 95.1004 90.2732 94.9716C90.5611 94.8428 90.7846 94.6648 90.9437 94.4375C91.1028 94.2064 91.1823 93.9375 91.1823 93.6307C91.1823 93.339 91.1123 93.0833 90.9721 92.8636C90.8357 92.6402 90.6426 92.4659 90.3926 92.3409C90.1463 92.2159 89.8585 92.1534 89.5289 92.1534C89.1956 92.1534 88.8907 92.214 88.6141 92.3352C88.3376 92.4527 88.116 92.6212 87.9494 92.8409C87.7827 93.0606 87.6937 93.3182 87.6823 93.6136H85.3244C85.3357 92.9432 85.527 92.3523 85.8982 91.8409C86.2694 91.3295 86.7694 90.9299 87.3982 90.642C88.0308 90.3504 88.7448 90.2045 89.5403 90.2045C90.3433 90.2045 91.046 90.3504 91.6482 90.642C92.2505 90.9337 92.7183 91.3277 93.0516 91.8239C93.3888 92.3163 93.5554 92.8693 93.5516 93.483C93.5554 94.1345 93.3528 94.678 92.9437 95.1136C92.5384 95.5492 92.01 95.8258 91.3585 95.9432V96.0341C92.2145 96.1439 92.866 96.4413 93.313 96.9261C93.7638 97.4072 93.9873 98.0095 93.9835 98.733C93.9873 99.3958 93.796 99.9848 93.4096 100.5C93.027 101.015 92.4986 101.42 91.8244 101.716C91.1501 102.011 90.3774 102.159 89.5062 102.159ZM96.3351 102V100.54L102.142 92.392H96.3238V90.3636H105.233V91.8239L99.4203 99.9716H105.244V102H96.3351ZM110.079 90.3636L112.425 94.3295H112.516L114.874 90.3636H117.653L114.102 96.1818L117.732 102H114.903L112.516 98.0284H112.425L110.039 102H107.221L110.863 96.1818L107.289 90.3636H110.079ZM124.082 102.159C123.234 102.159 122.478 102.013 121.815 101.722C121.156 101.426 120.635 101.021 120.253 100.506C119.874 99.9867 119.679 99.3883 119.668 98.7102H122.145C122.16 98.9943 122.253 99.2443 122.423 99.4602C122.598 99.6723 122.829 99.8371 123.117 99.9545C123.404 100.072 123.728 100.131 124.088 100.131C124.463 100.131 124.795 100.064 125.082 99.9318C125.37 99.7992 125.596 99.6155 125.759 99.3807C125.921 99.1458 126.003 98.875 126.003 98.5682C126.003 98.2576 125.916 97.983 125.742 97.7443C125.571 97.5019 125.325 97.3125 125.003 97.1761C124.685 97.0398 124.306 96.9716 123.867 96.9716H122.781V95.1648H123.867C124.238 95.1648 124.565 95.1004 124.849 94.9716C125.137 94.8428 125.361 94.6648 125.52 94.4375C125.679 94.2064 125.759 93.9375 125.759 93.6307C125.759 93.339 125.689 93.0833 125.548 92.8636C125.412 92.6402 125.219 92.4659 124.969 92.3409C124.723 92.2159 124.435 92.1534 124.105 92.1534C123.772 92.1534 123.467 92.214 123.19 92.3352C122.914 92.4527 122.692 92.6212 122.526 92.8409C122.359 93.0606 122.27 93.3182 122.259 93.6136H119.901C119.912 92.9432 120.103 92.3523 120.474 91.8409C120.846 91.3295 121.346 90.9299 121.974 90.642C122.607 90.3504 123.321 90.2045 124.117 90.2045C124.92 90.2045 125.622 90.3504 126.224 90.642C126.827 90.9337 127.295 91.3277 127.628 91.8239C127.965 92.3163 128.132 92.8693 128.128 93.483C128.132 94.1345 127.929 94.678 127.52 95.1136C127.115 95.5492 126.586 95.8258 125.935 95.9432V96.0341C126.791 96.1439 127.442 96.4413 127.889 96.9261C128.34 97.4072 128.564 98.0095 128.56 98.733C128.564 99.3958 128.372 99.9848 127.986 100.5C127.603 101.015 127.075 101.42 126.401 101.716C125.726 102.011 124.954 102.159 124.082 102.159ZM131.036 102V90.3636H135.627C136.506 90.3636 137.256 90.5208 137.877 90.8352C138.502 91.1458 138.978 91.5871 139.303 92.1591C139.633 92.7273 139.798 93.3958 139.798 94.1648C139.798 94.9375 139.631 95.6023 139.298 96.1591C138.964 96.7121 138.481 97.1364 137.849 97.4318C137.22 97.7273 136.459 97.875 135.565 97.875H132.491V95.8977H135.167C135.637 95.8977 136.027 95.8333 136.338 95.7045C136.648 95.5758 136.879 95.3826 137.031 95.125C137.186 94.8674 137.264 94.5473 137.264 94.1648C137.264 93.7784 137.186 93.4527 137.031 93.1875C136.879 92.9223 136.646 92.7216 136.332 92.5852C136.021 92.4451 135.629 92.375 135.156 92.375H133.497V102H131.036ZM137.32 96.7045L140.213 102H137.497L134.667 96.7045H137.32ZM142.108 102V100.227L146.25 96.392C146.603 96.0511 146.898 95.7443 147.137 95.4716C147.379 95.1989 147.563 94.9318 147.688 94.6705C147.813 94.4053 147.875 94.1193 147.875 93.8125C147.875 93.4716 147.798 93.178 147.642 92.9318C147.487 92.6818 147.275 92.4905 147.006 92.358C146.737 92.2216 146.432 92.1534 146.091 92.1534C145.735 92.1534 145.424 92.2254 145.159 92.3693C144.894 92.5133 144.69 92.7197 144.546 92.9886C144.402 93.2576 144.33 93.5777 144.33 93.9489H141.995C141.995 93.1875 142.167 92.5265 142.512 91.9659C142.856 91.4053 143.339 90.9716 143.96 90.6648C144.582 90.358 145.298 90.2045 146.108 90.2045C146.942 90.2045 147.667 90.3523 148.284 90.6477C148.906 90.9394 149.388 91.3447 149.733 91.8636C150.078 92.3826 150.25 92.9773 150.25 93.6477C150.25 94.0871 150.163 94.5208 149.989 94.9489C149.818 95.3769 149.513 95.8523 149.074 96.375C148.635 96.8939 148.015 97.517 147.216 98.2443L145.517 99.9091V99.9886H150.404V102H142.108ZM157.037 90.2045C157.635 90.2045 158.211 90.3049 158.764 90.5057C159.321 90.7064 159.817 91.0265 160.252 91.4659C160.692 91.9053 161.038 92.4886 161.292 93.2159C161.55 93.9394 161.68 94.8277 161.684 95.8807C161.684 96.8693 161.573 97.7519 161.349 98.5284C161.129 99.3011 160.813 99.9583 160.4 100.5C159.987 101.042 159.489 101.455 158.906 101.739C158.323 102.019 157.671 102.159 156.951 102.159C156.175 102.159 155.489 102.009 154.894 101.71C154.3 101.407 153.821 100.996 153.457 100.477C153.097 99.9545 152.879 99.3674 152.804 98.7159H155.23C155.324 99.1402 155.523 99.4697 155.826 99.7045C156.129 99.9356 156.504 100.051 156.951 100.051C157.709 100.051 158.285 99.7216 158.679 99.0625C159.073 98.3996 159.271 97.4924 159.275 96.3409H159.196C159.021 96.6818 158.787 96.9754 158.491 97.2216C158.196 97.464 157.857 97.6515 157.474 97.7841C157.095 97.9167 156.692 97.983 156.264 97.983C155.578 97.983 154.966 97.822 154.429 97.5C153.891 97.178 153.466 96.7348 153.156 96.1705C152.845 95.6061 152.69 94.9621 152.69 94.2386C152.686 93.4583 152.866 92.7633 153.23 92.1534C153.593 91.5436 154.101 91.0663 154.752 90.7216C155.408 90.3731 156.169 90.2008 157.037 90.2045ZM157.054 92.1364C156.671 92.1364 156.33 92.2273 156.031 92.4091C155.735 92.5909 155.501 92.8352 155.326 93.142C155.156 93.4489 155.073 93.7917 155.076 94.1705C155.076 94.553 155.16 94.8977 155.326 95.2045C155.497 95.5076 155.728 95.75 156.019 95.9318C156.315 96.1098 156.652 96.1989 157.031 96.1989C157.315 96.1989 157.578 96.1458 157.821 96.0398C158.063 95.9337 158.273 95.7879 158.451 95.6023C158.633 95.4129 158.775 95.1951 158.877 94.9489C158.98 94.7027 159.031 94.4413 159.031 94.1648C159.027 93.7973 158.94 93.4602 158.769 93.1534C158.599 92.8466 158.364 92.6004 158.065 92.4148C157.766 92.2292 157.429 92.1364 157.054 92.1364ZM168.37 102.159C167.495 102.159 166.716 102.017 166.034 101.733C165.356 101.445 164.824 101.053 164.438 100.557C164.052 100.061 163.858 99.4981 163.858 98.8693C163.858 98.3845 163.968 97.9394 164.188 97.5341C164.411 97.125 164.714 96.786 165.097 96.517C165.48 96.2443 165.908 96.0701 166.381 95.9943V95.9148C165.76 95.7898 165.256 95.4886 164.87 95.0114C164.483 94.5303 164.29 93.9716 164.29 93.3352C164.29 92.733 164.466 92.197 164.819 91.7273C165.171 91.2538 165.654 90.8826 166.267 90.6136C166.885 90.3409 167.586 90.2045 168.37 90.2045C169.154 90.2045 169.853 90.3409 170.466 90.6136C171.084 90.8864 171.569 91.2595 171.921 91.733C172.273 92.2027 172.451 92.7367 172.455 93.3352C172.451 93.9754 172.254 94.5341 171.864 95.0114C171.474 95.4886 170.974 95.7898 170.364 95.9148V95.9943C170.83 96.0701 171.252 96.2443 171.631 96.517C172.014 96.786 172.317 97.125 172.54 97.5341C172.767 97.9394 172.883 98.3845 172.887 98.8693C172.883 99.4981 172.688 100.061 172.302 100.557C171.915 101.053 171.381 101.445 170.699 101.733C170.021 102.017 169.245 102.159 168.37 102.159ZM168.37 100.352C168.76 100.352 169.101 100.282 169.392 100.142C169.684 99.9981 169.911 99.8011 170.074 99.5511C170.241 99.2973 170.324 99.0057 170.324 98.6761C170.324 98.339 170.239 98.0417 170.069 97.7841C169.898 97.5227 169.667 97.3182 169.375 97.1705C169.084 97.0189 168.749 96.9432 168.37 96.9432C167.995 96.9432 167.659 97.0189 167.364 97.1705C167.069 97.3182 166.836 97.5227 166.665 97.7841C166.499 98.0417 166.415 98.339 166.415 98.6761C166.415 99.0057 166.497 99.2973 166.659 99.5511C166.822 99.8011 167.052 99.9981 167.347 100.142C167.642 100.282 167.983 100.352 168.37 100.352ZM168.37 95.1534C168.695 95.1534 168.985 95.0871 169.239 94.9545C169.493 94.822 169.692 94.6383 169.836 94.4034C169.98 94.1686 170.052 93.8977 170.052 93.5909C170.052 93.2879 169.98 93.0227 169.836 92.7955C169.692 92.5644 169.495 92.3845 169.245 92.2557C168.995 92.1231 168.703 92.0568 168.37 92.0568C168.04 92.0568 167.749 92.1231 167.495 92.2557C167.241 92.3845 167.042 92.5644 166.898 92.7955C166.758 93.0227 166.688 93.2879 166.688 93.5909C166.688 93.8977 166.76 94.1686 166.904 94.4034C167.048 94.6383 167.247 94.822 167.5 94.9545C167.754 95.0871 168.044 95.1534 168.37 95.1534ZM179.457 90.2045C180.056 90.2045 180.631 90.3049 181.184 90.5057C181.741 90.7064 182.237 91.0265 182.673 91.4659C183.112 91.9053 183.459 92.4886 183.713 93.2159C183.97 93.9394 184.101 94.8277 184.105 95.8807C184.105 96.8693 183.993 97.7519 183.77 98.5284C183.55 99.3011 183.234 99.9583 182.821 100.5C182.408 101.042 181.91 101.455 181.326 101.739C180.743 102.019 180.092 102.159 179.372 102.159C178.595 102.159 177.91 102.009 177.315 101.71C176.72 101.407 176.241 100.996 175.878 100.477C175.518 99.9545 175.3 99.3674 175.224 98.7159H177.65C177.745 99.1402 177.944 99.4697 178.247 99.7045C178.55 99.9356 178.925 100.051 179.372 100.051C180.13 100.051 180.705 99.7216 181.099 99.0625C181.493 98.3996 181.692 97.4924 181.696 96.3409H181.616C181.442 96.6818 181.207 96.9754 180.912 97.2216C180.616 97.464 180.277 97.6515 179.895 97.7841C179.516 97.9167 179.112 97.983 178.684 97.983C177.999 97.983 177.387 97.822 176.849 97.5C176.311 97.178 175.887 96.7348 175.576 96.1705C175.266 95.6061 175.111 94.9621 175.111 94.2386C175.107 93.4583 175.287 92.7633 175.65 92.1534C176.014 91.5436 176.522 91.0663 177.173 90.7216C177.828 90.3731 178.59 90.2008 179.457 90.2045ZM179.474 92.1364C179.092 92.1364 178.751 92.2273 178.451 92.4091C178.156 92.5909 177.921 92.8352 177.747 93.142C177.576 93.4489 177.493 93.7917 177.497 94.1705C177.497 94.553 177.58 94.8977 177.747 95.2045C177.917 95.5076 178.148 95.75 178.44 95.9318C178.736 96.1098 179.073 96.1989 179.451 96.1989C179.736 96.1989 179.999 96.1458 180.241 96.0398C180.484 95.9337 180.694 95.7879 180.872 95.6023C181.054 95.4129 181.196 95.1951 181.298 94.9489C181.4 94.7027 181.451 94.4413 181.451 94.1648C181.448 93.7973 181.361 93.4602 181.19 93.1534C181.02 92.8466 180.785 92.6004 180.486 92.4148C180.186 92.2292 179.849 92.1364 179.474 92.1364ZM190.79 102.159C189.915 102.159 189.137 102.017 188.455 101.733C187.777 101.445 187.245 101.053 186.859 100.557C186.472 100.061 186.279 99.4981 186.279 98.8693C186.279 98.3845 186.389 97.9394 186.609 97.5341C186.832 97.125 187.135 96.786 187.518 96.517C187.9 96.2443 188.328 96.0701 188.802 95.9943V95.9148C188.18 95.7898 187.677 95.4886 187.29 95.0114C186.904 94.5303 186.711 93.9716 186.711 93.3352C186.711 92.733 186.887 92.197 187.239 91.7273C187.591 91.2538 188.074 90.8826 188.688 90.6136C189.305 90.3409 190.006 90.2045 190.79 90.2045C191.574 90.2045 192.273 90.3409 192.887 90.6136C193.504 90.8864 193.989 91.2595 194.341 91.733C194.694 92.2027 194.872 92.7367 194.876 93.3352C194.872 93.9754 194.675 94.5341 194.285 95.0114C193.895 95.4886 193.395 95.7898 192.785 95.9148V95.9943C193.251 96.0701 193.673 96.2443 194.052 96.517C194.434 96.786 194.737 97.125 194.961 97.5341C195.188 97.9394 195.304 98.3845 195.307 98.8693C195.304 99.4981 195.109 100.061 194.722 100.557C194.336 101.053 193.802 101.445 193.12 101.733C192.442 102.017 191.665 102.159 190.79 102.159ZM190.79 100.352C191.18 100.352 191.521 100.282 191.813 100.142C192.105 99.9981 192.332 99.8011 192.495 99.5511C192.662 99.2973 192.745 99.0057 192.745 98.6761C192.745 98.339 192.66 98.0417 192.489 97.7841C192.319 97.5227 192.088 97.3182 191.796 97.1705C191.504 97.0189 191.169 96.9432 190.79 96.9432C190.415 96.9432 190.08 97.0189 189.785 97.1705C189.489 97.3182 189.256 97.5227 189.086 97.7841C188.919 98.0417 188.836 98.339 188.836 98.6761C188.836 99.0057 188.917 99.2973 189.08 99.5511C189.243 99.8011 189.472 99.9981 189.768 100.142C190.063 100.282 190.404 100.352 190.79 100.352ZM190.79 95.1534C191.116 95.1534 191.406 95.0871 191.66 94.9545C191.913 94.822 192.112 94.6383 192.256 94.4034C192.4 94.1686 192.472 93.8977 192.472 93.5909C192.472 93.2879 192.4 93.0227 192.256 92.7955C192.112 92.5644 191.915 92.3845 191.665 92.2557C191.415 92.1231 191.124 92.0568 190.79 92.0568C190.461 92.0568 190.169 92.1231 189.915 92.2557C189.662 92.3845 189.463 92.5644 189.319 92.7955C189.179 93.0227 189.109 93.2879 189.109 93.5909C189.109 93.8977 189.18 94.1686 189.324 94.4034C189.468 94.6383 189.667 94.822 189.921 94.9545C190.175 95.0871 190.465 95.1534 190.79 95.1534ZM197.491 99.9545V98.017L202.349 90.3636H204.02V93.0455H203.031L199.969 97.892V97.983H206.872V99.9545H197.491ZM203.077 102V99.3636L203.122 98.5057V90.3636H205.429V102H203.077Z" fill="#1C1C1C"/>
<defs>
<linearGradient id="paint0_linear_898_55146" x1="66.5" y1="26" x2="66.5" y2="86" gradientUnits="userSpaceOnUse">
<stop stop-opacity="0"/>
<stop offset="0.67" stop-opacity="0.37"/>
</linearGradient>
</defs>
</svg>
