<svg width="48" height="48" viewBox="0 0 48 48" fill="none" xmlns="http://www.w3.org/2000/svg">
<path fill-rule="evenodd" clip-rule="evenodd" d="M16.3596 6.49966C16.4429 6.49974 16.5272 6.49982 16.6127 6.49982H31.387C31.4724 6.49982 31.5568 6.49974 31.6401 6.49966C33.0488 6.49835 34.1531 6.49732 35.1298 6.88145C35.9867 7.21845 36.7453 7.76519 37.3359 8.47152C38.0092 9.27662 38.3575 10.3246 38.8017 11.6615C38.828 11.7405 38.8546 11.8206 38.8816 11.9016L40.8759 17.8847L43.329 16.6582C44.07 16.2877 44.971 16.588 45.3415 17.329C45.712 18.07 45.4116 18.971 44.6707 19.3415L42.8297 20.262C43.5927 20.9042 44.2244 21.696 44.6824 22.5949C45.1351 23.4833 45.3238 24.4436 45.4131 25.5369C45.4999 26.5987 45.4999 27.9099 45.4998 29.5356V34.9998C45.4998 35.0494 45.4999 35.0982 45.4999 35.1464C45.5003 35.9318 45.5006 36.5378 45.3942 37.0728C44.9602 39.2546 43.2546 40.9602 41.0728 41.3941C40.5378 41.5006 39.9319 41.5003 39.1464 41.4999C39.0982 41.4998 39.0494 41.4998 38.9998 41.4998H37.9998C35.1308 41.4998 32.7749 39.3031 32.5223 36.4998H15.4774C15.2248 39.3031 12.8689 41.4998 9.99984 41.4998H8.99984C8.95029 41.4998 8.90144 41.4998 8.85326 41.4999C8.06782 41.5003 7.46185 41.5006 6.92685 41.3941C4.74505 40.9602 3.03951 39.2546 2.60552 37.0728C2.4991 36.5378 2.4994 35.9318 2.49979 35.1464C2.49982 35.0982 2.49984 35.0494 2.49984 34.9998L2.49984 29.5356C2.49983 27.9099 2.49981 26.5987 2.58657 25.5369C2.67589 24.4436 2.86461 23.4833 3.31729 22.5949C3.77528 21.696 4.40702 20.9042 5.17003 20.262L3.32902 19.3415C2.58805 18.971 2.28772 18.07 2.6582 17.329C3.02868 16.588 3.92969 16.2877 4.67066 16.6582L7.12374 17.8847L9.1181 11.9016C9.14513 11.8205 9.17173 11.7405 9.19799 11.6614C9.64222 10.3246 9.99047 9.27661 10.6637 8.47152C11.2544 7.76519 12.013 7.21845 12.8698 6.88145C13.8465 6.49732 14.9509 6.49835 16.3596 6.49966ZM10.0638 18.5513C11.0246 18.4998 12.169 18.4998 13.5356 18.4998H34.464C35.8307 18.4998 36.975 18.4998 37.9359 18.5513L36.0355 12.8503C35.4705 11.1552 35.2945 10.7068 35.0346 10.396C34.7661 10.075 34.4213 9.82647 34.0318 9.67329C33.6549 9.52503 33.1737 9.49982 31.387 9.49982H16.6127C14.826 9.49982 14.3448 9.52503 13.9679 9.67329C13.5784 9.82647 13.2336 10.075 12.9651 10.396C12.7052 10.7068 12.5292 11.1552 11.9642 12.8503L10.0638 18.5513ZM9.7812 21.5766C8.87345 21.6507 8.35192 21.789 7.95688 21.9903C7.11015 22.4217 6.42174 23.1101 5.99031 23.9569C5.78903 24.3519 5.65077 24.8734 5.5766 25.7812C5.50101 26.7064 5.49984 27.8949 5.49984 29.5998V34.9998C5.49984 36.001 5.50711 36.2826 5.54788 36.4875C5.74514 37.4793 6.52039 38.2545 7.51211 38.4518C7.71709 38.4926 7.99863 38.4998 8.99984 38.4998H9.99984C11.3806 38.4998 12.4998 37.3805 12.4998 35.9998C12.4998 34.6191 13.6191 33.4998 14.9998 33.4998H32.9998C34.3806 33.4998 35.4998 34.6191 35.4998 35.9998C35.4998 37.3805 36.6191 38.4998 37.9998 38.4998H38.9998C40.001 38.4998 40.2826 38.4926 40.4876 38.4518C41.4793 38.2545 42.2545 37.4793 42.4518 36.4875C42.4926 36.2826 42.4998 36.001 42.4998 34.9998V29.5998C42.4998 27.8949 42.4987 26.7064 42.4231 25.7812C42.3489 24.8734 42.2106 24.3519 42.0094 23.9569C41.5779 23.1101 40.8895 22.4217 40.0428 21.9903C39.6478 21.789 39.1262 21.6507 38.2185 21.5766C37.2932 21.501 36.1047 21.4998 34.3998 21.4998H13.5998C11.8949 21.4998 10.7065 21.501 9.7812 21.5766ZM8.49984 27.9998C8.49984 27.1714 9.17141 26.4998 9.99984 26.4998H13.9998C14.8283 26.4998 15.4998 27.1714 15.4998 27.9998C15.4998 28.8282 14.8283 29.4998 13.9998 29.4998H9.99984C9.17141 29.4998 8.49984 28.8282 8.49984 27.9998ZM32.4998 27.9998C32.4998 27.1714 33.1714 26.4998 33.9998 26.4998H37.9998C38.8283 26.4998 39.4998 27.1714 39.4998 27.9998C39.4998 28.8282 38.8283 29.4998 37.9998 29.4998H33.9998C33.1714 29.4998 32.4998 28.8282 32.4998 27.9998Z" fill="#EF9B1B"/>
</svg>
