<svg width="24" height="24" viewBox="0 0 24 24" fill="none" xmlns="http://www.w3.org/2000/svg">
<path fill-rule="evenodd" clip-rule="evenodd" d="M8.77779 1.5H15.2222C16.0435 1.5 16.6905 1.49999 17.2111 1.54253C17.7423 1.58593 18.1859 1.67609 18.589 1.88148C19.2475 2.21703 19.783 2.75247 20.1185 3.41103C20.3239 3.81413 20.4141 4.25771 20.4575 4.78889C20.5 5.30954 20.5 5.95651 20.5 6.77778V10.5C20.5 10.7761 20.2761 11 20 11C19.7239 11 19.5 10.7761 19.5 10.5V6.8C19.5 5.95167 19.4996 5.34549 19.4608 4.87032C19.4224 4.40099 19.3491 4.10366 19.2275 3.86502C18.9878 3.39462 18.6054 3.01217 18.135 2.77248C17.8963 2.65089 17.599 2.57756 17.1297 2.53921C16.6545 2.50039 16.0483 2.5 15.2 2.5H8.8C7.95167 2.5 7.34549 2.50039 6.87032 2.53921C6.40099 2.57756 6.10366 2.65089 5.86502 2.77248C5.39462 3.01217 5.01217 3.39462 4.77248 3.86502C4.65089 4.10366 4.57756 4.40099 4.53921 4.87032C4.50039 5.34549 4.5 5.95167 4.5 6.8V17.2C4.5 18.0483 4.50039 18.6545 4.53921 19.1297C4.57756 19.599 4.65089 19.8963 4.77248 20.135C5.01217 20.6054 5.39462 20.9878 5.86502 21.2275C6.10366 21.3491 6.40099 21.4224 6.87032 21.4608C7.34549 21.4996 7.95167 21.5 8.8 21.5H11.5C11.7761 21.5 12 21.7239 12 22C12 22.2761 11.7761 22.5 11.5 22.5H8.77778C7.95651 22.5 7.30954 22.5 6.78889 22.4575C6.25771 22.4141 5.81413 22.3239 5.41103 22.1185C4.75247 21.783 4.21703 21.2475 3.88148 20.589C3.67609 20.1859 3.58593 19.7423 3.54253 19.2111C3.49999 18.6905 3.5 18.0435 3.5 17.2222V6.77779C3.5 5.95652 3.49999 5.30955 3.54253 4.78889C3.58593 4.25771 3.67609 3.81414 3.88148 3.41103C4.21703 2.75247 4.75247 2.21703 5.41103 1.88148C5.81414 1.67609 6.25771 1.58593 6.78889 1.54253C7.30955 1.49999 7.95652 1.5 8.77779 1.5ZM7.5 7C7.5 6.72386 7.72386 6.5 8 6.5H16C16.2761 6.5 16.5 6.72386 16.5 7C16.5 7.27614 16.2761 7.5 16 7.5H8C7.72386 7.5 7.5 7.27614 7.5 7ZM7.5 11C7.5 10.7239 7.72386 10.5 8 10.5H14C14.2761 10.5 14.5 10.7239 14.5 11C14.5 11.2761 14.2761 11.5 14 11.5H8C7.72386 11.5 7.5 11.2761 7.5 11ZM18 15C16.3431 15 15 16.3431 15 18C15 19.6569 16.3431 21 18 21C19.6569 21 21 19.6569 21 18C21 16.3431 19.6569 15 18 15ZM14 18C14 15.7909 15.7909 14 18 14C20.2091 14 22 15.7909 22 18C22 18.9244 21.6865 19.7755 21.1599 20.4528L22.3536 21.6464C22.5488 21.8417 22.5488 22.1583 22.3536 22.3536C22.1583 22.5488 21.8417 22.5488 21.6464 22.3536L20.4528 21.1599C19.7755 21.6865 18.9244 22 18 22C15.7909 22 14 20.2091 14 18ZM7.5 15C7.5 14.7239 7.72386 14.5 8 14.5H10C10.2761 14.5 10.5 14.7239 10.5 15C10.5 15.2761 10.2761 15.5 10 15.5H8C7.72386 15.5 7.5 15.2761 7.5 15Z" fill="#757778"/>
</svg>
