<svg width="48" height="48" viewBox="0 0 48 48" fill="none" xmlns="http://www.w3.org/2000/svg">
<path fill-rule="evenodd" clip-rule="evenodd" d="M22.9524 11.6621C20.022 12.5704 17.0231 13.5 14 13.5C11.9809 13.5 10.176 13.2854 8.65263 12.9928C7.60343 12.7912 6.88288 12.6533 6.35829 12.584C5.96641 12.5322 5.81041 12.5398 5.78469 12.5387C5.7105 12.5671 5.67865 12.5854 5.6691 12.5917C5.66075 12.6003 5.63474 12.6304 5.58902 12.7052C5.58326 12.7317 5.55172 12.8589 5.53078 13.174C5.50081 13.6251 5.50001 14.247 5.50001 15.1777L5.50001 36.6745C5.50001 36.7695 5.5001 36.8278 5.50137 36.8776C5.50254 36.9232 5.50439 36.9434 5.50533 36.9517C5.50597 36.9574 5.50642 36.96 5.50774 36.9654C5.50889 36.9701 5.51164 36.9807 5.51761 36.9991C5.51853 37.0008 5.51952 37.0026 5.52059 37.0045C5.538 37.0362 5.56402 37.0799 5.59547 37.1281C5.62692 37.1763 5.65633 37.2178 5.67831 37.2465C5.6802 37.249 5.68193 37.2512 5.68349 37.2532C5.69923 37.2679 5.71181 37.2793 5.72169 37.288L5.74115 37.2967C6.81798 37.7717 9.24784 38.5 14 38.5C17.7556 38.5 21.0675 37.5637 24.3089 36.5663C24.5546 36.4907 24.8009 36.4144 25.0476 36.3379C27.978 35.4296 30.9769 34.5 34 34.5C36.0191 34.5 37.824 34.7145 39.3474 35.0072C40.3966 35.2088 41.1171 35.3466 41.6417 35.416C42.0336 35.4678 42.1896 35.4602 42.2153 35.4613C42.2895 35.4329 42.3214 35.4146 42.3309 35.4083C42.3393 35.3997 42.3653 35.3696 42.411 35.2947C42.4168 35.2683 42.4483 35.1411 42.4692 34.826C42.4992 34.3749 42.5 33.753 42.5 32.8223V11.3255C42.5 11.2305 42.4999 11.1722 42.4986 11.1224C42.4975 11.0768 42.4956 11.0566 42.4947 11.0483C42.494 11.0426 42.4936 11.04 42.4923 11.0346C42.4911 11.0299 42.4884 11.0193 42.4824 11.0009C42.4815 10.9992 42.4805 10.9974 42.4794 10.9955C42.462 10.9638 42.436 10.9201 42.4045 10.8719C42.3731 10.8237 42.3437 10.7822 42.3217 10.7535C42.3198 10.751 42.3181 10.7488 42.3165 10.7468C42.3008 10.7321 42.2882 10.7207 42.2783 10.712L42.2589 10.7033C41.182 10.2283 38.7522 9.5 34 9.5C30.2445 9.5 26.9326 10.4363 23.6911 11.4337C23.4454 11.5093 23.1991 11.5856 22.9524 11.6621ZM22.8089 8.56633C26.0675 7.56369 29.7556 6.5 34 6.5C39.0427 6.5 41.9105 7.27074 43.4696 7.95847C43.4743 7.96053 43.4793 7.96272 43.4846 7.96505C43.5693 8.00224 43.7344 8.07472 43.9163 8.19411C44.102 8.31595 44.2626 8.45681 44.4164 8.6036C44.6243 8.80201 44.8091 9.06699 44.9177 9.23365C45.0264 9.40031 45.1942 9.67633 45.2919 9.94661C45.5002 10.5233 45.5001 10.9199 45.5 11.3028V32.8759C45.5 33.739 45.5 34.462 45.4626 35.0248C45.4272 35.5589 45.3493 36.2125 45.023 36.7717C44.8293 37.1037 44.5877 37.4352 44.2417 37.7212C43.8956 38.0071 43.5244 38.1817 43.1618 38.3093C42.5299 38.5317 41.8125 38.4647 41.2486 38.3901C40.6261 38.3078 39.8185 38.1526 38.8305 37.9628L38.7813 37.9534C37.4215 37.6921 35.807 37.5 34 37.5C31.4523 37.5 28.8797 38.2946 25.8261 39.2378C25.6167 39.3025 25.4051 39.3678 25.1911 39.4337C21.9326 40.4363 18.2445 41.5 14 41.5C8.95734 41.5 6.0895 40.7293 4.53039 40.0415C4.52573 40.0395 4.52074 40.0373 4.51543 40.0349C4.43072 39.9978 4.26562 39.9253 4.08369 39.8059C3.89802 39.684 3.73742 39.5432 3.58361 39.3964C3.37571 39.198 3.19092 38.933 3.08228 38.7663C2.97364 38.5997 2.80578 38.3237 2.70815 38.0534C2.49984 37.4766 2.49992 37.08 2.5 36.6972L2.50001 15.1242C2.49999 14.261 2.49998 13.538 2.53738 12.9751C2.57286 12.4411 2.65072 11.7875 2.97698 11.2283C3.1707 10.8963 3.41227 10.5648 3.75834 10.2788C4.10442 9.99293 4.47561 9.81827 4.83821 9.69067C5.47008 9.46832 6.18755 9.53534 6.75143 9.60988C7.37384 9.69215 8.18145 9.84733 9.16937 10.0372L9.2187 10.0466C10.5785 10.3079 12.193 10.5 14 10.5C16.5477 10.5 19.1203 9.70538 22.1739 8.7622C22.3833 8.69754 22.5949 8.63218 22.8089 8.56633ZM36 16.5C36.8284 16.5 37.5 17.1716 37.5 18V26C37.5 26.8284 36.8284 27.5 36 27.5C35.1716 27.5 34.5 26.8284 34.5 26V18C34.5 17.1716 35.1716 16.5 36 16.5ZM24 20.5C22.067 20.5 20.5 22.067 20.5 24C20.5 25.933 22.067 27.5 24 27.5C25.933 27.5 27.5 25.933 27.5 24C27.5 22.067 25.933 20.5 24 20.5ZM17.5 24C17.5 20.4101 20.4102 17.5 24 17.5C27.5899 17.5 30.5 20.4101 30.5 24C30.5 27.5898 27.5899 30.5 24 30.5C20.4102 30.5 17.5 27.5898 17.5 24ZM12 20.5C12.8284 20.5 13.5 21.1716 13.5 22V30C13.5 30.8284 12.8284 31.5 12 31.5C11.1716 31.5 10.5 30.8284 10.5 30V22C10.5 21.1716 11.1716 20.5 12 20.5Z" fill="#EF9B1B"/>
</svg>
