<svg width="48" height="48" viewBox="0 0 48 48" fill="none" xmlns="http://www.w3.org/2000/svg">
<path fill-rule="evenodd" clip-rule="evenodd" d="M17.5358 2.5H30.4642C32.0899 2.49999 33.4011 2.49997 34.4629 2.58673C35.5562 2.67605 36.5165 2.86477 37.4049 3.31745C38.8161 4.0365 39.9635 5.18386 40.6825 6.59507C41.1352 7.48351 41.3239 8.44379 41.4133 9.53707C41.5 10.5989 41.5 11.9101 41.5 13.5358V34.4642C41.5 36.0899 41.5 37.4011 41.4133 38.4629C41.3239 39.5562 41.1352 40.5165 40.6825 41.4049C39.9635 42.8161 38.8161 43.9635 37.4049 44.6825C36.5165 45.1352 35.5562 45.3239 34.4629 45.4133C33.4011 45.5 32.0899 45.5 30.4642 45.5H17.5358C15.9101 45.5 14.5989 45.5 13.5371 45.4133C12.4438 45.3239 11.4835 45.1352 10.5951 44.6825C9.18386 43.9635 8.0365 42.8161 7.31745 41.4049C6.86477 40.5165 6.67605 39.5562 6.58673 38.4629C6.49997 37.4011 6.49999 36.0899 6.5 34.4642V13.5358C6.49999 11.9101 6.49997 10.5989 6.58673 9.53707C6.67605 8.44379 6.86477 7.48351 7.31745 6.59507C8.0365 5.18386 9.18386 4.0365 10.5951 3.31745C11.4835 2.86477 12.4438 2.67605 13.5371 2.58673C14.5989 2.49997 15.9101 2.49999 17.5358 2.5ZM13.7814 5.57676C12.8736 5.65093 12.3521 5.78919 11.957 5.99047C11.1103 6.4219 10.4219 7.11031 9.99047 7.95704C9.78919 8.35208 9.65093 8.87361 9.57676 9.78136C9.50117 10.7066 9.5 11.8951 9.5 13.6V34.4C9.5 36.1049 9.50117 37.2934 9.57676 38.2186C9.65093 39.1264 9.78919 39.6479 9.99047 40.043C10.4219 40.8897 11.1103 41.5781 11.957 42.0095C12.3521 42.2108 12.8736 42.3491 13.7814 42.4232C14.7066 42.4988 15.8951 42.5 17.6 42.5H30.4C32.1049 42.5 33.2934 42.4988 34.2186 42.4232C35.1264 42.3491 35.6479 42.2108 36.043 42.0095C36.8897 41.5781 37.5781 40.8897 38.0095 40.043C38.2108 39.6479 38.3491 39.1264 38.4232 38.2186C38.4988 37.2934 38.5 36.1049 38.5 34.4V13.6C38.5 11.8951 38.4988 10.7066 38.4232 9.78136C38.3491 8.87361 38.2108 8.35208 38.0095 7.95704C37.5781 7.11031 36.8897 6.4219 36.043 5.99047C35.6479 5.78919 35.1264 5.65093 34.2186 5.57676C33.2934 5.50117 32.1049 5.5 30.4 5.5H17.6C15.8951 5.5 14.7066 5.50117 13.7814 5.57676ZM14.5 14C14.5 13.1716 15.1716 12.5 16 12.5H32C32.8284 12.5 33.5 13.1716 33.5 14C33.5 14.8284 32.8284 15.5 32 15.5H16C15.1716 15.5 14.5 14.8284 14.5 14ZM14.5 22C14.5 21.1716 15.1716 20.5 16 20.5H28C28.8284 20.5 29.5 21.1716 29.5 22C29.5 22.8284 28.8284 23.5 28 23.5H16C15.1716 23.5 14.5 22.8284 14.5 22ZM14.5 30C14.5 29.1716 15.1716 28.5 16 28.5H20C20.8284 28.5 21.5 29.1716 21.5 30C21.5 30.8284 20.8284 31.5 20 31.5H16C15.1716 31.5 14.5 30.8284 14.5 30Z" fill="#EF9B1B"/>
</svg>
