<svg width="23" height="28" viewBox="0 0 23 28" fill="none" xmlns="http://www.w3.org/2000/svg">
<g id="Group">
<path id="Vector" d="M3.70888 11.2717L3.1098 20.5298C1.54968 20.706 0.333008 22.0344 0.333008 23.6432C0.333008 25.1091 1.33217 26.356 2.76264 26.6756L5.64898 27.3207C5.68709 27.3297 5.72625 27.3334 5.76435 27.3334H16.7869C16.825 27.3334 16.8641 27.3292 16.9022 27.3207L19.7891 26.6756C21.219 26.356 22.2182 25.1086 22.2182 23.6432C22.2182 22.0344 21.0015 20.7066 19.4414 20.5298L18.8423 11.2712C18.6693 8.64362 16.7556 6.45531 14.2286 5.90546V4.76023H15.1786C15.3326 4.76023 15.4792 4.69302 15.5797 4.57607C15.6803 4.45911 15.7247 4.30405 15.702 4.15164L15.2447 1.11711C15.2056 0.858324 14.9833 0.666748 14.7213 0.666748H7.82988C7.56792 0.666748 7.34565 0.857795 7.30649 1.11711L6.84924 4.15164C6.82649 4.30405 6.87094 4.45911 6.97149 4.57607C7.07152 4.69302 7.21864 4.76023 7.37264 4.76023H8.32258V5.90546C5.79187 6.45902 3.8814 8.64574 3.70888 11.2717ZM5.23514 26.1437L2.99391 25.6431C2.05084 25.4319 1.39197 24.6095 1.39197 23.6432C1.39197 22.3609 2.46734 21.5671 3.46332 21.5671C3.9068 21.5671 4.32859 21.7206 4.68316 22.0106C4.86468 22.1593 5.04991 22.3302 5.23566 22.5207L5.23514 26.1437ZM16.2576 26.275H6.29357V22.8383H16.2576V26.275ZM19.0884 21.5671C20.0844 21.5671 21.1598 22.3609 21.1598 23.6432C21.1598 24.6095 20.5009 25.4319 19.5584 25.6431L17.3166 26.1437V22.5207C17.5024 22.3307 17.6876 22.1593 17.8686 22.0106C18.2232 21.7206 18.6449 21.5671 19.0884 21.5671ZM7.98759 3.7018L8.28554 1.72571H14.2657L14.5636 3.7018H13.71C13.7063 3.7018 13.7031 3.69969 13.6999 3.69969H8.85233C8.84862 3.69969 8.84545 3.7018 8.84227 3.7018H7.98759ZM13.1702 4.76023V5.7721C13.103 5.76998 13.0384 5.76521 12.9691 5.76521H9.58212C9.51226 5.76521 9.44822 5.76998 9.38101 5.7721V4.76023H13.1702ZM8.93224 6.86969C9.13546 6.83794 9.3482 6.82312 9.58212 6.82312H12.9691C13.2025 6.82312 13.4158 6.83794 13.628 6.87128C15.8872 7.17875 17.6357 9.05853 17.7855 11.3394L18.3851 20.6034C17.9575 20.7087 17.5537 20.9003 17.1975 21.1913C16.988 21.3628 16.7768 21.5639 16.5662 21.7793H5.98504C5.77441 21.5639 5.56272 21.3623 5.35315 21.1913C4.99752 20.9003 4.59373 20.7087 4.16612 20.6034L4.76572 11.34C4.91496 9.05853 6.66402 7.17875 8.93224 6.86969Z" fill="#1C1C1C"/>
<path id="Vector_2" d="M6.36943 11.7023C6.3943 11.7177 8.85092 13.2789 8.85092 18.1307C8.85092 18.4234 9.08748 18.66 9.38014 18.66C9.6728 18.66 9.90936 18.4234 9.90936 18.1307C9.90936 12.6925 7.04418 10.8741 6.92193 10.7995C6.67161 10.6466 6.34667 10.7254 6.19426 10.9741C6.04132 11.2239 6.12017 11.5499 6.36943 11.7023Z" fill="#1C1C1C"/>
<path id="Vector_3" d="M13.1723 18.6606C13.465 18.6606 13.7015 18.4241 13.7015 18.1314C13.7015 13.332 16.0793 11.7692 16.1857 11.7015C16.4328 11.548 16.5101 11.2236 16.3577 10.9754C16.2053 10.7266 15.8803 10.6478 15.63 10.8007C15.5083 10.8753 12.6426 12.6932 12.6426 18.132C12.6431 18.4236 12.8797 18.6606 13.1723 18.6606Z" fill="#1C1C1C"/>
</g>
</svg>
