<svg width="24" height="24" viewBox="0 0 24 24" fill="none" xmlns="http://www.w3.org/2000/svg">
<path fill-rule="evenodd" clip-rule="evenodd" d="M2.51293 11.5H4.5C4.77614 11.5 5 11.7239 5 12C5 12.2761 4.77614 12.5 4.5 12.5H2.51293C2.62943 14.7468 3.52654 16.787 4.93822 18.3547C5.51425 17.7793 5.87937 17.4244 6.30561 17.1632C6.70824 16.9164 7.14718 16.7346 7.60635 16.6244C8.12475 16.4999 8.66934 16.5 9.58227 16.5L14.4177 16.5C15.3306 16.4999 15.8752 16.4999 16.3936 16.6243C16.8528 16.7346 17.2918 16.9164 17.6944 17.1631C18.1206 17.4243 18.4858 17.7792 19.0618 18.3547C20.4735 16.787 21.3706 14.7467 21.4871 12.5H19.5C19.2239 12.5 19 12.2761 19 12C19 11.7239 19.2239 11.5 19.5 11.5H21.4871C21.3715 9.27179 20.4882 7.24669 19.0966 5.68419L14.0871 10.6232C14.3481 11.0181 14.5 11.4913 14.5 12C14.5 13.3807 13.3807 14.5 12 14.5C10.6193 14.5 9.5 13.3807 9.5 12C9.5 10.6193 10.6193 9.5 12 9.5C12.5104 9.5 12.985 9.65293 13.3806 9.91547L18.3934 4.97323C16.8206 3.54138 14.7653 2.63039 12.5 2.51293V4.5C12.5 4.77614 12.2761 5 12 5C11.7239 5 11.5 4.77614 11.5 4.5V2.51293C9.23356 2.63045 7.17726 3.54231 5.60417 4.97543L7.01163 6.3829C7.2069 6.57816 7.2069 6.89474 7.01163 7.09C6.81637 7.28527 6.49979 7.28527 6.30453 7.09L4.90117 5.68664C3.51085 7.24882 2.62841 9.27296 2.51293 11.5ZM19.4981 19.3504C21.355 17.4564 22.5 14.8619 22.5 12C22.5 6.20101 17.799 1.5 12 1.5C6.20101 1.5 1.5 6.20101 1.5 12C1.5 14.862 2.64507 17.4566 4.50207 19.3506C4.5208 19.3794 4.5428 19.4067 4.56808 19.432C4.59335 19.4573 4.62066 19.4793 4.64948 19.498C6.54346 21.355 9.13801 22.5 12 22.5C14.8619 22.5 17.4564 21.355 19.3504 19.4981C19.3793 19.4793 19.4067 19.4573 19.432 19.432C19.4573 19.4067 19.4793 19.3793 19.4981 19.3504ZM18.3546 19.0619C17.763 18.4717 17.4854 18.2079 17.1719 18.0158C16.8587 17.8239 16.5173 17.6824 16.1602 17.5967C15.7708 17.5032 15.3512 17.5 14.349 17.5L9.65096 17.5C8.6488 17.5 8.22921 17.5033 7.83979 17.5967C7.48267 17.6825 7.14127 17.8239 6.82811 18.0158C6.51465 18.2079 6.23701 18.4718 5.64541 19.0619C7.32866 20.5776 9.5566 21.5 12 21.5C14.4434 21.5 16.6714 20.5775 18.3546 19.0619ZM12 10.5C11.1716 10.5 10.5 11.1716 10.5 12C10.5 12.8284 11.1716 13.5 12 13.5C12.8284 13.5 13.5 12.8284 13.5 12C13.5 11.1716 12.8284 10.5 12 10.5Z" fill="#757778"/>
</svg>
