<svg width="32" height="32" viewBox="0 0 32 32" fill="none" xmlns="http://www.w3.org/2000/svg">
<g id="icon/speedometer">
<path id="Icon (Stroke)" fill-rule="evenodd" clip-rule="evenodd" d="M16 3.33333C9.00439 3.33333 3.33333 9.00439 3.33333 16C3.33333 22.9956 9.00439 28.6667 16 28.6667C22.9956 28.6667 28.6667 22.9956 28.6667 16C28.6667 9.00439 22.9956 3.33333 16 3.33333ZM2 16C2 8.26801 8.26801 2 16 2C23.732 2 30 8.26801 30 16C30 23.732 23.732 30 16 30C8.26801 30 2 23.732 2 16ZM16 7.33333C11.2135 7.33333 7.33333 11.2135 7.33333 16C7.33333 16.3682 7.03486 16.6667 6.66667 16.6667C6.29848 16.6667 6 16.3682 6 16C6 10.4772 10.4772 6 16 6C16.3682 6 16.6667 6.29848 16.6667 6.66667C16.6667 7.03486 16.3682 7.33333 16 7.33333ZM22.4713 9.5286C22.7316 9.78895 22.7316 10.2111 22.4713 10.4714L17.805 15.1376C17.93 15.3988 18 15.6912 18 16C18 17.1046 17.1046 18 16 18C14.8954 18 14 17.1046 14 16C14 14.8954 14.8954 14 16 14C16.3087 14 16.6011 14.07 16.8622 14.1949L21.5285 9.5286C21.7888 9.26825 22.2109 9.26825 22.4713 9.5286ZM15.9793 16.6664C15.9164 16.6644 15.8556 16.6538 15.7982 16.6356C15.8571 16.6542 15.9181 16.6645 15.9793 16.6664ZM16.479 16.4637L16.4713 16.4714C16.3421 16.6005 16.1732 16.6656 16.0039 16.6667M16.479 16.4637C16.3586 16.588 16.1904 16.6656 16.0039 16.6667L16.479 16.4637Z" fill="#1C1C1C"/>
<path id="Icon (Stroke)_2" fill-rule="evenodd" clip-rule="evenodd" d="M23.6443 16.1461C23.9318 16.3761 23.9785 16.7956 23.7484 17.0832L21.9483 19.3334H24.5612C24.8175 19.3334 25.0511 19.4803 25.1621 19.7112C25.2731 19.9422 25.2419 20.2164 25.0818 20.4165L22.4151 23.7498C22.1851 24.0373 21.7656 24.0839 21.4781 23.8539C21.1906 23.6239 21.144 23.2044 21.374 22.9169L23.1741 20.6667H20.5612C20.3049 20.6667 20.0713 20.5198 19.9603 20.2888C19.8493 20.0578 19.8805 19.7837 20.0406 19.5836L22.7073 16.2502C22.9373 15.9627 23.3568 15.9161 23.6443 16.1461Z" fill="#1C1C1C"/>
</g>
</svg>
