<svg width="32" height="32" viewBox="0 0 32 32" fill="none" xmlns="http://www.w3.org/2000/svg">
<g id="icon/transmission">
<path id="Rectangle 101496 (Stroke)" fill-rule="evenodd" clip-rule="evenodd" d="M24.6741 28.014C25.1717 28.014 25.4939 27.4886 25.2684 27.0451L23.9181 24.3902C23.8043 24.1666 23.5747 24.0257 23.3238 24.0257L8.72007 24.0257C8.4692 24.0257 8.23957 24.1666 8.12584 24.3902L6.77555 27.0451C6.54998 27.4886 6.87219 28.014 7.36978 28.014L24.6741 28.014ZM26.4568 26.4407C27.1335 27.7712 26.1669 29.3473 24.6741 29.3473L7.36978 29.3473C5.87702 29.3473 4.91038 27.7712 5.58709 26.4407L6.93739 23.7857C7.27857 23.1149 7.96746 22.6924 8.72007 22.6924L23.3238 22.6924C24.0764 22.6924 24.7653 23.1149 25.1065 23.7857L26.4568 26.4407Z" fill="#1C1C1C"/>
<path id="Rectangle 101497 (Stroke)" fill-rule="evenodd" clip-rule="evenodd" d="M16.6663 14.6667V24.0001H15.333V14.6667H16.6663Z" fill="#1C1C1C"/>
<path id="Ellipse 3629 (Stroke)" fill-rule="evenodd" clip-rule="evenodd" d="M15.9997 14.6667C18.9452 14.6667 21.333 12.2789 21.333 9.33341C21.333 6.3879 18.9452 4.00008 15.9997 4.00008C13.0542 4.00008 10.6663 6.3879 10.6663 9.33341C10.6663 12.2789 13.0542 14.6667 15.9997 14.6667ZM15.9997 16.0001C19.6816 16.0001 22.6663 13.0153 22.6663 9.33341C22.6663 5.65152 19.6816 2.66675 15.9997 2.66675C12.3178 2.66675 9.33301 5.65152 9.33301 9.33341C9.33301 13.0153 12.3178 16.0001 15.9997 16.0001Z" fill="#1C1C1C"/>
</g>
</svg>
